%TF.GenerationSoftware,KiCad,Pcbnew,7.0.9*%
%TF.CreationDate,2024-10-07T21:29:41-04:00*%
%TF.ProjectId,T12 soldering station V12,54313220-736f-46c6-9465-72696e672073,rev?*%
%TF.SameCoordinates,Original*%
%TF.FileFunction,Drillmap*%
%TF.FilePolarity,Positive*%
%FSLAX45Y45*%
G04 Gerber Fmt 4.5, Leading zero omitted, Abs format (unit mm)*
G04 Created by KiCad (PCBNEW 7.0.9) date 2024-10-07 21:29:41*
%MOMM*%
%LPD*%
G01*
G04 APERTURE LIST*
%ADD10C,0.100000*%
%ADD11C,0.200000*%
%ADD12C,0.110000*%
%ADD13C,0.119989*%
%ADD14C,0.159999*%
%ADD15C,0.239999*%
%ADD16C,0.270000*%
G04 APERTURE END LIST*
D10*
X5204088Y-14309542D02*
G75*
G03*
X5303278Y-14408732I99192J2D01*
G01*
X5303278Y-8758528D02*
G75*
G03*
X5204088Y-8857720I2J-99192D01*
G01*
X5204088Y-8857720D02*
X5204088Y-14309542D01*
X13353359Y-8865318D02*
G75*
G03*
X13254460Y-8758530I-98899J7598D01*
G01*
X13255442Y-14408732D02*
X5303278Y-14408732D01*
X13255442Y-14408732D02*
G75*
G03*
X13354632Y-14309542I-2J99192D01*
G01*
X13254460Y-8758530D02*
X5303460Y-8758530D01*
X13353359Y-8865318D02*
X13354632Y-14309542D01*
D11*
D10*
X7820660Y-9128760D02*
X7851140Y-9159240D01*
X7851140Y-9128760D02*
X7820660Y-9159240D01*
X7901684Y-9134547D02*
X7932164Y-9165027D01*
X7932164Y-9134547D02*
X7901684Y-9165027D01*
X8112760Y-12329160D02*
X8143240Y-12359640D01*
X8143240Y-12329160D02*
X8112760Y-12359640D01*
X8112760Y-12430760D02*
X8143240Y-12461240D01*
X8143240Y-12430760D02*
X8112760Y-12461240D01*
X8214360Y-12329160D02*
X8244840Y-12359640D01*
X8244840Y-12329160D02*
X8214360Y-12359640D01*
X8214360Y-12430760D02*
X8244840Y-12461240D01*
X8244840Y-12430760D02*
X8214360Y-12461240D01*
X8214360Y-12532360D02*
X8244840Y-12562840D01*
X8244840Y-12532360D02*
X8214360Y-12562840D01*
X8214360Y-12633960D02*
X8244840Y-12664440D01*
X8244840Y-12633960D02*
X8214360Y-12664440D01*
X8214360Y-12748260D02*
X8244840Y-12778740D01*
X8244840Y-12748260D02*
X8214360Y-12778740D01*
X8214360Y-12862560D02*
X8244840Y-12893040D01*
X8244840Y-12862560D02*
X8214360Y-12893040D01*
X8214360Y-12964160D02*
X8244840Y-12994640D01*
X8244840Y-12964160D02*
X8214360Y-12994640D01*
X8315960Y-12329160D02*
X8346440Y-12359640D01*
X8346440Y-12329160D02*
X8315960Y-12359640D01*
X8315960Y-12430760D02*
X8346440Y-12461240D01*
X8346440Y-12430760D02*
X8315960Y-12461240D01*
X8315960Y-12532360D02*
X8346440Y-12562840D01*
X8346440Y-12532360D02*
X8315960Y-12562840D01*
X8315960Y-12633960D02*
X8346440Y-12664440D01*
X8346440Y-12633960D02*
X8315960Y-12664440D01*
X8315960Y-12748260D02*
X8346440Y-12778740D01*
X8346440Y-12748260D02*
X8315960Y-12778740D01*
X8315960Y-12862560D02*
X8346440Y-12893040D01*
X8346440Y-12862560D02*
X8315960Y-12893040D01*
X8315960Y-12964160D02*
X8346440Y-12994640D01*
X8346440Y-12964160D02*
X8315960Y-12994640D01*
X8341360Y-13078460D02*
X8371840Y-13108940D01*
X8371840Y-13078460D02*
X8341360Y-13108940D01*
X8341360Y-13167360D02*
X8371840Y-13197840D01*
X8371840Y-13167360D02*
X8341360Y-13197840D01*
X8341360Y-13256260D02*
X8371840Y-13286740D01*
X8371840Y-13256260D02*
X8341360Y-13286740D01*
X8341360Y-13345160D02*
X8371840Y-13375640D01*
X8371840Y-13345160D02*
X8341360Y-13375640D01*
X8341360Y-13675360D02*
X8371840Y-13705840D01*
X8371840Y-13675360D02*
X8341360Y-13705840D01*
X8430260Y-12125960D02*
X8460740Y-12156440D01*
X8460740Y-12125960D02*
X8430260Y-12156440D01*
X8430260Y-12227560D02*
X8460740Y-12258040D01*
X8460740Y-12227560D02*
X8430260Y-12258040D01*
X8430260Y-12329160D02*
X8460740Y-12359640D01*
X8460740Y-12329160D02*
X8430260Y-12359640D01*
X8430260Y-12430760D02*
X8460740Y-12461240D01*
X8460740Y-12430760D02*
X8430260Y-12461240D01*
X8430260Y-12532360D02*
X8460740Y-12562840D01*
X8460740Y-12532360D02*
X8430260Y-12562840D01*
X8430260Y-12633960D02*
X8460740Y-12664440D01*
X8460740Y-12633960D02*
X8430260Y-12664440D01*
X8430260Y-12748260D02*
X8460740Y-12778740D01*
X8460740Y-12748260D02*
X8430260Y-12778740D01*
X8430260Y-12862560D02*
X8460740Y-12893040D01*
X8460740Y-12862560D02*
X8430260Y-12893040D01*
X8430260Y-12964160D02*
X8460740Y-12994640D01*
X8460740Y-12964160D02*
X8430260Y-12994640D01*
X8430260Y-13078460D02*
X8460740Y-13108940D01*
X8460740Y-13078460D02*
X8430260Y-13108940D01*
X8430260Y-13167360D02*
X8460740Y-13197840D01*
X8460740Y-13167360D02*
X8430260Y-13197840D01*
X8430260Y-13256260D02*
X8460740Y-13286740D01*
X8460740Y-13256260D02*
X8430260Y-13286740D01*
X8430260Y-13345160D02*
X8460740Y-13375640D01*
X8460740Y-13345160D02*
X8430260Y-13375640D01*
X8430260Y-13675360D02*
X8460740Y-13705840D01*
X8460740Y-13675360D02*
X8430260Y-13705840D01*
X8544560Y-12024360D02*
X8575040Y-12054840D01*
X8575040Y-12024360D02*
X8544560Y-12054840D01*
X8544560Y-12125960D02*
X8575040Y-12156440D01*
X8575040Y-12125960D02*
X8544560Y-12156440D01*
X8544560Y-12227560D02*
X8575040Y-12258040D01*
X8575040Y-12227560D02*
X8544560Y-12258040D01*
X8544560Y-12329160D02*
X8575040Y-12359640D01*
X8575040Y-12329160D02*
X8544560Y-12359640D01*
X8544560Y-12430760D02*
X8575040Y-12461240D01*
X8575040Y-12430760D02*
X8544560Y-12461240D01*
X8544560Y-12532360D02*
X8575040Y-12562840D01*
X8575040Y-12532360D02*
X8544560Y-12562840D01*
X8544560Y-12633960D02*
X8575040Y-12664440D01*
X8575040Y-12633960D02*
X8544560Y-12664440D01*
X8544560Y-12748260D02*
X8575040Y-12778740D01*
X8575040Y-12748260D02*
X8544560Y-12778740D01*
X8544560Y-12862560D02*
X8575040Y-12893040D01*
X8575040Y-12862560D02*
X8544560Y-12893040D01*
X8544560Y-12964160D02*
X8575040Y-12994640D01*
X8575040Y-12964160D02*
X8544560Y-12994640D01*
X8620760Y-11389360D02*
X8651240Y-11419840D01*
X8651240Y-11389360D02*
X8620760Y-11419840D01*
X8620760Y-11465560D02*
X8651240Y-11496040D01*
X8651240Y-11465560D02*
X8620760Y-11496040D01*
X8620760Y-11541760D02*
X8651240Y-11572240D01*
X8651240Y-11541760D02*
X8620760Y-11572240D01*
X8620760Y-11617960D02*
X8651240Y-11648440D01*
X8651240Y-11617960D02*
X8620760Y-11648440D01*
X8646160Y-12024360D02*
X8676640Y-12054840D01*
X8676640Y-12024360D02*
X8646160Y-12054840D01*
X8646160Y-12125960D02*
X8676640Y-12156440D01*
X8676640Y-12125960D02*
X8646160Y-12156440D01*
X8658860Y-12227560D02*
X8689340Y-12258040D01*
X8689340Y-12227560D02*
X8658860Y-12258040D01*
X8658860Y-12329160D02*
X8689340Y-12359640D01*
X8689340Y-12329160D02*
X8658860Y-12359640D01*
X8658860Y-12430760D02*
X8689340Y-12461240D01*
X8689340Y-12430760D02*
X8658860Y-12461240D01*
X8658860Y-12532360D02*
X8689340Y-12562840D01*
X8689340Y-12532360D02*
X8658860Y-12562840D01*
X8658860Y-12633960D02*
X8689340Y-12664440D01*
X8689340Y-12633960D02*
X8658860Y-12664440D01*
X8658860Y-12748260D02*
X8689340Y-12778740D01*
X8689340Y-12748260D02*
X8658860Y-12778740D01*
X8658860Y-12862560D02*
X8689340Y-12893040D01*
X8689340Y-12862560D02*
X8658860Y-12893040D01*
X8658860Y-12964160D02*
X8689340Y-12994640D01*
X8689340Y-12964160D02*
X8658860Y-12994640D01*
X8760460Y-11313160D02*
X8790940Y-11343640D01*
X8790940Y-11313160D02*
X8760460Y-11343640D01*
X8798560Y-11046460D02*
X8829040Y-11076940D01*
X8829040Y-11046460D02*
X8798560Y-11076940D01*
X8849360Y-11224260D02*
X8879840Y-11254740D01*
X8879840Y-11224260D02*
X8849360Y-11254740D01*
X8874760Y-11135360D02*
X8905240Y-11165840D01*
X8905240Y-11135360D02*
X8874760Y-11165840D01*
X8900160Y-10378390D02*
X8930640Y-10408870D01*
X8930640Y-10378390D02*
X8900160Y-10408870D01*
X8965882Y-10330651D02*
X8996362Y-10361131D01*
X8996362Y-10330651D02*
X8965882Y-10361131D01*
X9006890Y-13754050D02*
X9037370Y-13784530D01*
X9037370Y-13754050D02*
X9006890Y-13784530D01*
X9088120Y-13754050D02*
X9118600Y-13784530D01*
X9118600Y-13754050D02*
X9088120Y-13784530D01*
X9146540Y-10810240D02*
X9177020Y-10840720D01*
X9177020Y-10810240D02*
X9146540Y-10840720D01*
X9151620Y-11137900D02*
X9182100Y-11168380D01*
X9182100Y-11137900D02*
X9151620Y-11168380D01*
X9154160Y-11643360D02*
X9184640Y-11673840D01*
X9184640Y-11643360D02*
X9154160Y-11673840D01*
X9155560Y-11323400D02*
X9186040Y-11353880D01*
X9186040Y-11323400D02*
X9155560Y-11353880D01*
X9227710Y-10807118D02*
X9258190Y-10837598D01*
X9258190Y-10807118D02*
X9227710Y-10837598D01*
X9230360Y-11643360D02*
X9260840Y-11673840D01*
X9260840Y-11643360D02*
X9230360Y-11673840D01*
X9230462Y-9555839D02*
X9260942Y-9586319D01*
X9260942Y-9555839D02*
X9230462Y-9586319D01*
X9243060Y-11259950D02*
X9273540Y-11290430D01*
X9273540Y-11259950D02*
X9243060Y-11290430D01*
X9243060Y-11386850D02*
X9273540Y-11417330D01*
X9273540Y-11386850D02*
X9243060Y-11417330D01*
X9311640Y-9552940D02*
X9342120Y-9583420D01*
X9342120Y-9552940D02*
X9311640Y-9583420D01*
X9339836Y-13211247D02*
X9370316Y-13241727D01*
X9370316Y-13211247D02*
X9339836Y-13241727D01*
X9415830Y-9992360D02*
X9446310Y-10022840D01*
X9446310Y-9992360D02*
X9415830Y-10022840D01*
X9420860Y-13205460D02*
X9451340Y-13235940D01*
X9451340Y-13205460D02*
X9420860Y-13235940D01*
X9497060Y-9992360D02*
X9527540Y-10022840D01*
X9527540Y-9992360D02*
X9497060Y-10022840D01*
X9509760Y-11770360D02*
X9540240Y-11800840D01*
X9540240Y-11770360D02*
X9509760Y-11800840D01*
X9585960Y-11770360D02*
X9616440Y-11800840D01*
X9616440Y-11770360D02*
X9585960Y-11800840D01*
X9662782Y-14139079D02*
X9693262Y-14169559D01*
X9693262Y-14139079D02*
X9662782Y-14169559D01*
X9720580Y-13693140D02*
X9751060Y-13723620D01*
X9751060Y-13693140D02*
X9720580Y-13723620D01*
X9720580Y-14079220D02*
X9751060Y-14109700D01*
X9751060Y-14079220D02*
X9720580Y-14109700D01*
X9761220Y-9913620D02*
X9791700Y-9944100D01*
X9791700Y-9913620D02*
X9761220Y-9944100D01*
X9801379Y-13701498D02*
X9831859Y-13731978D01*
X9831859Y-13701498D02*
X9801379Y-13731978D01*
X9845040Y-9839960D02*
X9875520Y-9870440D01*
X9875520Y-9839960D02*
X9845040Y-9870440D01*
X10195560Y-12379960D02*
X10226040Y-12410440D01*
X10226040Y-12379960D02*
X10195560Y-12410440D01*
X10195560Y-12684760D02*
X10226040Y-12715240D01*
X10226040Y-12684760D02*
X10195560Y-12715240D01*
X10347960Y-12532360D02*
X10378440Y-12562840D01*
X10378440Y-12532360D02*
X10347960Y-12562840D01*
X10386060Y-11262360D02*
X10416540Y-11292840D01*
X10416540Y-11262360D02*
X10386060Y-11292840D01*
X10386060Y-11343590D02*
X10416540Y-11374070D01*
X10416540Y-11343590D02*
X10386060Y-11374070D01*
X10500360Y-12379960D02*
X10530840Y-12410440D01*
X10530840Y-12379960D02*
X10500360Y-12410440D01*
X10500360Y-12684760D02*
X10530840Y-12715240D01*
X10530840Y-12684760D02*
X10500360Y-12715240D01*
X10789713Y-11414760D02*
X10820193Y-11445240D01*
X10820193Y-11414760D02*
X10789713Y-11445240D01*
X10845800Y-11483340D02*
X10876280Y-11513820D01*
X10876280Y-11483340D02*
X10845800Y-11513820D01*
X10889411Y-11414809D02*
X10919891Y-11445289D01*
X10919891Y-11414809D02*
X10889411Y-11445289D01*
X10937240Y-11889740D02*
X10967720Y-11920220D01*
X10967720Y-11889740D02*
X10937240Y-11920220D01*
X10937240Y-11970970D02*
X10967720Y-12001450D01*
X10967720Y-11970970D02*
X10937240Y-12001450D01*
X10957439Y-9481479D02*
X10987919Y-9511959D01*
X10987919Y-9481479D02*
X10957439Y-9511959D01*
X11046460Y-9484360D02*
X11076940Y-9514840D01*
X11076940Y-9484360D02*
X11046460Y-9514840D01*
X11305482Y-13643358D02*
X11335962Y-13673838D01*
X11335962Y-13643358D02*
X11305482Y-13673838D01*
X11376660Y-13702810D02*
X11407140Y-13733290D01*
X11407140Y-13702810D02*
X11376660Y-13733290D01*
X11822690Y-13321810D02*
X11853170Y-13352290D01*
X11853170Y-13321810D02*
X11822690Y-13352290D01*
X11854180Y-13716000D02*
X11884660Y-13746480D01*
X11884660Y-13716000D02*
X11854180Y-13746480D01*
X11900940Y-13254760D02*
X11931420Y-13285240D01*
X11931420Y-13254760D02*
X11900940Y-13285240D01*
X11910060Y-12760960D02*
X11940540Y-12791440D01*
X11940540Y-12760960D02*
X11910060Y-12791440D01*
X11920542Y-13776910D02*
X11951022Y-13807390D01*
X11951022Y-13776910D02*
X11920542Y-13807390D01*
X11925250Y-12680835D02*
X11955730Y-12711315D01*
X11955730Y-12680835D02*
X11925250Y-12711315D01*
X11961850Y-13134340D02*
X11992330Y-13164820D01*
X11992330Y-13134340D02*
X11961850Y-13164820D01*
X11978929Y-13529190D02*
X12009409Y-13559670D01*
X12009409Y-13529190D02*
X11978929Y-13559670D01*
X12043988Y-13194598D02*
X12074468Y-13225078D01*
X12074468Y-13194598D02*
X12043988Y-13225078D01*
X12054840Y-13121640D02*
X12085320Y-13152120D01*
X12085320Y-13121640D02*
X12054840Y-13152120D01*
X12059920Y-13522960D02*
X12090400Y-13553440D01*
X12090400Y-13522960D02*
X12059920Y-13553440D01*
X12060940Y-13274040D02*
X12091420Y-13304520D01*
X12091420Y-13274040D02*
X12060940Y-13304520D01*
X12106562Y-13055600D02*
X12137042Y-13086080D01*
X12137042Y-13055600D02*
X12106562Y-13086080D01*
X12280287Y-12679338D02*
X12310767Y-12709818D01*
X12310767Y-12679338D02*
X12280287Y-12709818D01*
X12293396Y-13588599D02*
X12323876Y-13619079D01*
X12323876Y-13588599D02*
X12293396Y-13619079D01*
X12300940Y-13507720D02*
X12331420Y-13538200D01*
X12331420Y-13507720D02*
X12300940Y-13538200D01*
X12319000Y-12750750D02*
X12349480Y-12781230D01*
X12349480Y-12750750D02*
X12319000Y-12781230D01*
X12374930Y-12813318D02*
X12405410Y-12843798D01*
X12405410Y-12813318D02*
X12374930Y-12843798D01*
X12435840Y-12755880D02*
X12466320Y-12786360D01*
X12466320Y-12755880D02*
X12435840Y-12786360D01*
X12473593Y-13243560D02*
X12504073Y-13274040D01*
X12504073Y-13243560D02*
X12473593Y-13274040D01*
X12539190Y-13321810D02*
X12569670Y-13352290D01*
X12569670Y-13321810D02*
X12539190Y-13352290D01*
X12566303Y-12205623D02*
X12596783Y-12236103D01*
X12596783Y-12205623D02*
X12566303Y-12236103D01*
X12606903Y-12135267D02*
X12637383Y-12165747D01*
X12637383Y-12135267D02*
X12606903Y-12165747D01*
X12727940Y-12169140D02*
X12758420Y-12199620D01*
X12758420Y-12169140D02*
X12727940Y-12199620D01*
X12735560Y-12588240D02*
X12766040Y-12618720D01*
X12766040Y-12588240D02*
X12735560Y-12618720D01*
X12743180Y-12763560D02*
X12773660Y-12794040D01*
X12773660Y-12763560D02*
X12743180Y-12794040D01*
X12757100Y-12244956D02*
X12787580Y-12275436D01*
X12787580Y-12244956D02*
X12757100Y-12275436D01*
X12804140Y-12517120D02*
X12834620Y-12547600D01*
X12834620Y-12517120D02*
X12804140Y-12547600D01*
X12810611Y-12701369D02*
X12841091Y-12731849D01*
X12841091Y-12701369D02*
X12810611Y-12731849D01*
X12938760Y-13428980D02*
X12969240Y-13459460D01*
X12969240Y-13428980D02*
X12938760Y-13459460D01*
X13019990Y-13428980D02*
X13050470Y-13459460D01*
X13050470Y-13428980D02*
X13019990Y-13459460D01*
X8838880Y-10675620D02*
G75*
G03*
X8838880Y-10675620I-20000J0D01*
G01*
X9423080Y-13898880D02*
G75*
G03*
X9423080Y-13898880I-20000J0D01*
G01*
X7137400Y-9507220D02*
X7137400Y-9568180D01*
X7106920Y-9537700D02*
X7167880Y-9537700D01*
X7145020Y-9189720D02*
X7145020Y-9250680D01*
X7114540Y-9220200D02*
X7175500Y-9220200D01*
X7404100Y-9926320D02*
X7404100Y-9987280D01*
X7373620Y-9956800D02*
X7434580Y-9956800D01*
X7767320Y-9715500D02*
X7767320Y-9776460D01*
X7736840Y-9745980D02*
X7797800Y-9745980D01*
X7861300Y-11590020D02*
X7861300Y-11650980D01*
X7830820Y-11620500D02*
X7891780Y-11620500D01*
X7965440Y-9870440D02*
X7965440Y-9931400D01*
X7934960Y-9900920D02*
X7995920Y-9900920D01*
X8514080Y-9131250D02*
X8514080Y-9192210D01*
X8483600Y-9161730D02*
X8544560Y-9161730D01*
X8522920Y-9671100D02*
X8522920Y-9732060D01*
X8492440Y-9701580D02*
X8553400Y-9701580D01*
X9334500Y-9159240D02*
X9334500Y-9220200D01*
X9304020Y-9189720D02*
X9364980Y-9189720D01*
X9497060Y-9164320D02*
X9497060Y-9225280D01*
X9466580Y-9194800D02*
X9527540Y-9194800D01*
X9582320Y-14063150D02*
X9582320Y-14124110D01*
X9551840Y-14093630D02*
X9612800Y-14093630D01*
X9887120Y-14063150D02*
X9887120Y-14124110D01*
X9856640Y-14093630D02*
X9917600Y-14093630D01*
X10007600Y-13589000D02*
X10007600Y-13649960D01*
X9977120Y-13619480D02*
X10038080Y-13619480D01*
X10152380Y-9568180D02*
X10152380Y-9629140D01*
X10121900Y-9598660D02*
X10182860Y-9598660D01*
X10673080Y-10927080D02*
X10673080Y-10988040D01*
X10642600Y-10957560D02*
X10703560Y-10957560D01*
X10792460Y-11897360D02*
X10792460Y-11958320D01*
X10761980Y-11927840D02*
X10822940Y-11927840D01*
X10845800Y-13863320D02*
X10845800Y-13924280D01*
X10815320Y-13893800D02*
X10876280Y-13893800D01*
X10886440Y-13388340D02*
X10886440Y-13449300D01*
X10855960Y-13418820D02*
X10916920Y-13418820D01*
X11117580Y-13451840D02*
X11117580Y-13512800D01*
X11087100Y-13482320D02*
X11148060Y-13482320D01*
X11160760Y-9725660D02*
X11160760Y-9786620D01*
X11130280Y-9756140D02*
X11191240Y-9756140D01*
X11233120Y-12472700D02*
X11233120Y-12533660D01*
X11202640Y-12503180D02*
X11263600Y-12503180D01*
X11611610Y-12752070D02*
X11611610Y-12813030D01*
X11581130Y-12782550D02*
X11642090Y-12782550D01*
X11908820Y-12988320D02*
X11908820Y-13049280D01*
X11878340Y-13018800D02*
X11939300Y-13018800D01*
X12770220Y-12872120D02*
X12770220Y-12933080D01*
X12739740Y-12902600D02*
X12800700Y-12902600D01*
X13047080Y-13154060D02*
X13047080Y-13215020D01*
X13016600Y-13184540D02*
X13077560Y-13184540D01*
X13062320Y-13006740D02*
X13062320Y-13067700D01*
X13031840Y-13037220D02*
X13092800Y-13037220D01*
D12*
X8316391Y-10026391D02*
X8316391Y-9948609D01*
X8238609Y-9948609D01*
X8238609Y-10026391D01*
X8316391Y-10026391D01*
X8566391Y-10026391D02*
X8566391Y-9948609D01*
X8488609Y-9948609D01*
X8488609Y-10026391D01*
X8566391Y-10026391D01*
X8816391Y-10026391D02*
X8816391Y-9948609D01*
X8738609Y-9948609D01*
X8738609Y-10026391D01*
X8816391Y-10026391D01*
X9066391Y-10026391D02*
X9066391Y-9948609D01*
X8988609Y-9948609D01*
X8988609Y-10026391D01*
X9066391Y-10026391D01*
D13*
X6553200Y-9770795D02*
X6613195Y-9710800D01*
X6553200Y-9650805D01*
X6493205Y-9710800D01*
X6553200Y-9770795D01*
X6553200Y-10270795D02*
X6613195Y-10210800D01*
X6553200Y-10150805D01*
X6493205Y-10210800D01*
X6553200Y-10270795D01*
X6553200Y-10862995D02*
X6613195Y-10803000D01*
X6553200Y-10743005D01*
X6493205Y-10803000D01*
X6553200Y-10862995D01*
X6553200Y-11362995D02*
X6613195Y-11303000D01*
X6553200Y-11243005D01*
X6493205Y-11303000D01*
X6553200Y-11362995D01*
X6553200Y-11947195D02*
X6613195Y-11887200D01*
X6553200Y-11827205D01*
X6493205Y-11887200D01*
X6553200Y-11947195D01*
X6553200Y-12447195D02*
X6613195Y-12387200D01*
X6553200Y-12327205D01*
X6493205Y-12387200D01*
X6553200Y-12447195D01*
X6553200Y-13039395D02*
X6613195Y-12979400D01*
X6553200Y-12919405D01*
X6493205Y-12979400D01*
X6553200Y-13039395D01*
X6553200Y-13539395D02*
X6613195Y-13479400D01*
X6553200Y-13419405D01*
X6493205Y-13479400D01*
X6553200Y-13539395D01*
D14*
X11360160Y-11873240D02*
X11520160Y-12033240D01*
X11520160Y-11873240D02*
X11360160Y-12033240D01*
X11520160Y-11953240D02*
G75*
G03*
X11520160Y-11953240I-80000J0D01*
G01*
X11614160Y-10123240D02*
X11774160Y-10283240D01*
X11774160Y-10123240D02*
X11614160Y-10283240D01*
X11774160Y-10203240D02*
G75*
G03*
X11774160Y-10203240I-80000J0D01*
G01*
X11868160Y-11873240D02*
X12028160Y-12033240D01*
X12028160Y-11873240D02*
X11868160Y-12033240D01*
X12028160Y-11953240D02*
G75*
G03*
X12028160Y-11953240I-80000J0D01*
G01*
X12122160Y-10123240D02*
X12282160Y-10283240D01*
X12282160Y-10123240D02*
X12122160Y-10283240D01*
X12282160Y-10203240D02*
G75*
G03*
X12282160Y-10203240I-80000J0D01*
G01*
X12376160Y-11873240D02*
X12536160Y-12033240D01*
X12536160Y-11873240D02*
X12376160Y-12033240D01*
X12536160Y-11953240D02*
G75*
G03*
X12536160Y-11953240I-80000J0D01*
G01*
D15*
X11088160Y-10783240D02*
X11328160Y-11023240D01*
X11328160Y-10783240D02*
X11088160Y-11023240D01*
X11208160Y-10783240D02*
X11208160Y-11023240D01*
X11088160Y-10903240D02*
X11328160Y-10903240D01*
D10*
X11328160Y-10908239D02*
X11328160Y-10898241D01*
X11328160Y-10898241D02*
G75*
G03*
X11088160Y-10898241I-120000J0D01*
G01*
X11088160Y-10898241D02*
X11088160Y-10908239D01*
X11088160Y-10908239D02*
G75*
G03*
X11328160Y-10908239I120000J0D01*
G01*
D15*
X12568160Y-10783240D02*
X12808160Y-11023240D01*
X12808160Y-10783240D02*
X12568160Y-11023240D01*
X12688160Y-10783240D02*
X12688160Y-11023240D01*
X12568160Y-10903240D02*
X12808160Y-10903240D01*
D10*
X12808160Y-10908239D02*
X12808160Y-10898241D01*
X12808160Y-10898241D02*
G75*
G03*
X12568160Y-10898241I-120000J0D01*
G01*
X12568160Y-10898241D02*
X12568160Y-10908239D01*
X12568160Y-10908239D02*
G75*
G03*
X12808160Y-10908239I120000J0D01*
G01*
D16*
X5554600Y-9047100D02*
X5824600Y-9317100D01*
X5824600Y-9047100D02*
X5554600Y-9317100D01*
X5785060Y-9277560D02*
X5785060Y-9086640D01*
X5594140Y-9086640D01*
X5594140Y-9277560D01*
X5785060Y-9277560D01*
X5554600Y-13842620D02*
X5824600Y-14112620D01*
X5824600Y-13842620D02*
X5554600Y-14112620D01*
X5785060Y-14073080D02*
X5785060Y-13882160D01*
X5594140Y-13882160D01*
X5594140Y-14073080D01*
X5785060Y-14073080D01*
X12788520Y-9052180D02*
X13058520Y-9322180D01*
X13058520Y-9052180D02*
X12788520Y-9322180D01*
X13018980Y-9282640D02*
X13018980Y-9091720D01*
X12828060Y-9091720D01*
X12828060Y-9282640D01*
X13018980Y-9282640D01*
X12788520Y-13842620D02*
X13058520Y-14112620D01*
X13058520Y-13842620D02*
X12788520Y-14112620D01*
X13018980Y-14073080D02*
X13018980Y-13882160D01*
X12828060Y-13882160D01*
X12828060Y-14073080D01*
X13018980Y-14073080D01*
D11*
X5459865Y-14725216D02*
X5459865Y-14525216D01*
X5459865Y-14525216D02*
X5507484Y-14525216D01*
X5507484Y-14525216D02*
X5536055Y-14534740D01*
X5536055Y-14534740D02*
X5555103Y-14553787D01*
X5555103Y-14553787D02*
X5564627Y-14572835D01*
X5564627Y-14572835D02*
X5574150Y-14610930D01*
X5574150Y-14610930D02*
X5574150Y-14639502D01*
X5574150Y-14639502D02*
X5564627Y-14677597D01*
X5564627Y-14677597D02*
X5555103Y-14696644D01*
X5555103Y-14696644D02*
X5536055Y-14715692D01*
X5536055Y-14715692D02*
X5507484Y-14725216D01*
X5507484Y-14725216D02*
X5459865Y-14725216D01*
X5659865Y-14725216D02*
X5659865Y-14591883D01*
X5659865Y-14629978D02*
X5669388Y-14610930D01*
X5669388Y-14610930D02*
X5678912Y-14601406D01*
X5678912Y-14601406D02*
X5697960Y-14591883D01*
X5697960Y-14591883D02*
X5717008Y-14591883D01*
X5783674Y-14725216D02*
X5783674Y-14591883D01*
X5783674Y-14525216D02*
X5774150Y-14534740D01*
X5774150Y-14534740D02*
X5783674Y-14544264D01*
X5783674Y-14544264D02*
X5793198Y-14534740D01*
X5793198Y-14534740D02*
X5783674Y-14525216D01*
X5783674Y-14525216D02*
X5783674Y-14544264D01*
X5907484Y-14725216D02*
X5888436Y-14715692D01*
X5888436Y-14715692D02*
X5878912Y-14696644D01*
X5878912Y-14696644D02*
X5878912Y-14525216D01*
X6012246Y-14725216D02*
X5993198Y-14715692D01*
X5993198Y-14715692D02*
X5983674Y-14696644D01*
X5983674Y-14696644D02*
X5983674Y-14525216D01*
X6240817Y-14725216D02*
X6240817Y-14525216D01*
X6240817Y-14525216D02*
X6307484Y-14668073D01*
X6307484Y-14668073D02*
X6374150Y-14525216D01*
X6374150Y-14525216D02*
X6374150Y-14725216D01*
X6555103Y-14725216D02*
X6555103Y-14620454D01*
X6555103Y-14620454D02*
X6545579Y-14601406D01*
X6545579Y-14601406D02*
X6526531Y-14591883D01*
X6526531Y-14591883D02*
X6488436Y-14591883D01*
X6488436Y-14591883D02*
X6469388Y-14601406D01*
X6555103Y-14715692D02*
X6536055Y-14725216D01*
X6536055Y-14725216D02*
X6488436Y-14725216D01*
X6488436Y-14725216D02*
X6469388Y-14715692D01*
X6469388Y-14715692D02*
X6459865Y-14696644D01*
X6459865Y-14696644D02*
X6459865Y-14677597D01*
X6459865Y-14677597D02*
X6469388Y-14658549D01*
X6469388Y-14658549D02*
X6488436Y-14649025D01*
X6488436Y-14649025D02*
X6536055Y-14649025D01*
X6536055Y-14649025D02*
X6555103Y-14639502D01*
X6650341Y-14591883D02*
X6650341Y-14791883D01*
X6650341Y-14601406D02*
X6669388Y-14591883D01*
X6669388Y-14591883D02*
X6707484Y-14591883D01*
X6707484Y-14591883D02*
X6726531Y-14601406D01*
X6726531Y-14601406D02*
X6736055Y-14610930D01*
X6736055Y-14610930D02*
X6745579Y-14629978D01*
X6745579Y-14629978D02*
X6745579Y-14687121D01*
X6745579Y-14687121D02*
X6736055Y-14706168D01*
X6736055Y-14706168D02*
X6726531Y-14715692D01*
X6726531Y-14715692D02*
X6707484Y-14725216D01*
X6707484Y-14725216D02*
X6669388Y-14725216D01*
X6669388Y-14725216D02*
X6650341Y-14715692D01*
X6831293Y-14706168D02*
X6840817Y-14715692D01*
X6840817Y-14715692D02*
X6831293Y-14725216D01*
X6831293Y-14725216D02*
X6821769Y-14715692D01*
X6821769Y-14715692D02*
X6831293Y-14706168D01*
X6831293Y-14706168D02*
X6831293Y-14725216D01*
X6831293Y-14601406D02*
X6840817Y-14610930D01*
X6840817Y-14610930D02*
X6831293Y-14620454D01*
X6831293Y-14620454D02*
X6821769Y-14610930D01*
X6821769Y-14610930D02*
X6831293Y-14601406D01*
X6831293Y-14601406D02*
X6831293Y-14620454D01*
D10*
X5168608Y-15038492D02*
X5199088Y-15068972D01*
X5199088Y-15038492D02*
X5168608Y-15068972D01*
D11*
X5497960Y-14945216D02*
X5517008Y-14945216D01*
X5517008Y-14945216D02*
X5536055Y-14954740D01*
X5536055Y-14954740D02*
X5545579Y-14964264D01*
X5545579Y-14964264D02*
X5555103Y-14983311D01*
X5555103Y-14983311D02*
X5564627Y-15021406D01*
X5564627Y-15021406D02*
X5564627Y-15069025D01*
X5564627Y-15069025D02*
X5555103Y-15107121D01*
X5555103Y-15107121D02*
X5545579Y-15126168D01*
X5545579Y-15126168D02*
X5536055Y-15135692D01*
X5536055Y-15135692D02*
X5517008Y-15145216D01*
X5517008Y-15145216D02*
X5497960Y-15145216D01*
X5497960Y-15145216D02*
X5478912Y-15135692D01*
X5478912Y-15135692D02*
X5469389Y-15126168D01*
X5469389Y-15126168D02*
X5459865Y-15107121D01*
X5459865Y-15107121D02*
X5450341Y-15069025D01*
X5450341Y-15069025D02*
X5450341Y-15021406D01*
X5450341Y-15021406D02*
X5459865Y-14983311D01*
X5459865Y-14983311D02*
X5469389Y-14964264D01*
X5469389Y-14964264D02*
X5478912Y-14954740D01*
X5478912Y-14954740D02*
X5497960Y-14945216D01*
X5650341Y-15126168D02*
X5659865Y-15135692D01*
X5659865Y-15135692D02*
X5650341Y-15145216D01*
X5650341Y-15145216D02*
X5640817Y-15135692D01*
X5640817Y-15135692D02*
X5650341Y-15126168D01*
X5650341Y-15126168D02*
X5650341Y-15145216D01*
X5726531Y-14945216D02*
X5850341Y-14945216D01*
X5850341Y-14945216D02*
X5783674Y-15021406D01*
X5783674Y-15021406D02*
X5812246Y-15021406D01*
X5812246Y-15021406D02*
X5831293Y-15030930D01*
X5831293Y-15030930D02*
X5840817Y-15040454D01*
X5840817Y-15040454D02*
X5850341Y-15059502D01*
X5850341Y-15059502D02*
X5850341Y-15107121D01*
X5850341Y-15107121D02*
X5840817Y-15126168D01*
X5840817Y-15126168D02*
X5831293Y-15135692D01*
X5831293Y-15135692D02*
X5812246Y-15145216D01*
X5812246Y-15145216D02*
X5755103Y-15145216D01*
X5755103Y-15145216D02*
X5736055Y-15135692D01*
X5736055Y-15135692D02*
X5726531Y-15126168D01*
X5974150Y-14945216D02*
X5993198Y-14945216D01*
X5993198Y-14945216D02*
X6012246Y-14954740D01*
X6012246Y-14954740D02*
X6021769Y-14964264D01*
X6021769Y-14964264D02*
X6031293Y-14983311D01*
X6031293Y-14983311D02*
X6040817Y-15021406D01*
X6040817Y-15021406D02*
X6040817Y-15069025D01*
X6040817Y-15069025D02*
X6031293Y-15107121D01*
X6031293Y-15107121D02*
X6021769Y-15126168D01*
X6021769Y-15126168D02*
X6012246Y-15135692D01*
X6012246Y-15135692D02*
X5993198Y-15145216D01*
X5993198Y-15145216D02*
X5974150Y-15145216D01*
X5974150Y-15145216D02*
X5955103Y-15135692D01*
X5955103Y-15135692D02*
X5945579Y-15126168D01*
X5945579Y-15126168D02*
X5936055Y-15107121D01*
X5936055Y-15107121D02*
X5926531Y-15069025D01*
X5926531Y-15069025D02*
X5926531Y-15021406D01*
X5926531Y-15021406D02*
X5936055Y-14983311D01*
X5936055Y-14983311D02*
X5945579Y-14964264D01*
X5945579Y-14964264D02*
X5955103Y-14954740D01*
X5955103Y-14954740D02*
X5974150Y-14945216D01*
X6221769Y-14945216D02*
X6126531Y-14945216D01*
X6126531Y-14945216D02*
X6117008Y-15040454D01*
X6117008Y-15040454D02*
X6126531Y-15030930D01*
X6126531Y-15030930D02*
X6145579Y-15021406D01*
X6145579Y-15021406D02*
X6193198Y-15021406D01*
X6193198Y-15021406D02*
X6212246Y-15030930D01*
X6212246Y-15030930D02*
X6221769Y-15040454D01*
X6221769Y-15040454D02*
X6231293Y-15059502D01*
X6231293Y-15059502D02*
X6231293Y-15107121D01*
X6231293Y-15107121D02*
X6221769Y-15126168D01*
X6221769Y-15126168D02*
X6212246Y-15135692D01*
X6212246Y-15135692D02*
X6193198Y-15145216D01*
X6193198Y-15145216D02*
X6145579Y-15145216D01*
X6145579Y-15145216D02*
X6126531Y-15135692D01*
X6126531Y-15135692D02*
X6117008Y-15126168D01*
X6317008Y-15145216D02*
X6317008Y-15011883D01*
X6317008Y-15030930D02*
X6326531Y-15021406D01*
X6326531Y-15021406D02*
X6345579Y-15011883D01*
X6345579Y-15011883D02*
X6374150Y-15011883D01*
X6374150Y-15011883D02*
X6393198Y-15021406D01*
X6393198Y-15021406D02*
X6402722Y-15040454D01*
X6402722Y-15040454D02*
X6402722Y-15145216D01*
X6402722Y-15040454D02*
X6412246Y-15021406D01*
X6412246Y-15021406D02*
X6431293Y-15011883D01*
X6431293Y-15011883D02*
X6459865Y-15011883D01*
X6459865Y-15011883D02*
X6478912Y-15021406D01*
X6478912Y-15021406D02*
X6488436Y-15040454D01*
X6488436Y-15040454D02*
X6488436Y-15145216D01*
X6583674Y-15145216D02*
X6583674Y-15011883D01*
X6583674Y-15030930D02*
X6593198Y-15021406D01*
X6593198Y-15021406D02*
X6612246Y-15011883D01*
X6612246Y-15011883D02*
X6640817Y-15011883D01*
X6640817Y-15011883D02*
X6659865Y-15021406D01*
X6659865Y-15021406D02*
X6669389Y-15040454D01*
X6669389Y-15040454D02*
X6669389Y-15145216D01*
X6669389Y-15040454D02*
X6678912Y-15021406D01*
X6678912Y-15021406D02*
X6697960Y-15011883D01*
X6697960Y-15011883D02*
X6726531Y-15011883D01*
X6726531Y-15011883D02*
X6745579Y-15021406D01*
X6745579Y-15021406D02*
X6755103Y-15040454D01*
X6755103Y-15040454D02*
X6755103Y-15145216D01*
X7145579Y-14935692D02*
X6974151Y-15192835D01*
X7402722Y-14945216D02*
X7421770Y-14945216D01*
X7421770Y-14945216D02*
X7440817Y-14954740D01*
X7440817Y-14954740D02*
X7450341Y-14964264D01*
X7450341Y-14964264D02*
X7459865Y-14983311D01*
X7459865Y-14983311D02*
X7469389Y-15021406D01*
X7469389Y-15021406D02*
X7469389Y-15069025D01*
X7469389Y-15069025D02*
X7459865Y-15107121D01*
X7459865Y-15107121D02*
X7450341Y-15126168D01*
X7450341Y-15126168D02*
X7440817Y-15135692D01*
X7440817Y-15135692D02*
X7421770Y-15145216D01*
X7421770Y-15145216D02*
X7402722Y-15145216D01*
X7402722Y-15145216D02*
X7383674Y-15135692D01*
X7383674Y-15135692D02*
X7374151Y-15126168D01*
X7374151Y-15126168D02*
X7364627Y-15107121D01*
X7364627Y-15107121D02*
X7355103Y-15069025D01*
X7355103Y-15069025D02*
X7355103Y-15021406D01*
X7355103Y-15021406D02*
X7364627Y-14983311D01*
X7364627Y-14983311D02*
X7374151Y-14964264D01*
X7374151Y-14964264D02*
X7383674Y-14954740D01*
X7383674Y-14954740D02*
X7402722Y-14945216D01*
X7555103Y-15126168D02*
X7564627Y-15135692D01*
X7564627Y-15135692D02*
X7555103Y-15145216D01*
X7555103Y-15145216D02*
X7545579Y-15135692D01*
X7545579Y-15135692D02*
X7555103Y-15126168D01*
X7555103Y-15126168D02*
X7555103Y-15145216D01*
X7688436Y-14945216D02*
X7707484Y-14945216D01*
X7707484Y-14945216D02*
X7726532Y-14954740D01*
X7726532Y-14954740D02*
X7736055Y-14964264D01*
X7736055Y-14964264D02*
X7745579Y-14983311D01*
X7745579Y-14983311D02*
X7755103Y-15021406D01*
X7755103Y-15021406D02*
X7755103Y-15069025D01*
X7755103Y-15069025D02*
X7745579Y-15107121D01*
X7745579Y-15107121D02*
X7736055Y-15126168D01*
X7736055Y-15126168D02*
X7726532Y-15135692D01*
X7726532Y-15135692D02*
X7707484Y-15145216D01*
X7707484Y-15145216D02*
X7688436Y-15145216D01*
X7688436Y-15145216D02*
X7669389Y-15135692D01*
X7669389Y-15135692D02*
X7659865Y-15126168D01*
X7659865Y-15126168D02*
X7650341Y-15107121D01*
X7650341Y-15107121D02*
X7640817Y-15069025D01*
X7640817Y-15069025D02*
X7640817Y-15021406D01*
X7640817Y-15021406D02*
X7650341Y-14983311D01*
X7650341Y-14983311D02*
X7659865Y-14964264D01*
X7659865Y-14964264D02*
X7669389Y-14954740D01*
X7669389Y-14954740D02*
X7688436Y-14945216D01*
X7945579Y-15145216D02*
X7831293Y-15145216D01*
X7888436Y-15145216D02*
X7888436Y-14945216D01*
X7888436Y-14945216D02*
X7869389Y-14973787D01*
X7869389Y-14973787D02*
X7850341Y-14992835D01*
X7850341Y-14992835D02*
X7831293Y-15002359D01*
X8021770Y-14964264D02*
X8031293Y-14954740D01*
X8031293Y-14954740D02*
X8050341Y-14945216D01*
X8050341Y-14945216D02*
X8097960Y-14945216D01*
X8097960Y-14945216D02*
X8117008Y-14954740D01*
X8117008Y-14954740D02*
X8126532Y-14964264D01*
X8126532Y-14964264D02*
X8136055Y-14983311D01*
X8136055Y-14983311D02*
X8136055Y-15002359D01*
X8136055Y-15002359D02*
X8126532Y-15030930D01*
X8126532Y-15030930D02*
X8012246Y-15145216D01*
X8012246Y-15145216D02*
X8136055Y-15145216D01*
X8259865Y-14945216D02*
X8278913Y-14945216D01*
X8278913Y-14945216D02*
X8297960Y-14954740D01*
X8297960Y-14954740D02*
X8307484Y-14964264D01*
X8307484Y-14964264D02*
X8317008Y-14983311D01*
X8317008Y-14983311D02*
X8326532Y-15021406D01*
X8326532Y-15021406D02*
X8326532Y-15069025D01*
X8326532Y-15069025D02*
X8317008Y-15107121D01*
X8317008Y-15107121D02*
X8307484Y-15126168D01*
X8307484Y-15126168D02*
X8297960Y-15135692D01*
X8297960Y-15135692D02*
X8278913Y-15145216D01*
X8278913Y-15145216D02*
X8259865Y-15145216D01*
X8259865Y-15145216D02*
X8240817Y-15135692D01*
X8240817Y-15135692D02*
X8231293Y-15126168D01*
X8231293Y-15126168D02*
X8221770Y-15107121D01*
X8221770Y-15107121D02*
X8212246Y-15069025D01*
X8212246Y-15069025D02*
X8212246Y-15021406D01*
X8212246Y-15021406D02*
X8221770Y-14983311D01*
X8221770Y-14983311D02*
X8231293Y-14964264D01*
X8231293Y-14964264D02*
X8240817Y-14954740D01*
X8240817Y-14954740D02*
X8259865Y-14945216D01*
X8402722Y-14945216D02*
X8402722Y-14983311D01*
X8478913Y-14945216D02*
X8478913Y-14983311D01*
X8774151Y-15221406D02*
X8764627Y-15211883D01*
X8764627Y-15211883D02*
X8745579Y-15183311D01*
X8745579Y-15183311D02*
X8736056Y-15164264D01*
X8736056Y-15164264D02*
X8726532Y-15135692D01*
X8726532Y-15135692D02*
X8717008Y-15088073D01*
X8717008Y-15088073D02*
X8717008Y-15049978D01*
X8717008Y-15049978D02*
X8726532Y-15002359D01*
X8726532Y-15002359D02*
X8736056Y-14973787D01*
X8736056Y-14973787D02*
X8745579Y-14954740D01*
X8745579Y-14954740D02*
X8764627Y-14926168D01*
X8764627Y-14926168D02*
X8774151Y-14916644D01*
X8955103Y-15145216D02*
X8840817Y-15145216D01*
X8897960Y-15145216D02*
X8897960Y-14945216D01*
X8897960Y-14945216D02*
X8878913Y-14973787D01*
X8878913Y-14973787D02*
X8859865Y-14992835D01*
X8859865Y-14992835D02*
X8840817Y-15002359D01*
X9021770Y-14945216D02*
X9145579Y-14945216D01*
X9145579Y-14945216D02*
X9078913Y-15021406D01*
X9078913Y-15021406D02*
X9107484Y-15021406D01*
X9107484Y-15021406D02*
X9126532Y-15030930D01*
X9126532Y-15030930D02*
X9136056Y-15040454D01*
X9136056Y-15040454D02*
X9145579Y-15059502D01*
X9145579Y-15059502D02*
X9145579Y-15107121D01*
X9145579Y-15107121D02*
X9136056Y-15126168D01*
X9136056Y-15126168D02*
X9126532Y-15135692D01*
X9126532Y-15135692D02*
X9107484Y-15145216D01*
X9107484Y-15145216D02*
X9050341Y-15145216D01*
X9050341Y-15145216D02*
X9031294Y-15135692D01*
X9031294Y-15135692D02*
X9021770Y-15126168D01*
X9259865Y-15030930D02*
X9240817Y-15021406D01*
X9240817Y-15021406D02*
X9231294Y-15011883D01*
X9231294Y-15011883D02*
X9221770Y-14992835D01*
X9221770Y-14992835D02*
X9221770Y-14983311D01*
X9221770Y-14983311D02*
X9231294Y-14964264D01*
X9231294Y-14964264D02*
X9240817Y-14954740D01*
X9240817Y-14954740D02*
X9259865Y-14945216D01*
X9259865Y-14945216D02*
X9297960Y-14945216D01*
X9297960Y-14945216D02*
X9317008Y-14954740D01*
X9317008Y-14954740D02*
X9326532Y-14964264D01*
X9326532Y-14964264D02*
X9336056Y-14983311D01*
X9336056Y-14983311D02*
X9336056Y-14992835D01*
X9336056Y-14992835D02*
X9326532Y-15011883D01*
X9326532Y-15011883D02*
X9317008Y-15021406D01*
X9317008Y-15021406D02*
X9297960Y-15030930D01*
X9297960Y-15030930D02*
X9259865Y-15030930D01*
X9259865Y-15030930D02*
X9240817Y-15040454D01*
X9240817Y-15040454D02*
X9231294Y-15049978D01*
X9231294Y-15049978D02*
X9221770Y-15069025D01*
X9221770Y-15069025D02*
X9221770Y-15107121D01*
X9221770Y-15107121D02*
X9231294Y-15126168D01*
X9231294Y-15126168D02*
X9240817Y-15135692D01*
X9240817Y-15135692D02*
X9259865Y-15145216D01*
X9259865Y-15145216D02*
X9297960Y-15145216D01*
X9297960Y-15145216D02*
X9317008Y-15135692D01*
X9317008Y-15135692D02*
X9326532Y-15126168D01*
X9326532Y-15126168D02*
X9336056Y-15107121D01*
X9336056Y-15107121D02*
X9336056Y-15069025D01*
X9336056Y-15069025D02*
X9326532Y-15049978D01*
X9326532Y-15049978D02*
X9317008Y-15040454D01*
X9317008Y-15040454D02*
X9297960Y-15030930D01*
X9574151Y-15145216D02*
X9574151Y-14945216D01*
X9659865Y-15145216D02*
X9659865Y-15040454D01*
X9659865Y-15040454D02*
X9650341Y-15021406D01*
X9650341Y-15021406D02*
X9631294Y-15011883D01*
X9631294Y-15011883D02*
X9602722Y-15011883D01*
X9602722Y-15011883D02*
X9583675Y-15021406D01*
X9583675Y-15021406D02*
X9574151Y-15030930D01*
X9783675Y-15145216D02*
X9764627Y-15135692D01*
X9764627Y-15135692D02*
X9755103Y-15126168D01*
X9755103Y-15126168D02*
X9745579Y-15107121D01*
X9745579Y-15107121D02*
X9745579Y-15049978D01*
X9745579Y-15049978D02*
X9755103Y-15030930D01*
X9755103Y-15030930D02*
X9764627Y-15021406D01*
X9764627Y-15021406D02*
X9783675Y-15011883D01*
X9783675Y-15011883D02*
X9812246Y-15011883D01*
X9812246Y-15011883D02*
X9831294Y-15021406D01*
X9831294Y-15021406D02*
X9840818Y-15030930D01*
X9840818Y-15030930D02*
X9850341Y-15049978D01*
X9850341Y-15049978D02*
X9850341Y-15107121D01*
X9850341Y-15107121D02*
X9840818Y-15126168D01*
X9840818Y-15126168D02*
X9831294Y-15135692D01*
X9831294Y-15135692D02*
X9812246Y-15145216D01*
X9812246Y-15145216D02*
X9783675Y-15145216D01*
X9964627Y-15145216D02*
X9945579Y-15135692D01*
X9945579Y-15135692D02*
X9936056Y-15116644D01*
X9936056Y-15116644D02*
X9936056Y-14945216D01*
X10117008Y-15135692D02*
X10097960Y-15145216D01*
X10097960Y-15145216D02*
X10059865Y-15145216D01*
X10059865Y-15145216D02*
X10040818Y-15135692D01*
X10040818Y-15135692D02*
X10031294Y-15116644D01*
X10031294Y-15116644D02*
X10031294Y-15040454D01*
X10031294Y-15040454D02*
X10040818Y-15021406D01*
X10040818Y-15021406D02*
X10059865Y-15011883D01*
X10059865Y-15011883D02*
X10097960Y-15011883D01*
X10097960Y-15011883D02*
X10117008Y-15021406D01*
X10117008Y-15021406D02*
X10126532Y-15040454D01*
X10126532Y-15040454D02*
X10126532Y-15059502D01*
X10126532Y-15059502D02*
X10031294Y-15078549D01*
X10202722Y-15135692D02*
X10221770Y-15145216D01*
X10221770Y-15145216D02*
X10259865Y-15145216D01*
X10259865Y-15145216D02*
X10278913Y-15135692D01*
X10278913Y-15135692D02*
X10288437Y-15116644D01*
X10288437Y-15116644D02*
X10288437Y-15107121D01*
X10288437Y-15107121D02*
X10278913Y-15088073D01*
X10278913Y-15088073D02*
X10259865Y-15078549D01*
X10259865Y-15078549D02*
X10231294Y-15078549D01*
X10231294Y-15078549D02*
X10212246Y-15069025D01*
X10212246Y-15069025D02*
X10202722Y-15049978D01*
X10202722Y-15049978D02*
X10202722Y-15040454D01*
X10202722Y-15040454D02*
X10212246Y-15021406D01*
X10212246Y-15021406D02*
X10231294Y-15011883D01*
X10231294Y-15011883D02*
X10259865Y-15011883D01*
X10259865Y-15011883D02*
X10278913Y-15021406D01*
X10355103Y-15221406D02*
X10364627Y-15211883D01*
X10364627Y-15211883D02*
X10383675Y-15183311D01*
X10383675Y-15183311D02*
X10393199Y-15164264D01*
X10393199Y-15164264D02*
X10402722Y-15135692D01*
X10402722Y-15135692D02*
X10412246Y-15088073D01*
X10412246Y-15088073D02*
X10412246Y-15049978D01*
X10412246Y-15049978D02*
X10402722Y-15002359D01*
X10402722Y-15002359D02*
X10393199Y-14973787D01*
X10393199Y-14973787D02*
X10383675Y-14954740D01*
X10383675Y-14954740D02*
X10364627Y-14926168D01*
X10364627Y-14926168D02*
X10355103Y-14916644D01*
D10*
X5199088Y-15317732D02*
G75*
G03*
X5199088Y-15317732I-20000J0D01*
G01*
D11*
X5497960Y-15209216D02*
X5517008Y-15209216D01*
X5517008Y-15209216D02*
X5536055Y-15218740D01*
X5536055Y-15218740D02*
X5545579Y-15228264D01*
X5545579Y-15228264D02*
X5555103Y-15247311D01*
X5555103Y-15247311D02*
X5564627Y-15285406D01*
X5564627Y-15285406D02*
X5564627Y-15333025D01*
X5564627Y-15333025D02*
X5555103Y-15371121D01*
X5555103Y-15371121D02*
X5545579Y-15390168D01*
X5545579Y-15390168D02*
X5536055Y-15399692D01*
X5536055Y-15399692D02*
X5517008Y-15409216D01*
X5517008Y-15409216D02*
X5497960Y-15409216D01*
X5497960Y-15409216D02*
X5478912Y-15399692D01*
X5478912Y-15399692D02*
X5469389Y-15390168D01*
X5469389Y-15390168D02*
X5459865Y-15371121D01*
X5459865Y-15371121D02*
X5450341Y-15333025D01*
X5450341Y-15333025D02*
X5450341Y-15285406D01*
X5450341Y-15285406D02*
X5459865Y-15247311D01*
X5459865Y-15247311D02*
X5469389Y-15228264D01*
X5469389Y-15228264D02*
X5478912Y-15218740D01*
X5478912Y-15218740D02*
X5497960Y-15209216D01*
X5650341Y-15390168D02*
X5659865Y-15399692D01*
X5659865Y-15399692D02*
X5650341Y-15409216D01*
X5650341Y-15409216D02*
X5640817Y-15399692D01*
X5640817Y-15399692D02*
X5650341Y-15390168D01*
X5650341Y-15390168D02*
X5650341Y-15409216D01*
X5831293Y-15275883D02*
X5831293Y-15409216D01*
X5783674Y-15199692D02*
X5736055Y-15342549D01*
X5736055Y-15342549D02*
X5859865Y-15342549D01*
X5974150Y-15209216D02*
X5993198Y-15209216D01*
X5993198Y-15209216D02*
X6012246Y-15218740D01*
X6012246Y-15218740D02*
X6021769Y-15228264D01*
X6021769Y-15228264D02*
X6031293Y-15247311D01*
X6031293Y-15247311D02*
X6040817Y-15285406D01*
X6040817Y-15285406D02*
X6040817Y-15333025D01*
X6040817Y-15333025D02*
X6031293Y-15371121D01*
X6031293Y-15371121D02*
X6021769Y-15390168D01*
X6021769Y-15390168D02*
X6012246Y-15399692D01*
X6012246Y-15399692D02*
X5993198Y-15409216D01*
X5993198Y-15409216D02*
X5974150Y-15409216D01*
X5974150Y-15409216D02*
X5955103Y-15399692D01*
X5955103Y-15399692D02*
X5945579Y-15390168D01*
X5945579Y-15390168D02*
X5936055Y-15371121D01*
X5936055Y-15371121D02*
X5926531Y-15333025D01*
X5926531Y-15333025D02*
X5926531Y-15285406D01*
X5926531Y-15285406D02*
X5936055Y-15247311D01*
X5936055Y-15247311D02*
X5945579Y-15228264D01*
X5945579Y-15228264D02*
X5955103Y-15218740D01*
X5955103Y-15218740D02*
X5974150Y-15209216D01*
X6164627Y-15209216D02*
X6183674Y-15209216D01*
X6183674Y-15209216D02*
X6202722Y-15218740D01*
X6202722Y-15218740D02*
X6212246Y-15228264D01*
X6212246Y-15228264D02*
X6221769Y-15247311D01*
X6221769Y-15247311D02*
X6231293Y-15285406D01*
X6231293Y-15285406D02*
X6231293Y-15333025D01*
X6231293Y-15333025D02*
X6221769Y-15371121D01*
X6221769Y-15371121D02*
X6212246Y-15390168D01*
X6212246Y-15390168D02*
X6202722Y-15399692D01*
X6202722Y-15399692D02*
X6183674Y-15409216D01*
X6183674Y-15409216D02*
X6164627Y-15409216D01*
X6164627Y-15409216D02*
X6145579Y-15399692D01*
X6145579Y-15399692D02*
X6136055Y-15390168D01*
X6136055Y-15390168D02*
X6126531Y-15371121D01*
X6126531Y-15371121D02*
X6117008Y-15333025D01*
X6117008Y-15333025D02*
X6117008Y-15285406D01*
X6117008Y-15285406D02*
X6126531Y-15247311D01*
X6126531Y-15247311D02*
X6136055Y-15228264D01*
X6136055Y-15228264D02*
X6145579Y-15218740D01*
X6145579Y-15218740D02*
X6164627Y-15209216D01*
X6317008Y-15409216D02*
X6317008Y-15275883D01*
X6317008Y-15294930D02*
X6326531Y-15285406D01*
X6326531Y-15285406D02*
X6345579Y-15275883D01*
X6345579Y-15275883D02*
X6374150Y-15275883D01*
X6374150Y-15275883D02*
X6393198Y-15285406D01*
X6393198Y-15285406D02*
X6402722Y-15304454D01*
X6402722Y-15304454D02*
X6402722Y-15409216D01*
X6402722Y-15304454D02*
X6412246Y-15285406D01*
X6412246Y-15285406D02*
X6431293Y-15275883D01*
X6431293Y-15275883D02*
X6459865Y-15275883D01*
X6459865Y-15275883D02*
X6478912Y-15285406D01*
X6478912Y-15285406D02*
X6488436Y-15304454D01*
X6488436Y-15304454D02*
X6488436Y-15409216D01*
X6583674Y-15409216D02*
X6583674Y-15275883D01*
X6583674Y-15294930D02*
X6593198Y-15285406D01*
X6593198Y-15285406D02*
X6612246Y-15275883D01*
X6612246Y-15275883D02*
X6640817Y-15275883D01*
X6640817Y-15275883D02*
X6659865Y-15285406D01*
X6659865Y-15285406D02*
X6669389Y-15304454D01*
X6669389Y-15304454D02*
X6669389Y-15409216D01*
X6669389Y-15304454D02*
X6678912Y-15285406D01*
X6678912Y-15285406D02*
X6697960Y-15275883D01*
X6697960Y-15275883D02*
X6726531Y-15275883D01*
X6726531Y-15275883D02*
X6745579Y-15285406D01*
X6745579Y-15285406D02*
X6755103Y-15304454D01*
X6755103Y-15304454D02*
X6755103Y-15409216D01*
X7145579Y-15199692D02*
X6974151Y-15456835D01*
X7402722Y-15209216D02*
X7421770Y-15209216D01*
X7421770Y-15209216D02*
X7440817Y-15218740D01*
X7440817Y-15218740D02*
X7450341Y-15228264D01*
X7450341Y-15228264D02*
X7459865Y-15247311D01*
X7459865Y-15247311D02*
X7469389Y-15285406D01*
X7469389Y-15285406D02*
X7469389Y-15333025D01*
X7469389Y-15333025D02*
X7459865Y-15371121D01*
X7459865Y-15371121D02*
X7450341Y-15390168D01*
X7450341Y-15390168D02*
X7440817Y-15399692D01*
X7440817Y-15399692D02*
X7421770Y-15409216D01*
X7421770Y-15409216D02*
X7402722Y-15409216D01*
X7402722Y-15409216D02*
X7383674Y-15399692D01*
X7383674Y-15399692D02*
X7374151Y-15390168D01*
X7374151Y-15390168D02*
X7364627Y-15371121D01*
X7364627Y-15371121D02*
X7355103Y-15333025D01*
X7355103Y-15333025D02*
X7355103Y-15285406D01*
X7355103Y-15285406D02*
X7364627Y-15247311D01*
X7364627Y-15247311D02*
X7374151Y-15228264D01*
X7374151Y-15228264D02*
X7383674Y-15218740D01*
X7383674Y-15218740D02*
X7402722Y-15209216D01*
X7555103Y-15390168D02*
X7564627Y-15399692D01*
X7564627Y-15399692D02*
X7555103Y-15409216D01*
X7555103Y-15409216D02*
X7545579Y-15399692D01*
X7545579Y-15399692D02*
X7555103Y-15390168D01*
X7555103Y-15390168D02*
X7555103Y-15409216D01*
X7688436Y-15209216D02*
X7707484Y-15209216D01*
X7707484Y-15209216D02*
X7726532Y-15218740D01*
X7726532Y-15218740D02*
X7736055Y-15228264D01*
X7736055Y-15228264D02*
X7745579Y-15247311D01*
X7745579Y-15247311D02*
X7755103Y-15285406D01*
X7755103Y-15285406D02*
X7755103Y-15333025D01*
X7755103Y-15333025D02*
X7745579Y-15371121D01*
X7745579Y-15371121D02*
X7736055Y-15390168D01*
X7736055Y-15390168D02*
X7726532Y-15399692D01*
X7726532Y-15399692D02*
X7707484Y-15409216D01*
X7707484Y-15409216D02*
X7688436Y-15409216D01*
X7688436Y-15409216D02*
X7669389Y-15399692D01*
X7669389Y-15399692D02*
X7659865Y-15390168D01*
X7659865Y-15390168D02*
X7650341Y-15371121D01*
X7650341Y-15371121D02*
X7640817Y-15333025D01*
X7640817Y-15333025D02*
X7640817Y-15285406D01*
X7640817Y-15285406D02*
X7650341Y-15247311D01*
X7650341Y-15247311D02*
X7659865Y-15228264D01*
X7659865Y-15228264D02*
X7669389Y-15218740D01*
X7669389Y-15218740D02*
X7688436Y-15209216D01*
X7945579Y-15409216D02*
X7831293Y-15409216D01*
X7888436Y-15409216D02*
X7888436Y-15209216D01*
X7888436Y-15209216D02*
X7869389Y-15237787D01*
X7869389Y-15237787D02*
X7850341Y-15256835D01*
X7850341Y-15256835D02*
X7831293Y-15266359D01*
X8126532Y-15209216D02*
X8031293Y-15209216D01*
X8031293Y-15209216D02*
X8021770Y-15304454D01*
X8021770Y-15304454D02*
X8031293Y-15294930D01*
X8031293Y-15294930D02*
X8050341Y-15285406D01*
X8050341Y-15285406D02*
X8097960Y-15285406D01*
X8097960Y-15285406D02*
X8117008Y-15294930D01*
X8117008Y-15294930D02*
X8126532Y-15304454D01*
X8126532Y-15304454D02*
X8136055Y-15323502D01*
X8136055Y-15323502D02*
X8136055Y-15371121D01*
X8136055Y-15371121D02*
X8126532Y-15390168D01*
X8126532Y-15390168D02*
X8117008Y-15399692D01*
X8117008Y-15399692D02*
X8097960Y-15409216D01*
X8097960Y-15409216D02*
X8050341Y-15409216D01*
X8050341Y-15409216D02*
X8031293Y-15399692D01*
X8031293Y-15399692D02*
X8021770Y-15390168D01*
X8202722Y-15209216D02*
X8336055Y-15209216D01*
X8336055Y-15209216D02*
X8250341Y-15409216D01*
X8402722Y-15209216D02*
X8402722Y-15247311D01*
X8478913Y-15209216D02*
X8478913Y-15247311D01*
X8774151Y-15485406D02*
X8764627Y-15475883D01*
X8764627Y-15475883D02*
X8745579Y-15447311D01*
X8745579Y-15447311D02*
X8736056Y-15428264D01*
X8736056Y-15428264D02*
X8726532Y-15399692D01*
X8726532Y-15399692D02*
X8717008Y-15352073D01*
X8717008Y-15352073D02*
X8717008Y-15313978D01*
X8717008Y-15313978D02*
X8726532Y-15266359D01*
X8726532Y-15266359D02*
X8736056Y-15237787D01*
X8736056Y-15237787D02*
X8745579Y-15218740D01*
X8745579Y-15218740D02*
X8764627Y-15190168D01*
X8764627Y-15190168D02*
X8774151Y-15180644D01*
X8840817Y-15228264D02*
X8850341Y-15218740D01*
X8850341Y-15218740D02*
X8869389Y-15209216D01*
X8869389Y-15209216D02*
X8917008Y-15209216D01*
X8917008Y-15209216D02*
X8936056Y-15218740D01*
X8936056Y-15218740D02*
X8945579Y-15228264D01*
X8945579Y-15228264D02*
X8955103Y-15247311D01*
X8955103Y-15247311D02*
X8955103Y-15266359D01*
X8955103Y-15266359D02*
X8945579Y-15294930D01*
X8945579Y-15294930D02*
X8831294Y-15409216D01*
X8831294Y-15409216D02*
X8955103Y-15409216D01*
X9193198Y-15409216D02*
X9193198Y-15209216D01*
X9278913Y-15409216D02*
X9278913Y-15304454D01*
X9278913Y-15304454D02*
X9269389Y-15285406D01*
X9269389Y-15285406D02*
X9250341Y-15275883D01*
X9250341Y-15275883D02*
X9221770Y-15275883D01*
X9221770Y-15275883D02*
X9202722Y-15285406D01*
X9202722Y-15285406D02*
X9193198Y-15294930D01*
X9402722Y-15409216D02*
X9383675Y-15399692D01*
X9383675Y-15399692D02*
X9374151Y-15390168D01*
X9374151Y-15390168D02*
X9364627Y-15371121D01*
X9364627Y-15371121D02*
X9364627Y-15313978D01*
X9364627Y-15313978D02*
X9374151Y-15294930D01*
X9374151Y-15294930D02*
X9383675Y-15285406D01*
X9383675Y-15285406D02*
X9402722Y-15275883D01*
X9402722Y-15275883D02*
X9431294Y-15275883D01*
X9431294Y-15275883D02*
X9450341Y-15285406D01*
X9450341Y-15285406D02*
X9459865Y-15294930D01*
X9459865Y-15294930D02*
X9469389Y-15313978D01*
X9469389Y-15313978D02*
X9469389Y-15371121D01*
X9469389Y-15371121D02*
X9459865Y-15390168D01*
X9459865Y-15390168D02*
X9450341Y-15399692D01*
X9450341Y-15399692D02*
X9431294Y-15409216D01*
X9431294Y-15409216D02*
X9402722Y-15409216D01*
X9583675Y-15409216D02*
X9564627Y-15399692D01*
X9564627Y-15399692D02*
X9555103Y-15380644D01*
X9555103Y-15380644D02*
X9555103Y-15209216D01*
X9736056Y-15399692D02*
X9717008Y-15409216D01*
X9717008Y-15409216D02*
X9678913Y-15409216D01*
X9678913Y-15409216D02*
X9659865Y-15399692D01*
X9659865Y-15399692D02*
X9650341Y-15380644D01*
X9650341Y-15380644D02*
X9650341Y-15304454D01*
X9650341Y-15304454D02*
X9659865Y-15285406D01*
X9659865Y-15285406D02*
X9678913Y-15275883D01*
X9678913Y-15275883D02*
X9717008Y-15275883D01*
X9717008Y-15275883D02*
X9736056Y-15285406D01*
X9736056Y-15285406D02*
X9745579Y-15304454D01*
X9745579Y-15304454D02*
X9745579Y-15323502D01*
X9745579Y-15323502D02*
X9650341Y-15342549D01*
X9821770Y-15399692D02*
X9840818Y-15409216D01*
X9840818Y-15409216D02*
X9878913Y-15409216D01*
X9878913Y-15409216D02*
X9897960Y-15399692D01*
X9897960Y-15399692D02*
X9907484Y-15380644D01*
X9907484Y-15380644D02*
X9907484Y-15371121D01*
X9907484Y-15371121D02*
X9897960Y-15352073D01*
X9897960Y-15352073D02*
X9878913Y-15342549D01*
X9878913Y-15342549D02*
X9850341Y-15342549D01*
X9850341Y-15342549D02*
X9831294Y-15333025D01*
X9831294Y-15333025D02*
X9821770Y-15313978D01*
X9821770Y-15313978D02*
X9821770Y-15304454D01*
X9821770Y-15304454D02*
X9831294Y-15285406D01*
X9831294Y-15285406D02*
X9850341Y-15275883D01*
X9850341Y-15275883D02*
X9878913Y-15275883D01*
X9878913Y-15275883D02*
X9897960Y-15285406D01*
X9974151Y-15485406D02*
X9983675Y-15475883D01*
X9983675Y-15475883D02*
X10002722Y-15447311D01*
X10002722Y-15447311D02*
X10012246Y-15428264D01*
X10012246Y-15428264D02*
X10021770Y-15399692D01*
X10021770Y-15399692D02*
X10031294Y-15352073D01*
X10031294Y-15352073D02*
X10031294Y-15313978D01*
X10031294Y-15313978D02*
X10021770Y-15266359D01*
X10021770Y-15266359D02*
X10012246Y-15237787D01*
X10012246Y-15237787D02*
X10002722Y-15218740D01*
X10002722Y-15218740D02*
X9983675Y-15190168D01*
X9983675Y-15190168D02*
X9974151Y-15180644D01*
D10*
X5168608Y-15551252D02*
X5168608Y-15612212D01*
X5138128Y-15581732D02*
X5199088Y-15581732D01*
D11*
X5497960Y-15473216D02*
X5517008Y-15473216D01*
X5517008Y-15473216D02*
X5536055Y-15482740D01*
X5536055Y-15482740D02*
X5545579Y-15492264D01*
X5545579Y-15492264D02*
X5555103Y-15511311D01*
X5555103Y-15511311D02*
X5564627Y-15549406D01*
X5564627Y-15549406D02*
X5564627Y-15597025D01*
X5564627Y-15597025D02*
X5555103Y-15635121D01*
X5555103Y-15635121D02*
X5545579Y-15654168D01*
X5545579Y-15654168D02*
X5536055Y-15663692D01*
X5536055Y-15663692D02*
X5517008Y-15673216D01*
X5517008Y-15673216D02*
X5497960Y-15673216D01*
X5497960Y-15673216D02*
X5478912Y-15663692D01*
X5478912Y-15663692D02*
X5469389Y-15654168D01*
X5469389Y-15654168D02*
X5459865Y-15635121D01*
X5459865Y-15635121D02*
X5450341Y-15597025D01*
X5450341Y-15597025D02*
X5450341Y-15549406D01*
X5450341Y-15549406D02*
X5459865Y-15511311D01*
X5459865Y-15511311D02*
X5469389Y-15492264D01*
X5469389Y-15492264D02*
X5478912Y-15482740D01*
X5478912Y-15482740D02*
X5497960Y-15473216D01*
X5650341Y-15654168D02*
X5659865Y-15663692D01*
X5659865Y-15663692D02*
X5650341Y-15673216D01*
X5650341Y-15673216D02*
X5640817Y-15663692D01*
X5640817Y-15663692D02*
X5650341Y-15654168D01*
X5650341Y-15654168D02*
X5650341Y-15673216D01*
X5831293Y-15473216D02*
X5793198Y-15473216D01*
X5793198Y-15473216D02*
X5774150Y-15482740D01*
X5774150Y-15482740D02*
X5764627Y-15492264D01*
X5764627Y-15492264D02*
X5745579Y-15520835D01*
X5745579Y-15520835D02*
X5736055Y-15558930D01*
X5736055Y-15558930D02*
X5736055Y-15635121D01*
X5736055Y-15635121D02*
X5745579Y-15654168D01*
X5745579Y-15654168D02*
X5755103Y-15663692D01*
X5755103Y-15663692D02*
X5774150Y-15673216D01*
X5774150Y-15673216D02*
X5812246Y-15673216D01*
X5812246Y-15673216D02*
X5831293Y-15663692D01*
X5831293Y-15663692D02*
X5840817Y-15654168D01*
X5840817Y-15654168D02*
X5850341Y-15635121D01*
X5850341Y-15635121D02*
X5850341Y-15587502D01*
X5850341Y-15587502D02*
X5840817Y-15568454D01*
X5840817Y-15568454D02*
X5831293Y-15558930D01*
X5831293Y-15558930D02*
X5812246Y-15549406D01*
X5812246Y-15549406D02*
X5774150Y-15549406D01*
X5774150Y-15549406D02*
X5755103Y-15558930D01*
X5755103Y-15558930D02*
X5745579Y-15568454D01*
X5745579Y-15568454D02*
X5736055Y-15587502D01*
X6040817Y-15673216D02*
X5926531Y-15673216D01*
X5983674Y-15673216D02*
X5983674Y-15473216D01*
X5983674Y-15473216D02*
X5964627Y-15501787D01*
X5964627Y-15501787D02*
X5945579Y-15520835D01*
X5945579Y-15520835D02*
X5926531Y-15530359D01*
X6164627Y-15473216D02*
X6183674Y-15473216D01*
X6183674Y-15473216D02*
X6202722Y-15482740D01*
X6202722Y-15482740D02*
X6212246Y-15492264D01*
X6212246Y-15492264D02*
X6221769Y-15511311D01*
X6221769Y-15511311D02*
X6231293Y-15549406D01*
X6231293Y-15549406D02*
X6231293Y-15597025D01*
X6231293Y-15597025D02*
X6221769Y-15635121D01*
X6221769Y-15635121D02*
X6212246Y-15654168D01*
X6212246Y-15654168D02*
X6202722Y-15663692D01*
X6202722Y-15663692D02*
X6183674Y-15673216D01*
X6183674Y-15673216D02*
X6164627Y-15673216D01*
X6164627Y-15673216D02*
X6145579Y-15663692D01*
X6145579Y-15663692D02*
X6136055Y-15654168D01*
X6136055Y-15654168D02*
X6126531Y-15635121D01*
X6126531Y-15635121D02*
X6117008Y-15597025D01*
X6117008Y-15597025D02*
X6117008Y-15549406D01*
X6117008Y-15549406D02*
X6126531Y-15511311D01*
X6126531Y-15511311D02*
X6136055Y-15492264D01*
X6136055Y-15492264D02*
X6145579Y-15482740D01*
X6145579Y-15482740D02*
X6164627Y-15473216D01*
X6317008Y-15673216D02*
X6317008Y-15539883D01*
X6317008Y-15558930D02*
X6326531Y-15549406D01*
X6326531Y-15549406D02*
X6345579Y-15539883D01*
X6345579Y-15539883D02*
X6374150Y-15539883D01*
X6374150Y-15539883D02*
X6393198Y-15549406D01*
X6393198Y-15549406D02*
X6402722Y-15568454D01*
X6402722Y-15568454D02*
X6402722Y-15673216D01*
X6402722Y-15568454D02*
X6412246Y-15549406D01*
X6412246Y-15549406D02*
X6431293Y-15539883D01*
X6431293Y-15539883D02*
X6459865Y-15539883D01*
X6459865Y-15539883D02*
X6478912Y-15549406D01*
X6478912Y-15549406D02*
X6488436Y-15568454D01*
X6488436Y-15568454D02*
X6488436Y-15673216D01*
X6583674Y-15673216D02*
X6583674Y-15539883D01*
X6583674Y-15558930D02*
X6593198Y-15549406D01*
X6593198Y-15549406D02*
X6612246Y-15539883D01*
X6612246Y-15539883D02*
X6640817Y-15539883D01*
X6640817Y-15539883D02*
X6659865Y-15549406D01*
X6659865Y-15549406D02*
X6669389Y-15568454D01*
X6669389Y-15568454D02*
X6669389Y-15673216D01*
X6669389Y-15568454D02*
X6678912Y-15549406D01*
X6678912Y-15549406D02*
X6697960Y-15539883D01*
X6697960Y-15539883D02*
X6726531Y-15539883D01*
X6726531Y-15539883D02*
X6745579Y-15549406D01*
X6745579Y-15549406D02*
X6755103Y-15568454D01*
X6755103Y-15568454D02*
X6755103Y-15673216D01*
X7145579Y-15463692D02*
X6974151Y-15720835D01*
X7402722Y-15473216D02*
X7421770Y-15473216D01*
X7421770Y-15473216D02*
X7440817Y-15482740D01*
X7440817Y-15482740D02*
X7450341Y-15492264D01*
X7450341Y-15492264D02*
X7459865Y-15511311D01*
X7459865Y-15511311D02*
X7469389Y-15549406D01*
X7469389Y-15549406D02*
X7469389Y-15597025D01*
X7469389Y-15597025D02*
X7459865Y-15635121D01*
X7459865Y-15635121D02*
X7450341Y-15654168D01*
X7450341Y-15654168D02*
X7440817Y-15663692D01*
X7440817Y-15663692D02*
X7421770Y-15673216D01*
X7421770Y-15673216D02*
X7402722Y-15673216D01*
X7402722Y-15673216D02*
X7383674Y-15663692D01*
X7383674Y-15663692D02*
X7374151Y-15654168D01*
X7374151Y-15654168D02*
X7364627Y-15635121D01*
X7364627Y-15635121D02*
X7355103Y-15597025D01*
X7355103Y-15597025D02*
X7355103Y-15549406D01*
X7355103Y-15549406D02*
X7364627Y-15511311D01*
X7364627Y-15511311D02*
X7374151Y-15492264D01*
X7374151Y-15492264D02*
X7383674Y-15482740D01*
X7383674Y-15482740D02*
X7402722Y-15473216D01*
X7555103Y-15654168D02*
X7564627Y-15663692D01*
X7564627Y-15663692D02*
X7555103Y-15673216D01*
X7555103Y-15673216D02*
X7545579Y-15663692D01*
X7545579Y-15663692D02*
X7555103Y-15654168D01*
X7555103Y-15654168D02*
X7555103Y-15673216D01*
X7688436Y-15473216D02*
X7707484Y-15473216D01*
X7707484Y-15473216D02*
X7726532Y-15482740D01*
X7726532Y-15482740D02*
X7736055Y-15492264D01*
X7736055Y-15492264D02*
X7745579Y-15511311D01*
X7745579Y-15511311D02*
X7755103Y-15549406D01*
X7755103Y-15549406D02*
X7755103Y-15597025D01*
X7755103Y-15597025D02*
X7745579Y-15635121D01*
X7745579Y-15635121D02*
X7736055Y-15654168D01*
X7736055Y-15654168D02*
X7726532Y-15663692D01*
X7726532Y-15663692D02*
X7707484Y-15673216D01*
X7707484Y-15673216D02*
X7688436Y-15673216D01*
X7688436Y-15673216D02*
X7669389Y-15663692D01*
X7669389Y-15663692D02*
X7659865Y-15654168D01*
X7659865Y-15654168D02*
X7650341Y-15635121D01*
X7650341Y-15635121D02*
X7640817Y-15597025D01*
X7640817Y-15597025D02*
X7640817Y-15549406D01*
X7640817Y-15549406D02*
X7650341Y-15511311D01*
X7650341Y-15511311D02*
X7659865Y-15492264D01*
X7659865Y-15492264D02*
X7669389Y-15482740D01*
X7669389Y-15482740D02*
X7688436Y-15473216D01*
X7831293Y-15492264D02*
X7840817Y-15482740D01*
X7840817Y-15482740D02*
X7859865Y-15473216D01*
X7859865Y-15473216D02*
X7907484Y-15473216D01*
X7907484Y-15473216D02*
X7926532Y-15482740D01*
X7926532Y-15482740D02*
X7936055Y-15492264D01*
X7936055Y-15492264D02*
X7945579Y-15511311D01*
X7945579Y-15511311D02*
X7945579Y-15530359D01*
X7945579Y-15530359D02*
X7936055Y-15558930D01*
X7936055Y-15558930D02*
X7821770Y-15673216D01*
X7821770Y-15673216D02*
X7945579Y-15673216D01*
X8117008Y-15539883D02*
X8117008Y-15673216D01*
X8069389Y-15463692D02*
X8021770Y-15606549D01*
X8021770Y-15606549D02*
X8145579Y-15606549D01*
X8259865Y-15473216D02*
X8278913Y-15473216D01*
X8278913Y-15473216D02*
X8297960Y-15482740D01*
X8297960Y-15482740D02*
X8307484Y-15492264D01*
X8307484Y-15492264D02*
X8317008Y-15511311D01*
X8317008Y-15511311D02*
X8326532Y-15549406D01*
X8326532Y-15549406D02*
X8326532Y-15597025D01*
X8326532Y-15597025D02*
X8317008Y-15635121D01*
X8317008Y-15635121D02*
X8307484Y-15654168D01*
X8307484Y-15654168D02*
X8297960Y-15663692D01*
X8297960Y-15663692D02*
X8278913Y-15673216D01*
X8278913Y-15673216D02*
X8259865Y-15673216D01*
X8259865Y-15673216D02*
X8240817Y-15663692D01*
X8240817Y-15663692D02*
X8231293Y-15654168D01*
X8231293Y-15654168D02*
X8221770Y-15635121D01*
X8221770Y-15635121D02*
X8212246Y-15597025D01*
X8212246Y-15597025D02*
X8212246Y-15549406D01*
X8212246Y-15549406D02*
X8221770Y-15511311D01*
X8221770Y-15511311D02*
X8231293Y-15492264D01*
X8231293Y-15492264D02*
X8240817Y-15482740D01*
X8240817Y-15482740D02*
X8259865Y-15473216D01*
X8402722Y-15473216D02*
X8402722Y-15511311D01*
X8478913Y-15473216D02*
X8478913Y-15511311D01*
X8774151Y-15749406D02*
X8764627Y-15739883D01*
X8764627Y-15739883D02*
X8745579Y-15711311D01*
X8745579Y-15711311D02*
X8736056Y-15692264D01*
X8736056Y-15692264D02*
X8726532Y-15663692D01*
X8726532Y-15663692D02*
X8717008Y-15616073D01*
X8717008Y-15616073D02*
X8717008Y-15577978D01*
X8717008Y-15577978D02*
X8726532Y-15530359D01*
X8726532Y-15530359D02*
X8736056Y-15501787D01*
X8736056Y-15501787D02*
X8745579Y-15482740D01*
X8745579Y-15482740D02*
X8764627Y-15454168D01*
X8764627Y-15454168D02*
X8774151Y-15444644D01*
X8840817Y-15492264D02*
X8850341Y-15482740D01*
X8850341Y-15482740D02*
X8869389Y-15473216D01*
X8869389Y-15473216D02*
X8917008Y-15473216D01*
X8917008Y-15473216D02*
X8936056Y-15482740D01*
X8936056Y-15482740D02*
X8945579Y-15492264D01*
X8945579Y-15492264D02*
X8955103Y-15511311D01*
X8955103Y-15511311D02*
X8955103Y-15530359D01*
X8955103Y-15530359D02*
X8945579Y-15558930D01*
X8945579Y-15558930D02*
X8831294Y-15673216D01*
X8831294Y-15673216D02*
X8955103Y-15673216D01*
X9126532Y-15473216D02*
X9088436Y-15473216D01*
X9088436Y-15473216D02*
X9069389Y-15482740D01*
X9069389Y-15482740D02*
X9059865Y-15492264D01*
X9059865Y-15492264D02*
X9040817Y-15520835D01*
X9040817Y-15520835D02*
X9031294Y-15558930D01*
X9031294Y-15558930D02*
X9031294Y-15635121D01*
X9031294Y-15635121D02*
X9040817Y-15654168D01*
X9040817Y-15654168D02*
X9050341Y-15663692D01*
X9050341Y-15663692D02*
X9069389Y-15673216D01*
X9069389Y-15673216D02*
X9107484Y-15673216D01*
X9107484Y-15673216D02*
X9126532Y-15663692D01*
X9126532Y-15663692D02*
X9136056Y-15654168D01*
X9136056Y-15654168D02*
X9145579Y-15635121D01*
X9145579Y-15635121D02*
X9145579Y-15587502D01*
X9145579Y-15587502D02*
X9136056Y-15568454D01*
X9136056Y-15568454D02*
X9126532Y-15558930D01*
X9126532Y-15558930D02*
X9107484Y-15549406D01*
X9107484Y-15549406D02*
X9069389Y-15549406D01*
X9069389Y-15549406D02*
X9050341Y-15558930D01*
X9050341Y-15558930D02*
X9040817Y-15568454D01*
X9040817Y-15568454D02*
X9031294Y-15587502D01*
X9383675Y-15673216D02*
X9383675Y-15473216D01*
X9469389Y-15673216D02*
X9469389Y-15568454D01*
X9469389Y-15568454D02*
X9459865Y-15549406D01*
X9459865Y-15549406D02*
X9440818Y-15539883D01*
X9440818Y-15539883D02*
X9412246Y-15539883D01*
X9412246Y-15539883D02*
X9393198Y-15549406D01*
X9393198Y-15549406D02*
X9383675Y-15558930D01*
X9593198Y-15673216D02*
X9574151Y-15663692D01*
X9574151Y-15663692D02*
X9564627Y-15654168D01*
X9564627Y-15654168D02*
X9555103Y-15635121D01*
X9555103Y-15635121D02*
X9555103Y-15577978D01*
X9555103Y-15577978D02*
X9564627Y-15558930D01*
X9564627Y-15558930D02*
X9574151Y-15549406D01*
X9574151Y-15549406D02*
X9593198Y-15539883D01*
X9593198Y-15539883D02*
X9621770Y-15539883D01*
X9621770Y-15539883D02*
X9640818Y-15549406D01*
X9640818Y-15549406D02*
X9650341Y-15558930D01*
X9650341Y-15558930D02*
X9659865Y-15577978D01*
X9659865Y-15577978D02*
X9659865Y-15635121D01*
X9659865Y-15635121D02*
X9650341Y-15654168D01*
X9650341Y-15654168D02*
X9640818Y-15663692D01*
X9640818Y-15663692D02*
X9621770Y-15673216D01*
X9621770Y-15673216D02*
X9593198Y-15673216D01*
X9774151Y-15673216D02*
X9755103Y-15663692D01*
X9755103Y-15663692D02*
X9745579Y-15644644D01*
X9745579Y-15644644D02*
X9745579Y-15473216D01*
X9926532Y-15663692D02*
X9907484Y-15673216D01*
X9907484Y-15673216D02*
X9869389Y-15673216D01*
X9869389Y-15673216D02*
X9850341Y-15663692D01*
X9850341Y-15663692D02*
X9840818Y-15644644D01*
X9840818Y-15644644D02*
X9840818Y-15568454D01*
X9840818Y-15568454D02*
X9850341Y-15549406D01*
X9850341Y-15549406D02*
X9869389Y-15539883D01*
X9869389Y-15539883D02*
X9907484Y-15539883D01*
X9907484Y-15539883D02*
X9926532Y-15549406D01*
X9926532Y-15549406D02*
X9936056Y-15568454D01*
X9936056Y-15568454D02*
X9936056Y-15587502D01*
X9936056Y-15587502D02*
X9840818Y-15606549D01*
X10012246Y-15663692D02*
X10031294Y-15673216D01*
X10031294Y-15673216D02*
X10069389Y-15673216D01*
X10069389Y-15673216D02*
X10088437Y-15663692D01*
X10088437Y-15663692D02*
X10097960Y-15644644D01*
X10097960Y-15644644D02*
X10097960Y-15635121D01*
X10097960Y-15635121D02*
X10088437Y-15616073D01*
X10088437Y-15616073D02*
X10069389Y-15606549D01*
X10069389Y-15606549D02*
X10040818Y-15606549D01*
X10040818Y-15606549D02*
X10021770Y-15597025D01*
X10021770Y-15597025D02*
X10012246Y-15577978D01*
X10012246Y-15577978D02*
X10012246Y-15568454D01*
X10012246Y-15568454D02*
X10021770Y-15549406D01*
X10021770Y-15549406D02*
X10040818Y-15539883D01*
X10040818Y-15539883D02*
X10069389Y-15539883D01*
X10069389Y-15539883D02*
X10088437Y-15549406D01*
X10164627Y-15749406D02*
X10174151Y-15739883D01*
X10174151Y-15739883D02*
X10193199Y-15711311D01*
X10193199Y-15711311D02*
X10202722Y-15692264D01*
X10202722Y-15692264D02*
X10212246Y-15663692D01*
X10212246Y-15663692D02*
X10221770Y-15616073D01*
X10221770Y-15616073D02*
X10221770Y-15577978D01*
X10221770Y-15577978D02*
X10212246Y-15530359D01*
X10212246Y-15530359D02*
X10202722Y-15501787D01*
X10202722Y-15501787D02*
X10193199Y-15482740D01*
X10193199Y-15482740D02*
X10174151Y-15454168D01*
X10174151Y-15454168D02*
X10164627Y-15444644D01*
D12*
X5182979Y-15884623D02*
X5182979Y-15806841D01*
X5105197Y-15806841D01*
X5105197Y-15884623D01*
X5182979Y-15884623D01*
D11*
X5564627Y-15937216D02*
X5450341Y-15937216D01*
X5507484Y-15937216D02*
X5507484Y-15737216D01*
X5507484Y-15737216D02*
X5488436Y-15765787D01*
X5488436Y-15765787D02*
X5469389Y-15784835D01*
X5469389Y-15784835D02*
X5450341Y-15794359D01*
X5650341Y-15918168D02*
X5659865Y-15927692D01*
X5659865Y-15927692D02*
X5650341Y-15937216D01*
X5650341Y-15937216D02*
X5640817Y-15927692D01*
X5640817Y-15927692D02*
X5650341Y-15918168D01*
X5650341Y-15918168D02*
X5650341Y-15937216D01*
X5850341Y-15937216D02*
X5736055Y-15937216D01*
X5793198Y-15937216D02*
X5793198Y-15737216D01*
X5793198Y-15737216D02*
X5774150Y-15765787D01*
X5774150Y-15765787D02*
X5755103Y-15784835D01*
X5755103Y-15784835D02*
X5736055Y-15794359D01*
X5974150Y-15737216D02*
X5993198Y-15737216D01*
X5993198Y-15737216D02*
X6012246Y-15746740D01*
X6012246Y-15746740D02*
X6021769Y-15756264D01*
X6021769Y-15756264D02*
X6031293Y-15775311D01*
X6031293Y-15775311D02*
X6040817Y-15813406D01*
X6040817Y-15813406D02*
X6040817Y-15861025D01*
X6040817Y-15861025D02*
X6031293Y-15899121D01*
X6031293Y-15899121D02*
X6021769Y-15918168D01*
X6021769Y-15918168D02*
X6012246Y-15927692D01*
X6012246Y-15927692D02*
X5993198Y-15937216D01*
X5993198Y-15937216D02*
X5974150Y-15937216D01*
X5974150Y-15937216D02*
X5955103Y-15927692D01*
X5955103Y-15927692D02*
X5945579Y-15918168D01*
X5945579Y-15918168D02*
X5936055Y-15899121D01*
X5936055Y-15899121D02*
X5926531Y-15861025D01*
X5926531Y-15861025D02*
X5926531Y-15813406D01*
X5926531Y-15813406D02*
X5936055Y-15775311D01*
X5936055Y-15775311D02*
X5945579Y-15756264D01*
X5945579Y-15756264D02*
X5955103Y-15746740D01*
X5955103Y-15746740D02*
X5974150Y-15737216D01*
X6164627Y-15737216D02*
X6183674Y-15737216D01*
X6183674Y-15737216D02*
X6202722Y-15746740D01*
X6202722Y-15746740D02*
X6212246Y-15756264D01*
X6212246Y-15756264D02*
X6221769Y-15775311D01*
X6221769Y-15775311D02*
X6231293Y-15813406D01*
X6231293Y-15813406D02*
X6231293Y-15861025D01*
X6231293Y-15861025D02*
X6221769Y-15899121D01*
X6221769Y-15899121D02*
X6212246Y-15918168D01*
X6212246Y-15918168D02*
X6202722Y-15927692D01*
X6202722Y-15927692D02*
X6183674Y-15937216D01*
X6183674Y-15937216D02*
X6164627Y-15937216D01*
X6164627Y-15937216D02*
X6145579Y-15927692D01*
X6145579Y-15927692D02*
X6136055Y-15918168D01*
X6136055Y-15918168D02*
X6126531Y-15899121D01*
X6126531Y-15899121D02*
X6117008Y-15861025D01*
X6117008Y-15861025D02*
X6117008Y-15813406D01*
X6117008Y-15813406D02*
X6126531Y-15775311D01*
X6126531Y-15775311D02*
X6136055Y-15756264D01*
X6136055Y-15756264D02*
X6145579Y-15746740D01*
X6145579Y-15746740D02*
X6164627Y-15737216D01*
X6317008Y-15937216D02*
X6317008Y-15803883D01*
X6317008Y-15822930D02*
X6326531Y-15813406D01*
X6326531Y-15813406D02*
X6345579Y-15803883D01*
X6345579Y-15803883D02*
X6374150Y-15803883D01*
X6374150Y-15803883D02*
X6393198Y-15813406D01*
X6393198Y-15813406D02*
X6402722Y-15832454D01*
X6402722Y-15832454D02*
X6402722Y-15937216D01*
X6402722Y-15832454D02*
X6412246Y-15813406D01*
X6412246Y-15813406D02*
X6431293Y-15803883D01*
X6431293Y-15803883D02*
X6459865Y-15803883D01*
X6459865Y-15803883D02*
X6478912Y-15813406D01*
X6478912Y-15813406D02*
X6488436Y-15832454D01*
X6488436Y-15832454D02*
X6488436Y-15937216D01*
X6583674Y-15937216D02*
X6583674Y-15803883D01*
X6583674Y-15822930D02*
X6593198Y-15813406D01*
X6593198Y-15813406D02*
X6612246Y-15803883D01*
X6612246Y-15803883D02*
X6640817Y-15803883D01*
X6640817Y-15803883D02*
X6659865Y-15813406D01*
X6659865Y-15813406D02*
X6669389Y-15832454D01*
X6669389Y-15832454D02*
X6669389Y-15937216D01*
X6669389Y-15832454D02*
X6678912Y-15813406D01*
X6678912Y-15813406D02*
X6697960Y-15803883D01*
X6697960Y-15803883D02*
X6726531Y-15803883D01*
X6726531Y-15803883D02*
X6745579Y-15813406D01*
X6745579Y-15813406D02*
X6755103Y-15832454D01*
X6755103Y-15832454D02*
X6755103Y-15937216D01*
X7145579Y-15727692D02*
X6974151Y-15984835D01*
X7402722Y-15737216D02*
X7421770Y-15737216D01*
X7421770Y-15737216D02*
X7440817Y-15746740D01*
X7440817Y-15746740D02*
X7450341Y-15756264D01*
X7450341Y-15756264D02*
X7459865Y-15775311D01*
X7459865Y-15775311D02*
X7469389Y-15813406D01*
X7469389Y-15813406D02*
X7469389Y-15861025D01*
X7469389Y-15861025D02*
X7459865Y-15899121D01*
X7459865Y-15899121D02*
X7450341Y-15918168D01*
X7450341Y-15918168D02*
X7440817Y-15927692D01*
X7440817Y-15927692D02*
X7421770Y-15937216D01*
X7421770Y-15937216D02*
X7402722Y-15937216D01*
X7402722Y-15937216D02*
X7383674Y-15927692D01*
X7383674Y-15927692D02*
X7374151Y-15918168D01*
X7374151Y-15918168D02*
X7364627Y-15899121D01*
X7364627Y-15899121D02*
X7355103Y-15861025D01*
X7355103Y-15861025D02*
X7355103Y-15813406D01*
X7355103Y-15813406D02*
X7364627Y-15775311D01*
X7364627Y-15775311D02*
X7374151Y-15756264D01*
X7374151Y-15756264D02*
X7383674Y-15746740D01*
X7383674Y-15746740D02*
X7402722Y-15737216D01*
X7555103Y-15918168D02*
X7564627Y-15927692D01*
X7564627Y-15927692D02*
X7555103Y-15937216D01*
X7555103Y-15937216D02*
X7545579Y-15927692D01*
X7545579Y-15927692D02*
X7555103Y-15918168D01*
X7555103Y-15918168D02*
X7555103Y-15937216D01*
X7688436Y-15737216D02*
X7707484Y-15737216D01*
X7707484Y-15737216D02*
X7726532Y-15746740D01*
X7726532Y-15746740D02*
X7736055Y-15756264D01*
X7736055Y-15756264D02*
X7745579Y-15775311D01*
X7745579Y-15775311D02*
X7755103Y-15813406D01*
X7755103Y-15813406D02*
X7755103Y-15861025D01*
X7755103Y-15861025D02*
X7745579Y-15899121D01*
X7745579Y-15899121D02*
X7736055Y-15918168D01*
X7736055Y-15918168D02*
X7726532Y-15927692D01*
X7726532Y-15927692D02*
X7707484Y-15937216D01*
X7707484Y-15937216D02*
X7688436Y-15937216D01*
X7688436Y-15937216D02*
X7669389Y-15927692D01*
X7669389Y-15927692D02*
X7659865Y-15918168D01*
X7659865Y-15918168D02*
X7650341Y-15899121D01*
X7650341Y-15899121D02*
X7640817Y-15861025D01*
X7640817Y-15861025D02*
X7640817Y-15813406D01*
X7640817Y-15813406D02*
X7650341Y-15775311D01*
X7650341Y-15775311D02*
X7659865Y-15756264D01*
X7659865Y-15756264D02*
X7669389Y-15746740D01*
X7669389Y-15746740D02*
X7688436Y-15737216D01*
X7926532Y-15803883D02*
X7926532Y-15937216D01*
X7878912Y-15727692D02*
X7831293Y-15870549D01*
X7831293Y-15870549D02*
X7955103Y-15870549D01*
X8012246Y-15737216D02*
X8136055Y-15737216D01*
X8136055Y-15737216D02*
X8069389Y-15813406D01*
X8069389Y-15813406D02*
X8097960Y-15813406D01*
X8097960Y-15813406D02*
X8117008Y-15822930D01*
X8117008Y-15822930D02*
X8126532Y-15832454D01*
X8126532Y-15832454D02*
X8136055Y-15851502D01*
X8136055Y-15851502D02*
X8136055Y-15899121D01*
X8136055Y-15899121D02*
X8126532Y-15918168D01*
X8126532Y-15918168D02*
X8117008Y-15927692D01*
X8117008Y-15927692D02*
X8097960Y-15937216D01*
X8097960Y-15937216D02*
X8040817Y-15937216D01*
X8040817Y-15937216D02*
X8021770Y-15927692D01*
X8021770Y-15927692D02*
X8012246Y-15918168D01*
X8202722Y-15737216D02*
X8326532Y-15737216D01*
X8326532Y-15737216D02*
X8259865Y-15813406D01*
X8259865Y-15813406D02*
X8288436Y-15813406D01*
X8288436Y-15813406D02*
X8307484Y-15822930D01*
X8307484Y-15822930D02*
X8317008Y-15832454D01*
X8317008Y-15832454D02*
X8326532Y-15851502D01*
X8326532Y-15851502D02*
X8326532Y-15899121D01*
X8326532Y-15899121D02*
X8317008Y-15918168D01*
X8317008Y-15918168D02*
X8307484Y-15927692D01*
X8307484Y-15927692D02*
X8288436Y-15937216D01*
X8288436Y-15937216D02*
X8231293Y-15937216D01*
X8231293Y-15937216D02*
X8212246Y-15927692D01*
X8212246Y-15927692D02*
X8202722Y-15918168D01*
X8402722Y-15737216D02*
X8402722Y-15775311D01*
X8478913Y-15737216D02*
X8478913Y-15775311D01*
X8774151Y-16013406D02*
X8764627Y-16003883D01*
X8764627Y-16003883D02*
X8745579Y-15975311D01*
X8745579Y-15975311D02*
X8736056Y-15956264D01*
X8736056Y-15956264D02*
X8726532Y-15927692D01*
X8726532Y-15927692D02*
X8717008Y-15880073D01*
X8717008Y-15880073D02*
X8717008Y-15841978D01*
X8717008Y-15841978D02*
X8726532Y-15794359D01*
X8726532Y-15794359D02*
X8736056Y-15765787D01*
X8736056Y-15765787D02*
X8745579Y-15746740D01*
X8745579Y-15746740D02*
X8764627Y-15718168D01*
X8764627Y-15718168D02*
X8774151Y-15708644D01*
X8936056Y-15803883D02*
X8936056Y-15937216D01*
X8888436Y-15727692D02*
X8840817Y-15870549D01*
X8840817Y-15870549D02*
X8964627Y-15870549D01*
X9193198Y-15937216D02*
X9193198Y-15737216D01*
X9278913Y-15937216D02*
X9278913Y-15832454D01*
X9278913Y-15832454D02*
X9269389Y-15813406D01*
X9269389Y-15813406D02*
X9250341Y-15803883D01*
X9250341Y-15803883D02*
X9221770Y-15803883D01*
X9221770Y-15803883D02*
X9202722Y-15813406D01*
X9202722Y-15813406D02*
X9193198Y-15822930D01*
X9402722Y-15937216D02*
X9383675Y-15927692D01*
X9383675Y-15927692D02*
X9374151Y-15918168D01*
X9374151Y-15918168D02*
X9364627Y-15899121D01*
X9364627Y-15899121D02*
X9364627Y-15841978D01*
X9364627Y-15841978D02*
X9374151Y-15822930D01*
X9374151Y-15822930D02*
X9383675Y-15813406D01*
X9383675Y-15813406D02*
X9402722Y-15803883D01*
X9402722Y-15803883D02*
X9431294Y-15803883D01*
X9431294Y-15803883D02*
X9450341Y-15813406D01*
X9450341Y-15813406D02*
X9459865Y-15822930D01*
X9459865Y-15822930D02*
X9469389Y-15841978D01*
X9469389Y-15841978D02*
X9469389Y-15899121D01*
X9469389Y-15899121D02*
X9459865Y-15918168D01*
X9459865Y-15918168D02*
X9450341Y-15927692D01*
X9450341Y-15927692D02*
X9431294Y-15937216D01*
X9431294Y-15937216D02*
X9402722Y-15937216D01*
X9583675Y-15937216D02*
X9564627Y-15927692D01*
X9564627Y-15927692D02*
X9555103Y-15908644D01*
X9555103Y-15908644D02*
X9555103Y-15737216D01*
X9736056Y-15927692D02*
X9717008Y-15937216D01*
X9717008Y-15937216D02*
X9678913Y-15937216D01*
X9678913Y-15937216D02*
X9659865Y-15927692D01*
X9659865Y-15927692D02*
X9650341Y-15908644D01*
X9650341Y-15908644D02*
X9650341Y-15832454D01*
X9650341Y-15832454D02*
X9659865Y-15813406D01*
X9659865Y-15813406D02*
X9678913Y-15803883D01*
X9678913Y-15803883D02*
X9717008Y-15803883D01*
X9717008Y-15803883D02*
X9736056Y-15813406D01*
X9736056Y-15813406D02*
X9745579Y-15832454D01*
X9745579Y-15832454D02*
X9745579Y-15851502D01*
X9745579Y-15851502D02*
X9650341Y-15870549D01*
X9821770Y-15927692D02*
X9840818Y-15937216D01*
X9840818Y-15937216D02*
X9878913Y-15937216D01*
X9878913Y-15937216D02*
X9897960Y-15927692D01*
X9897960Y-15927692D02*
X9907484Y-15908644D01*
X9907484Y-15908644D02*
X9907484Y-15899121D01*
X9907484Y-15899121D02*
X9897960Y-15880073D01*
X9897960Y-15880073D02*
X9878913Y-15870549D01*
X9878913Y-15870549D02*
X9850341Y-15870549D01*
X9850341Y-15870549D02*
X9831294Y-15861025D01*
X9831294Y-15861025D02*
X9821770Y-15841978D01*
X9821770Y-15841978D02*
X9821770Y-15832454D01*
X9821770Y-15832454D02*
X9831294Y-15813406D01*
X9831294Y-15813406D02*
X9850341Y-15803883D01*
X9850341Y-15803883D02*
X9878913Y-15803883D01*
X9878913Y-15803883D02*
X9897960Y-15813406D01*
X9974151Y-16013406D02*
X9983675Y-16003883D01*
X9983675Y-16003883D02*
X10002722Y-15975311D01*
X10002722Y-15975311D02*
X10012246Y-15956264D01*
X10012246Y-15956264D02*
X10021770Y-15927692D01*
X10021770Y-15927692D02*
X10031294Y-15880073D01*
X10031294Y-15880073D02*
X10031294Y-15841978D01*
X10031294Y-15841978D02*
X10021770Y-15794359D01*
X10021770Y-15794359D02*
X10012246Y-15765787D01*
X10012246Y-15765787D02*
X10002722Y-15746740D01*
X10002722Y-15746740D02*
X9983675Y-15718168D01*
X9983675Y-15718168D02*
X9974151Y-15708644D01*
D13*
X5139093Y-16169727D02*
X5199088Y-16109732D01*
X5139093Y-16049737D01*
X5079098Y-16109732D01*
X5139093Y-16169727D01*
D11*
X5564627Y-16201216D02*
X5450341Y-16201216D01*
X5507484Y-16201216D02*
X5507484Y-16001216D01*
X5507484Y-16001216D02*
X5488436Y-16029787D01*
X5488436Y-16029787D02*
X5469389Y-16048835D01*
X5469389Y-16048835D02*
X5450341Y-16058359D01*
X5650341Y-16182168D02*
X5659865Y-16191692D01*
X5659865Y-16191692D02*
X5650341Y-16201216D01*
X5650341Y-16201216D02*
X5640817Y-16191692D01*
X5640817Y-16191692D02*
X5650341Y-16182168D01*
X5650341Y-16182168D02*
X5650341Y-16201216D01*
X5736055Y-16020264D02*
X5745579Y-16010740D01*
X5745579Y-16010740D02*
X5764627Y-16001216D01*
X5764627Y-16001216D02*
X5812246Y-16001216D01*
X5812246Y-16001216D02*
X5831293Y-16010740D01*
X5831293Y-16010740D02*
X5840817Y-16020264D01*
X5840817Y-16020264D02*
X5850341Y-16039311D01*
X5850341Y-16039311D02*
X5850341Y-16058359D01*
X5850341Y-16058359D02*
X5840817Y-16086930D01*
X5840817Y-16086930D02*
X5726531Y-16201216D01*
X5726531Y-16201216D02*
X5850341Y-16201216D01*
X5974150Y-16001216D02*
X5993198Y-16001216D01*
X5993198Y-16001216D02*
X6012246Y-16010740D01*
X6012246Y-16010740D02*
X6021769Y-16020264D01*
X6021769Y-16020264D02*
X6031293Y-16039311D01*
X6031293Y-16039311D02*
X6040817Y-16077406D01*
X6040817Y-16077406D02*
X6040817Y-16125025D01*
X6040817Y-16125025D02*
X6031293Y-16163121D01*
X6031293Y-16163121D02*
X6021769Y-16182168D01*
X6021769Y-16182168D02*
X6012246Y-16191692D01*
X6012246Y-16191692D02*
X5993198Y-16201216D01*
X5993198Y-16201216D02*
X5974150Y-16201216D01*
X5974150Y-16201216D02*
X5955103Y-16191692D01*
X5955103Y-16191692D02*
X5945579Y-16182168D01*
X5945579Y-16182168D02*
X5936055Y-16163121D01*
X5936055Y-16163121D02*
X5926531Y-16125025D01*
X5926531Y-16125025D02*
X5926531Y-16077406D01*
X5926531Y-16077406D02*
X5936055Y-16039311D01*
X5936055Y-16039311D02*
X5945579Y-16020264D01*
X5945579Y-16020264D02*
X5955103Y-16010740D01*
X5955103Y-16010740D02*
X5974150Y-16001216D01*
X6164627Y-16001216D02*
X6183674Y-16001216D01*
X6183674Y-16001216D02*
X6202722Y-16010740D01*
X6202722Y-16010740D02*
X6212246Y-16020264D01*
X6212246Y-16020264D02*
X6221769Y-16039311D01*
X6221769Y-16039311D02*
X6231293Y-16077406D01*
X6231293Y-16077406D02*
X6231293Y-16125025D01*
X6231293Y-16125025D02*
X6221769Y-16163121D01*
X6221769Y-16163121D02*
X6212246Y-16182168D01*
X6212246Y-16182168D02*
X6202722Y-16191692D01*
X6202722Y-16191692D02*
X6183674Y-16201216D01*
X6183674Y-16201216D02*
X6164627Y-16201216D01*
X6164627Y-16201216D02*
X6145579Y-16191692D01*
X6145579Y-16191692D02*
X6136055Y-16182168D01*
X6136055Y-16182168D02*
X6126531Y-16163121D01*
X6126531Y-16163121D02*
X6117008Y-16125025D01*
X6117008Y-16125025D02*
X6117008Y-16077406D01*
X6117008Y-16077406D02*
X6126531Y-16039311D01*
X6126531Y-16039311D02*
X6136055Y-16020264D01*
X6136055Y-16020264D02*
X6145579Y-16010740D01*
X6145579Y-16010740D02*
X6164627Y-16001216D01*
X6317008Y-16201216D02*
X6317008Y-16067883D01*
X6317008Y-16086930D02*
X6326531Y-16077406D01*
X6326531Y-16077406D02*
X6345579Y-16067883D01*
X6345579Y-16067883D02*
X6374150Y-16067883D01*
X6374150Y-16067883D02*
X6393198Y-16077406D01*
X6393198Y-16077406D02*
X6402722Y-16096454D01*
X6402722Y-16096454D02*
X6402722Y-16201216D01*
X6402722Y-16096454D02*
X6412246Y-16077406D01*
X6412246Y-16077406D02*
X6431293Y-16067883D01*
X6431293Y-16067883D02*
X6459865Y-16067883D01*
X6459865Y-16067883D02*
X6478912Y-16077406D01*
X6478912Y-16077406D02*
X6488436Y-16096454D01*
X6488436Y-16096454D02*
X6488436Y-16201216D01*
X6583674Y-16201216D02*
X6583674Y-16067883D01*
X6583674Y-16086930D02*
X6593198Y-16077406D01*
X6593198Y-16077406D02*
X6612246Y-16067883D01*
X6612246Y-16067883D02*
X6640817Y-16067883D01*
X6640817Y-16067883D02*
X6659865Y-16077406D01*
X6659865Y-16077406D02*
X6669389Y-16096454D01*
X6669389Y-16096454D02*
X6669389Y-16201216D01*
X6669389Y-16096454D02*
X6678912Y-16077406D01*
X6678912Y-16077406D02*
X6697960Y-16067883D01*
X6697960Y-16067883D02*
X6726531Y-16067883D01*
X6726531Y-16067883D02*
X6745579Y-16077406D01*
X6745579Y-16077406D02*
X6755103Y-16096454D01*
X6755103Y-16096454D02*
X6755103Y-16201216D01*
X7145579Y-15991692D02*
X6974151Y-16248835D01*
X7402722Y-16001216D02*
X7421770Y-16001216D01*
X7421770Y-16001216D02*
X7440817Y-16010740D01*
X7440817Y-16010740D02*
X7450341Y-16020264D01*
X7450341Y-16020264D02*
X7459865Y-16039311D01*
X7459865Y-16039311D02*
X7469389Y-16077406D01*
X7469389Y-16077406D02*
X7469389Y-16125025D01*
X7469389Y-16125025D02*
X7459865Y-16163121D01*
X7459865Y-16163121D02*
X7450341Y-16182168D01*
X7450341Y-16182168D02*
X7440817Y-16191692D01*
X7440817Y-16191692D02*
X7421770Y-16201216D01*
X7421770Y-16201216D02*
X7402722Y-16201216D01*
X7402722Y-16201216D02*
X7383674Y-16191692D01*
X7383674Y-16191692D02*
X7374151Y-16182168D01*
X7374151Y-16182168D02*
X7364627Y-16163121D01*
X7364627Y-16163121D02*
X7355103Y-16125025D01*
X7355103Y-16125025D02*
X7355103Y-16077406D01*
X7355103Y-16077406D02*
X7364627Y-16039311D01*
X7364627Y-16039311D02*
X7374151Y-16020264D01*
X7374151Y-16020264D02*
X7383674Y-16010740D01*
X7383674Y-16010740D02*
X7402722Y-16001216D01*
X7555103Y-16182168D02*
X7564627Y-16191692D01*
X7564627Y-16191692D02*
X7555103Y-16201216D01*
X7555103Y-16201216D02*
X7545579Y-16191692D01*
X7545579Y-16191692D02*
X7555103Y-16182168D01*
X7555103Y-16182168D02*
X7555103Y-16201216D01*
X7688436Y-16001216D02*
X7707484Y-16001216D01*
X7707484Y-16001216D02*
X7726532Y-16010740D01*
X7726532Y-16010740D02*
X7736055Y-16020264D01*
X7736055Y-16020264D02*
X7745579Y-16039311D01*
X7745579Y-16039311D02*
X7755103Y-16077406D01*
X7755103Y-16077406D02*
X7755103Y-16125025D01*
X7755103Y-16125025D02*
X7745579Y-16163121D01*
X7745579Y-16163121D02*
X7736055Y-16182168D01*
X7736055Y-16182168D02*
X7726532Y-16191692D01*
X7726532Y-16191692D02*
X7707484Y-16201216D01*
X7707484Y-16201216D02*
X7688436Y-16201216D01*
X7688436Y-16201216D02*
X7669389Y-16191692D01*
X7669389Y-16191692D02*
X7659865Y-16182168D01*
X7659865Y-16182168D02*
X7650341Y-16163121D01*
X7650341Y-16163121D02*
X7640817Y-16125025D01*
X7640817Y-16125025D02*
X7640817Y-16077406D01*
X7640817Y-16077406D02*
X7650341Y-16039311D01*
X7650341Y-16039311D02*
X7659865Y-16020264D01*
X7659865Y-16020264D02*
X7669389Y-16010740D01*
X7669389Y-16010740D02*
X7688436Y-16001216D01*
X7926532Y-16067883D02*
X7926532Y-16201216D01*
X7878912Y-15991692D02*
X7831293Y-16134549D01*
X7831293Y-16134549D02*
X7955103Y-16134549D01*
X8012246Y-16001216D02*
X8145579Y-16001216D01*
X8145579Y-16001216D02*
X8059865Y-16201216D01*
X8212246Y-16020264D02*
X8221770Y-16010740D01*
X8221770Y-16010740D02*
X8240817Y-16001216D01*
X8240817Y-16001216D02*
X8288436Y-16001216D01*
X8288436Y-16001216D02*
X8307484Y-16010740D01*
X8307484Y-16010740D02*
X8317008Y-16020264D01*
X8317008Y-16020264D02*
X8326532Y-16039311D01*
X8326532Y-16039311D02*
X8326532Y-16058359D01*
X8326532Y-16058359D02*
X8317008Y-16086930D01*
X8317008Y-16086930D02*
X8202722Y-16201216D01*
X8202722Y-16201216D02*
X8326532Y-16201216D01*
X8402722Y-16001216D02*
X8402722Y-16039311D01*
X8478913Y-16001216D02*
X8478913Y-16039311D01*
X8774151Y-16277406D02*
X8764627Y-16267883D01*
X8764627Y-16267883D02*
X8745579Y-16239311D01*
X8745579Y-16239311D02*
X8736056Y-16220264D01*
X8736056Y-16220264D02*
X8726532Y-16191692D01*
X8726532Y-16191692D02*
X8717008Y-16144073D01*
X8717008Y-16144073D02*
X8717008Y-16105978D01*
X8717008Y-16105978D02*
X8726532Y-16058359D01*
X8726532Y-16058359D02*
X8736056Y-16029787D01*
X8736056Y-16029787D02*
X8745579Y-16010740D01*
X8745579Y-16010740D02*
X8764627Y-15982168D01*
X8764627Y-15982168D02*
X8774151Y-15972644D01*
X8878913Y-16086930D02*
X8859865Y-16077406D01*
X8859865Y-16077406D02*
X8850341Y-16067883D01*
X8850341Y-16067883D02*
X8840817Y-16048835D01*
X8840817Y-16048835D02*
X8840817Y-16039311D01*
X8840817Y-16039311D02*
X8850341Y-16020264D01*
X8850341Y-16020264D02*
X8859865Y-16010740D01*
X8859865Y-16010740D02*
X8878913Y-16001216D01*
X8878913Y-16001216D02*
X8917008Y-16001216D01*
X8917008Y-16001216D02*
X8936056Y-16010740D01*
X8936056Y-16010740D02*
X8945579Y-16020264D01*
X8945579Y-16020264D02*
X8955103Y-16039311D01*
X8955103Y-16039311D02*
X8955103Y-16048835D01*
X8955103Y-16048835D02*
X8945579Y-16067883D01*
X8945579Y-16067883D02*
X8936056Y-16077406D01*
X8936056Y-16077406D02*
X8917008Y-16086930D01*
X8917008Y-16086930D02*
X8878913Y-16086930D01*
X8878913Y-16086930D02*
X8859865Y-16096454D01*
X8859865Y-16096454D02*
X8850341Y-16105978D01*
X8850341Y-16105978D02*
X8840817Y-16125025D01*
X8840817Y-16125025D02*
X8840817Y-16163121D01*
X8840817Y-16163121D02*
X8850341Y-16182168D01*
X8850341Y-16182168D02*
X8859865Y-16191692D01*
X8859865Y-16191692D02*
X8878913Y-16201216D01*
X8878913Y-16201216D02*
X8917008Y-16201216D01*
X8917008Y-16201216D02*
X8936056Y-16191692D01*
X8936056Y-16191692D02*
X8945579Y-16182168D01*
X8945579Y-16182168D02*
X8955103Y-16163121D01*
X8955103Y-16163121D02*
X8955103Y-16125025D01*
X8955103Y-16125025D02*
X8945579Y-16105978D01*
X8945579Y-16105978D02*
X8936056Y-16096454D01*
X8936056Y-16096454D02*
X8917008Y-16086930D01*
X9193198Y-16201216D02*
X9193198Y-16001216D01*
X9278913Y-16201216D02*
X9278913Y-16096454D01*
X9278913Y-16096454D02*
X9269389Y-16077406D01*
X9269389Y-16077406D02*
X9250341Y-16067883D01*
X9250341Y-16067883D02*
X9221770Y-16067883D01*
X9221770Y-16067883D02*
X9202722Y-16077406D01*
X9202722Y-16077406D02*
X9193198Y-16086930D01*
X9402722Y-16201216D02*
X9383675Y-16191692D01*
X9383675Y-16191692D02*
X9374151Y-16182168D01*
X9374151Y-16182168D02*
X9364627Y-16163121D01*
X9364627Y-16163121D02*
X9364627Y-16105978D01*
X9364627Y-16105978D02*
X9374151Y-16086930D01*
X9374151Y-16086930D02*
X9383675Y-16077406D01*
X9383675Y-16077406D02*
X9402722Y-16067883D01*
X9402722Y-16067883D02*
X9431294Y-16067883D01*
X9431294Y-16067883D02*
X9450341Y-16077406D01*
X9450341Y-16077406D02*
X9459865Y-16086930D01*
X9459865Y-16086930D02*
X9469389Y-16105978D01*
X9469389Y-16105978D02*
X9469389Y-16163121D01*
X9469389Y-16163121D02*
X9459865Y-16182168D01*
X9459865Y-16182168D02*
X9450341Y-16191692D01*
X9450341Y-16191692D02*
X9431294Y-16201216D01*
X9431294Y-16201216D02*
X9402722Y-16201216D01*
X9583675Y-16201216D02*
X9564627Y-16191692D01*
X9564627Y-16191692D02*
X9555103Y-16172644D01*
X9555103Y-16172644D02*
X9555103Y-16001216D01*
X9736056Y-16191692D02*
X9717008Y-16201216D01*
X9717008Y-16201216D02*
X9678913Y-16201216D01*
X9678913Y-16201216D02*
X9659865Y-16191692D01*
X9659865Y-16191692D02*
X9650341Y-16172644D01*
X9650341Y-16172644D02*
X9650341Y-16096454D01*
X9650341Y-16096454D02*
X9659865Y-16077406D01*
X9659865Y-16077406D02*
X9678913Y-16067883D01*
X9678913Y-16067883D02*
X9717008Y-16067883D01*
X9717008Y-16067883D02*
X9736056Y-16077406D01*
X9736056Y-16077406D02*
X9745579Y-16096454D01*
X9745579Y-16096454D02*
X9745579Y-16115502D01*
X9745579Y-16115502D02*
X9650341Y-16134549D01*
X9821770Y-16191692D02*
X9840818Y-16201216D01*
X9840818Y-16201216D02*
X9878913Y-16201216D01*
X9878913Y-16201216D02*
X9897960Y-16191692D01*
X9897960Y-16191692D02*
X9907484Y-16172644D01*
X9907484Y-16172644D02*
X9907484Y-16163121D01*
X9907484Y-16163121D02*
X9897960Y-16144073D01*
X9897960Y-16144073D02*
X9878913Y-16134549D01*
X9878913Y-16134549D02*
X9850341Y-16134549D01*
X9850341Y-16134549D02*
X9831294Y-16125025D01*
X9831294Y-16125025D02*
X9821770Y-16105978D01*
X9821770Y-16105978D02*
X9821770Y-16096454D01*
X9821770Y-16096454D02*
X9831294Y-16077406D01*
X9831294Y-16077406D02*
X9850341Y-16067883D01*
X9850341Y-16067883D02*
X9878913Y-16067883D01*
X9878913Y-16067883D02*
X9897960Y-16077406D01*
X9974151Y-16277406D02*
X9983675Y-16267883D01*
X9983675Y-16267883D02*
X10002722Y-16239311D01*
X10002722Y-16239311D02*
X10012246Y-16220264D01*
X10012246Y-16220264D02*
X10021770Y-16191692D01*
X10021770Y-16191692D02*
X10031294Y-16144073D01*
X10031294Y-16144073D02*
X10031294Y-16105978D01*
X10031294Y-16105978D02*
X10021770Y-16058359D01*
X10021770Y-16058359D02*
X10012246Y-16029787D01*
X10012246Y-16029787D02*
X10002722Y-16010740D01*
X10002722Y-16010740D02*
X9983675Y-15982168D01*
X9983675Y-15982168D02*
X9974151Y-15972644D01*
D14*
X5039088Y-16293732D02*
X5199088Y-16453732D01*
X5199088Y-16293732D02*
X5039088Y-16453732D01*
X5199088Y-16373732D02*
G75*
G03*
X5199088Y-16373732I-80000J0D01*
G01*
D11*
X5564627Y-16465216D02*
X5450341Y-16465216D01*
X5507484Y-16465216D02*
X5507484Y-16265216D01*
X5507484Y-16265216D02*
X5488436Y-16293787D01*
X5488436Y-16293787D02*
X5469389Y-16312835D01*
X5469389Y-16312835D02*
X5450341Y-16322359D01*
X5650341Y-16446168D02*
X5659865Y-16455692D01*
X5659865Y-16455692D02*
X5650341Y-16465216D01*
X5650341Y-16465216D02*
X5640817Y-16455692D01*
X5640817Y-16455692D02*
X5650341Y-16446168D01*
X5650341Y-16446168D02*
X5650341Y-16465216D01*
X5831293Y-16265216D02*
X5793198Y-16265216D01*
X5793198Y-16265216D02*
X5774150Y-16274740D01*
X5774150Y-16274740D02*
X5764627Y-16284264D01*
X5764627Y-16284264D02*
X5745579Y-16312835D01*
X5745579Y-16312835D02*
X5736055Y-16350930D01*
X5736055Y-16350930D02*
X5736055Y-16427121D01*
X5736055Y-16427121D02*
X5745579Y-16446168D01*
X5745579Y-16446168D02*
X5755103Y-16455692D01*
X5755103Y-16455692D02*
X5774150Y-16465216D01*
X5774150Y-16465216D02*
X5812246Y-16465216D01*
X5812246Y-16465216D02*
X5831293Y-16455692D01*
X5831293Y-16455692D02*
X5840817Y-16446168D01*
X5840817Y-16446168D02*
X5850341Y-16427121D01*
X5850341Y-16427121D02*
X5850341Y-16379502D01*
X5850341Y-16379502D02*
X5840817Y-16360454D01*
X5840817Y-16360454D02*
X5831293Y-16350930D01*
X5831293Y-16350930D02*
X5812246Y-16341406D01*
X5812246Y-16341406D02*
X5774150Y-16341406D01*
X5774150Y-16341406D02*
X5755103Y-16350930D01*
X5755103Y-16350930D02*
X5745579Y-16360454D01*
X5745579Y-16360454D02*
X5736055Y-16379502D01*
X5974150Y-16265216D02*
X5993198Y-16265216D01*
X5993198Y-16265216D02*
X6012246Y-16274740D01*
X6012246Y-16274740D02*
X6021769Y-16284264D01*
X6021769Y-16284264D02*
X6031293Y-16303311D01*
X6031293Y-16303311D02*
X6040817Y-16341406D01*
X6040817Y-16341406D02*
X6040817Y-16389025D01*
X6040817Y-16389025D02*
X6031293Y-16427121D01*
X6031293Y-16427121D02*
X6021769Y-16446168D01*
X6021769Y-16446168D02*
X6012246Y-16455692D01*
X6012246Y-16455692D02*
X5993198Y-16465216D01*
X5993198Y-16465216D02*
X5974150Y-16465216D01*
X5974150Y-16465216D02*
X5955103Y-16455692D01*
X5955103Y-16455692D02*
X5945579Y-16446168D01*
X5945579Y-16446168D02*
X5936055Y-16427121D01*
X5936055Y-16427121D02*
X5926531Y-16389025D01*
X5926531Y-16389025D02*
X5926531Y-16341406D01*
X5926531Y-16341406D02*
X5936055Y-16303311D01*
X5936055Y-16303311D02*
X5945579Y-16284264D01*
X5945579Y-16284264D02*
X5955103Y-16274740D01*
X5955103Y-16274740D02*
X5974150Y-16265216D01*
X6164627Y-16265216D02*
X6183674Y-16265216D01*
X6183674Y-16265216D02*
X6202722Y-16274740D01*
X6202722Y-16274740D02*
X6212246Y-16284264D01*
X6212246Y-16284264D02*
X6221769Y-16303311D01*
X6221769Y-16303311D02*
X6231293Y-16341406D01*
X6231293Y-16341406D02*
X6231293Y-16389025D01*
X6231293Y-16389025D02*
X6221769Y-16427121D01*
X6221769Y-16427121D02*
X6212246Y-16446168D01*
X6212246Y-16446168D02*
X6202722Y-16455692D01*
X6202722Y-16455692D02*
X6183674Y-16465216D01*
X6183674Y-16465216D02*
X6164627Y-16465216D01*
X6164627Y-16465216D02*
X6145579Y-16455692D01*
X6145579Y-16455692D02*
X6136055Y-16446168D01*
X6136055Y-16446168D02*
X6126531Y-16427121D01*
X6126531Y-16427121D02*
X6117008Y-16389025D01*
X6117008Y-16389025D02*
X6117008Y-16341406D01*
X6117008Y-16341406D02*
X6126531Y-16303311D01*
X6126531Y-16303311D02*
X6136055Y-16284264D01*
X6136055Y-16284264D02*
X6145579Y-16274740D01*
X6145579Y-16274740D02*
X6164627Y-16265216D01*
X6317008Y-16465216D02*
X6317008Y-16331883D01*
X6317008Y-16350930D02*
X6326531Y-16341406D01*
X6326531Y-16341406D02*
X6345579Y-16331883D01*
X6345579Y-16331883D02*
X6374150Y-16331883D01*
X6374150Y-16331883D02*
X6393198Y-16341406D01*
X6393198Y-16341406D02*
X6402722Y-16360454D01*
X6402722Y-16360454D02*
X6402722Y-16465216D01*
X6402722Y-16360454D02*
X6412246Y-16341406D01*
X6412246Y-16341406D02*
X6431293Y-16331883D01*
X6431293Y-16331883D02*
X6459865Y-16331883D01*
X6459865Y-16331883D02*
X6478912Y-16341406D01*
X6478912Y-16341406D02*
X6488436Y-16360454D01*
X6488436Y-16360454D02*
X6488436Y-16465216D01*
X6583674Y-16465216D02*
X6583674Y-16331883D01*
X6583674Y-16350930D02*
X6593198Y-16341406D01*
X6593198Y-16341406D02*
X6612246Y-16331883D01*
X6612246Y-16331883D02*
X6640817Y-16331883D01*
X6640817Y-16331883D02*
X6659865Y-16341406D01*
X6659865Y-16341406D02*
X6669389Y-16360454D01*
X6669389Y-16360454D02*
X6669389Y-16465216D01*
X6669389Y-16360454D02*
X6678912Y-16341406D01*
X6678912Y-16341406D02*
X6697960Y-16331883D01*
X6697960Y-16331883D02*
X6726531Y-16331883D01*
X6726531Y-16331883D02*
X6745579Y-16341406D01*
X6745579Y-16341406D02*
X6755103Y-16360454D01*
X6755103Y-16360454D02*
X6755103Y-16465216D01*
X7145579Y-16255692D02*
X6974151Y-16512835D01*
X7402722Y-16265216D02*
X7421770Y-16265216D01*
X7421770Y-16265216D02*
X7440817Y-16274740D01*
X7440817Y-16274740D02*
X7450341Y-16284264D01*
X7450341Y-16284264D02*
X7459865Y-16303311D01*
X7459865Y-16303311D02*
X7469389Y-16341406D01*
X7469389Y-16341406D02*
X7469389Y-16389025D01*
X7469389Y-16389025D02*
X7459865Y-16427121D01*
X7459865Y-16427121D02*
X7450341Y-16446168D01*
X7450341Y-16446168D02*
X7440817Y-16455692D01*
X7440817Y-16455692D02*
X7421770Y-16465216D01*
X7421770Y-16465216D02*
X7402722Y-16465216D01*
X7402722Y-16465216D02*
X7383674Y-16455692D01*
X7383674Y-16455692D02*
X7374151Y-16446168D01*
X7374151Y-16446168D02*
X7364627Y-16427121D01*
X7364627Y-16427121D02*
X7355103Y-16389025D01*
X7355103Y-16389025D02*
X7355103Y-16341406D01*
X7355103Y-16341406D02*
X7364627Y-16303311D01*
X7364627Y-16303311D02*
X7374151Y-16284264D01*
X7374151Y-16284264D02*
X7383674Y-16274740D01*
X7383674Y-16274740D02*
X7402722Y-16265216D01*
X7555103Y-16446168D02*
X7564627Y-16455692D01*
X7564627Y-16455692D02*
X7555103Y-16465216D01*
X7555103Y-16465216D02*
X7545579Y-16455692D01*
X7545579Y-16455692D02*
X7555103Y-16446168D01*
X7555103Y-16446168D02*
X7555103Y-16465216D01*
X7688436Y-16265216D02*
X7707484Y-16265216D01*
X7707484Y-16265216D02*
X7726532Y-16274740D01*
X7726532Y-16274740D02*
X7736055Y-16284264D01*
X7736055Y-16284264D02*
X7745579Y-16303311D01*
X7745579Y-16303311D02*
X7755103Y-16341406D01*
X7755103Y-16341406D02*
X7755103Y-16389025D01*
X7755103Y-16389025D02*
X7745579Y-16427121D01*
X7745579Y-16427121D02*
X7736055Y-16446168D01*
X7736055Y-16446168D02*
X7726532Y-16455692D01*
X7726532Y-16455692D02*
X7707484Y-16465216D01*
X7707484Y-16465216D02*
X7688436Y-16465216D01*
X7688436Y-16465216D02*
X7669389Y-16455692D01*
X7669389Y-16455692D02*
X7659865Y-16446168D01*
X7659865Y-16446168D02*
X7650341Y-16427121D01*
X7650341Y-16427121D02*
X7640817Y-16389025D01*
X7640817Y-16389025D02*
X7640817Y-16341406D01*
X7640817Y-16341406D02*
X7650341Y-16303311D01*
X7650341Y-16303311D02*
X7659865Y-16284264D01*
X7659865Y-16284264D02*
X7669389Y-16274740D01*
X7669389Y-16274740D02*
X7688436Y-16265216D01*
X7926532Y-16265216D02*
X7888436Y-16265216D01*
X7888436Y-16265216D02*
X7869389Y-16274740D01*
X7869389Y-16274740D02*
X7859865Y-16284264D01*
X7859865Y-16284264D02*
X7840817Y-16312835D01*
X7840817Y-16312835D02*
X7831293Y-16350930D01*
X7831293Y-16350930D02*
X7831293Y-16427121D01*
X7831293Y-16427121D02*
X7840817Y-16446168D01*
X7840817Y-16446168D02*
X7850341Y-16455692D01*
X7850341Y-16455692D02*
X7869389Y-16465216D01*
X7869389Y-16465216D02*
X7907484Y-16465216D01*
X7907484Y-16465216D02*
X7926532Y-16455692D01*
X7926532Y-16455692D02*
X7936055Y-16446168D01*
X7936055Y-16446168D02*
X7945579Y-16427121D01*
X7945579Y-16427121D02*
X7945579Y-16379502D01*
X7945579Y-16379502D02*
X7936055Y-16360454D01*
X7936055Y-16360454D02*
X7926532Y-16350930D01*
X7926532Y-16350930D02*
X7907484Y-16341406D01*
X7907484Y-16341406D02*
X7869389Y-16341406D01*
X7869389Y-16341406D02*
X7850341Y-16350930D01*
X7850341Y-16350930D02*
X7840817Y-16360454D01*
X7840817Y-16360454D02*
X7831293Y-16379502D01*
X8012246Y-16265216D02*
X8136055Y-16265216D01*
X8136055Y-16265216D02*
X8069389Y-16341406D01*
X8069389Y-16341406D02*
X8097960Y-16341406D01*
X8097960Y-16341406D02*
X8117008Y-16350930D01*
X8117008Y-16350930D02*
X8126532Y-16360454D01*
X8126532Y-16360454D02*
X8136055Y-16379502D01*
X8136055Y-16379502D02*
X8136055Y-16427121D01*
X8136055Y-16427121D02*
X8126532Y-16446168D01*
X8126532Y-16446168D02*
X8117008Y-16455692D01*
X8117008Y-16455692D02*
X8097960Y-16465216D01*
X8097960Y-16465216D02*
X8040817Y-16465216D01*
X8040817Y-16465216D02*
X8021770Y-16455692D01*
X8021770Y-16455692D02*
X8012246Y-16446168D01*
X8259865Y-16265216D02*
X8278913Y-16265216D01*
X8278913Y-16265216D02*
X8297960Y-16274740D01*
X8297960Y-16274740D02*
X8307484Y-16284264D01*
X8307484Y-16284264D02*
X8317008Y-16303311D01*
X8317008Y-16303311D02*
X8326532Y-16341406D01*
X8326532Y-16341406D02*
X8326532Y-16389025D01*
X8326532Y-16389025D02*
X8317008Y-16427121D01*
X8317008Y-16427121D02*
X8307484Y-16446168D01*
X8307484Y-16446168D02*
X8297960Y-16455692D01*
X8297960Y-16455692D02*
X8278913Y-16465216D01*
X8278913Y-16465216D02*
X8259865Y-16465216D01*
X8259865Y-16465216D02*
X8240817Y-16455692D01*
X8240817Y-16455692D02*
X8231293Y-16446168D01*
X8231293Y-16446168D02*
X8221770Y-16427121D01*
X8221770Y-16427121D02*
X8212246Y-16389025D01*
X8212246Y-16389025D02*
X8212246Y-16341406D01*
X8212246Y-16341406D02*
X8221770Y-16303311D01*
X8221770Y-16303311D02*
X8231293Y-16284264D01*
X8231293Y-16284264D02*
X8240817Y-16274740D01*
X8240817Y-16274740D02*
X8259865Y-16265216D01*
X8402722Y-16265216D02*
X8402722Y-16303311D01*
X8478913Y-16265216D02*
X8478913Y-16303311D01*
X8774151Y-16541406D02*
X8764627Y-16531883D01*
X8764627Y-16531883D02*
X8745579Y-16503311D01*
X8745579Y-16503311D02*
X8736056Y-16484264D01*
X8736056Y-16484264D02*
X8726532Y-16455692D01*
X8726532Y-16455692D02*
X8717008Y-16408073D01*
X8717008Y-16408073D02*
X8717008Y-16369978D01*
X8717008Y-16369978D02*
X8726532Y-16322359D01*
X8726532Y-16322359D02*
X8736056Y-16293787D01*
X8736056Y-16293787D02*
X8745579Y-16274740D01*
X8745579Y-16274740D02*
X8764627Y-16246168D01*
X8764627Y-16246168D02*
X8774151Y-16236644D01*
X8945579Y-16265216D02*
X8850341Y-16265216D01*
X8850341Y-16265216D02*
X8840817Y-16360454D01*
X8840817Y-16360454D02*
X8850341Y-16350930D01*
X8850341Y-16350930D02*
X8869389Y-16341406D01*
X8869389Y-16341406D02*
X8917008Y-16341406D01*
X8917008Y-16341406D02*
X8936056Y-16350930D01*
X8936056Y-16350930D02*
X8945579Y-16360454D01*
X8945579Y-16360454D02*
X8955103Y-16379502D01*
X8955103Y-16379502D02*
X8955103Y-16427121D01*
X8955103Y-16427121D02*
X8945579Y-16446168D01*
X8945579Y-16446168D02*
X8936056Y-16455692D01*
X8936056Y-16455692D02*
X8917008Y-16465216D01*
X8917008Y-16465216D02*
X8869389Y-16465216D01*
X8869389Y-16465216D02*
X8850341Y-16455692D01*
X8850341Y-16455692D02*
X8840817Y-16446168D01*
X9193198Y-16465216D02*
X9193198Y-16265216D01*
X9278913Y-16465216D02*
X9278913Y-16360454D01*
X9278913Y-16360454D02*
X9269389Y-16341406D01*
X9269389Y-16341406D02*
X9250341Y-16331883D01*
X9250341Y-16331883D02*
X9221770Y-16331883D01*
X9221770Y-16331883D02*
X9202722Y-16341406D01*
X9202722Y-16341406D02*
X9193198Y-16350930D01*
X9402722Y-16465216D02*
X9383675Y-16455692D01*
X9383675Y-16455692D02*
X9374151Y-16446168D01*
X9374151Y-16446168D02*
X9364627Y-16427121D01*
X9364627Y-16427121D02*
X9364627Y-16369978D01*
X9364627Y-16369978D02*
X9374151Y-16350930D01*
X9374151Y-16350930D02*
X9383675Y-16341406D01*
X9383675Y-16341406D02*
X9402722Y-16331883D01*
X9402722Y-16331883D02*
X9431294Y-16331883D01*
X9431294Y-16331883D02*
X9450341Y-16341406D01*
X9450341Y-16341406D02*
X9459865Y-16350930D01*
X9459865Y-16350930D02*
X9469389Y-16369978D01*
X9469389Y-16369978D02*
X9469389Y-16427121D01*
X9469389Y-16427121D02*
X9459865Y-16446168D01*
X9459865Y-16446168D02*
X9450341Y-16455692D01*
X9450341Y-16455692D02*
X9431294Y-16465216D01*
X9431294Y-16465216D02*
X9402722Y-16465216D01*
X9583675Y-16465216D02*
X9564627Y-16455692D01*
X9564627Y-16455692D02*
X9555103Y-16436644D01*
X9555103Y-16436644D02*
X9555103Y-16265216D01*
X9736056Y-16455692D02*
X9717008Y-16465216D01*
X9717008Y-16465216D02*
X9678913Y-16465216D01*
X9678913Y-16465216D02*
X9659865Y-16455692D01*
X9659865Y-16455692D02*
X9650341Y-16436644D01*
X9650341Y-16436644D02*
X9650341Y-16360454D01*
X9650341Y-16360454D02*
X9659865Y-16341406D01*
X9659865Y-16341406D02*
X9678913Y-16331883D01*
X9678913Y-16331883D02*
X9717008Y-16331883D01*
X9717008Y-16331883D02*
X9736056Y-16341406D01*
X9736056Y-16341406D02*
X9745579Y-16360454D01*
X9745579Y-16360454D02*
X9745579Y-16379502D01*
X9745579Y-16379502D02*
X9650341Y-16398549D01*
X9821770Y-16455692D02*
X9840818Y-16465216D01*
X9840818Y-16465216D02*
X9878913Y-16465216D01*
X9878913Y-16465216D02*
X9897960Y-16455692D01*
X9897960Y-16455692D02*
X9907484Y-16436644D01*
X9907484Y-16436644D02*
X9907484Y-16427121D01*
X9907484Y-16427121D02*
X9897960Y-16408073D01*
X9897960Y-16408073D02*
X9878913Y-16398549D01*
X9878913Y-16398549D02*
X9850341Y-16398549D01*
X9850341Y-16398549D02*
X9831294Y-16389025D01*
X9831294Y-16389025D02*
X9821770Y-16369978D01*
X9821770Y-16369978D02*
X9821770Y-16360454D01*
X9821770Y-16360454D02*
X9831294Y-16341406D01*
X9831294Y-16341406D02*
X9850341Y-16331883D01*
X9850341Y-16331883D02*
X9878913Y-16331883D01*
X9878913Y-16331883D02*
X9897960Y-16341406D01*
X9974151Y-16541406D02*
X9983675Y-16531883D01*
X9983675Y-16531883D02*
X10002722Y-16503311D01*
X10002722Y-16503311D02*
X10012246Y-16484264D01*
X10012246Y-16484264D02*
X10021770Y-16455692D01*
X10021770Y-16455692D02*
X10031294Y-16408073D01*
X10031294Y-16408073D02*
X10031294Y-16369978D01*
X10031294Y-16369978D02*
X10021770Y-16322359D01*
X10021770Y-16322359D02*
X10012246Y-16293787D01*
X10012246Y-16293787D02*
X10002722Y-16274740D01*
X10002722Y-16274740D02*
X9983675Y-16246168D01*
X9983675Y-16246168D02*
X9974151Y-16236644D01*
X4999088Y-16553732D02*
X5199088Y-16753732D01*
X5199088Y-16553732D02*
X4999088Y-16753732D01*
X5099088Y-16553732D02*
X5099088Y-16753732D01*
X4999088Y-16653732D02*
X5199088Y-16653732D01*
X5450341Y-16564263D02*
X5459865Y-16554739D01*
X5459865Y-16554739D02*
X5478912Y-16545216D01*
X5478912Y-16545216D02*
X5526531Y-16545216D01*
X5526531Y-16545216D02*
X5545579Y-16554739D01*
X5545579Y-16554739D02*
X5555103Y-16564263D01*
X5555103Y-16564263D02*
X5564627Y-16583311D01*
X5564627Y-16583311D02*
X5564627Y-16602358D01*
X5564627Y-16602358D02*
X5555103Y-16630930D01*
X5555103Y-16630930D02*
X5440817Y-16745216D01*
X5440817Y-16745216D02*
X5564627Y-16745216D01*
X5650341Y-16726168D02*
X5659865Y-16735692D01*
X5659865Y-16735692D02*
X5650341Y-16745216D01*
X5650341Y-16745216D02*
X5640817Y-16735692D01*
X5640817Y-16735692D02*
X5650341Y-16726168D01*
X5650341Y-16726168D02*
X5650341Y-16745216D01*
X5831293Y-16611882D02*
X5831293Y-16745216D01*
X5783674Y-16535692D02*
X5736055Y-16678549D01*
X5736055Y-16678549D02*
X5859865Y-16678549D01*
X5974150Y-16545216D02*
X5993198Y-16545216D01*
X5993198Y-16545216D02*
X6012246Y-16554739D01*
X6012246Y-16554739D02*
X6021769Y-16564263D01*
X6021769Y-16564263D02*
X6031293Y-16583311D01*
X6031293Y-16583311D02*
X6040817Y-16621406D01*
X6040817Y-16621406D02*
X6040817Y-16669025D01*
X6040817Y-16669025D02*
X6031293Y-16707120D01*
X6031293Y-16707120D02*
X6021769Y-16726168D01*
X6021769Y-16726168D02*
X6012246Y-16735692D01*
X6012246Y-16735692D02*
X5993198Y-16745216D01*
X5993198Y-16745216D02*
X5974150Y-16745216D01*
X5974150Y-16745216D02*
X5955103Y-16735692D01*
X5955103Y-16735692D02*
X5945579Y-16726168D01*
X5945579Y-16726168D02*
X5936055Y-16707120D01*
X5936055Y-16707120D02*
X5926531Y-16669025D01*
X5926531Y-16669025D02*
X5926531Y-16621406D01*
X5926531Y-16621406D02*
X5936055Y-16583311D01*
X5936055Y-16583311D02*
X5945579Y-16564263D01*
X5945579Y-16564263D02*
X5955103Y-16554739D01*
X5955103Y-16554739D02*
X5974150Y-16545216D01*
X6164627Y-16545216D02*
X6183674Y-16545216D01*
X6183674Y-16545216D02*
X6202722Y-16554739D01*
X6202722Y-16554739D02*
X6212246Y-16564263D01*
X6212246Y-16564263D02*
X6221769Y-16583311D01*
X6221769Y-16583311D02*
X6231293Y-16621406D01*
X6231293Y-16621406D02*
X6231293Y-16669025D01*
X6231293Y-16669025D02*
X6221769Y-16707120D01*
X6221769Y-16707120D02*
X6212246Y-16726168D01*
X6212246Y-16726168D02*
X6202722Y-16735692D01*
X6202722Y-16735692D02*
X6183674Y-16745216D01*
X6183674Y-16745216D02*
X6164627Y-16745216D01*
X6164627Y-16745216D02*
X6145579Y-16735692D01*
X6145579Y-16735692D02*
X6136055Y-16726168D01*
X6136055Y-16726168D02*
X6126531Y-16707120D01*
X6126531Y-16707120D02*
X6117008Y-16669025D01*
X6117008Y-16669025D02*
X6117008Y-16621406D01*
X6117008Y-16621406D02*
X6126531Y-16583311D01*
X6126531Y-16583311D02*
X6136055Y-16564263D01*
X6136055Y-16564263D02*
X6145579Y-16554739D01*
X6145579Y-16554739D02*
X6164627Y-16545216D01*
X6317008Y-16745216D02*
X6317008Y-16611882D01*
X6317008Y-16630930D02*
X6326531Y-16621406D01*
X6326531Y-16621406D02*
X6345579Y-16611882D01*
X6345579Y-16611882D02*
X6374150Y-16611882D01*
X6374150Y-16611882D02*
X6393198Y-16621406D01*
X6393198Y-16621406D02*
X6402722Y-16640454D01*
X6402722Y-16640454D02*
X6402722Y-16745216D01*
X6402722Y-16640454D02*
X6412246Y-16621406D01*
X6412246Y-16621406D02*
X6431293Y-16611882D01*
X6431293Y-16611882D02*
X6459865Y-16611882D01*
X6459865Y-16611882D02*
X6478912Y-16621406D01*
X6478912Y-16621406D02*
X6488436Y-16640454D01*
X6488436Y-16640454D02*
X6488436Y-16745216D01*
X6583674Y-16745216D02*
X6583674Y-16611882D01*
X6583674Y-16630930D02*
X6593198Y-16621406D01*
X6593198Y-16621406D02*
X6612246Y-16611882D01*
X6612246Y-16611882D02*
X6640817Y-16611882D01*
X6640817Y-16611882D02*
X6659865Y-16621406D01*
X6659865Y-16621406D02*
X6669389Y-16640454D01*
X6669389Y-16640454D02*
X6669389Y-16745216D01*
X6669389Y-16640454D02*
X6678912Y-16621406D01*
X6678912Y-16621406D02*
X6697960Y-16611882D01*
X6697960Y-16611882D02*
X6726531Y-16611882D01*
X6726531Y-16611882D02*
X6745579Y-16621406D01*
X6745579Y-16621406D02*
X6755103Y-16640454D01*
X6755103Y-16640454D02*
X6755103Y-16745216D01*
X7145579Y-16535692D02*
X6974151Y-16792835D01*
X7402722Y-16545216D02*
X7421770Y-16545216D01*
X7421770Y-16545216D02*
X7440817Y-16554739D01*
X7440817Y-16554739D02*
X7450341Y-16564263D01*
X7450341Y-16564263D02*
X7459865Y-16583311D01*
X7459865Y-16583311D02*
X7469389Y-16621406D01*
X7469389Y-16621406D02*
X7469389Y-16669025D01*
X7469389Y-16669025D02*
X7459865Y-16707120D01*
X7459865Y-16707120D02*
X7450341Y-16726168D01*
X7450341Y-16726168D02*
X7440817Y-16735692D01*
X7440817Y-16735692D02*
X7421770Y-16745216D01*
X7421770Y-16745216D02*
X7402722Y-16745216D01*
X7402722Y-16745216D02*
X7383674Y-16735692D01*
X7383674Y-16735692D02*
X7374151Y-16726168D01*
X7374151Y-16726168D02*
X7364627Y-16707120D01*
X7364627Y-16707120D02*
X7355103Y-16669025D01*
X7355103Y-16669025D02*
X7355103Y-16621406D01*
X7355103Y-16621406D02*
X7364627Y-16583311D01*
X7364627Y-16583311D02*
X7374151Y-16564263D01*
X7374151Y-16564263D02*
X7383674Y-16554739D01*
X7383674Y-16554739D02*
X7402722Y-16545216D01*
X7555103Y-16726168D02*
X7564627Y-16735692D01*
X7564627Y-16735692D02*
X7555103Y-16745216D01*
X7555103Y-16745216D02*
X7545579Y-16735692D01*
X7545579Y-16735692D02*
X7555103Y-16726168D01*
X7555103Y-16726168D02*
X7555103Y-16745216D01*
X7688436Y-16545216D02*
X7707484Y-16545216D01*
X7707484Y-16545216D02*
X7726532Y-16554739D01*
X7726532Y-16554739D02*
X7736055Y-16564263D01*
X7736055Y-16564263D02*
X7745579Y-16583311D01*
X7745579Y-16583311D02*
X7755103Y-16621406D01*
X7755103Y-16621406D02*
X7755103Y-16669025D01*
X7755103Y-16669025D02*
X7745579Y-16707120D01*
X7745579Y-16707120D02*
X7736055Y-16726168D01*
X7736055Y-16726168D02*
X7726532Y-16735692D01*
X7726532Y-16735692D02*
X7707484Y-16745216D01*
X7707484Y-16745216D02*
X7688436Y-16745216D01*
X7688436Y-16745216D02*
X7669389Y-16735692D01*
X7669389Y-16735692D02*
X7659865Y-16726168D01*
X7659865Y-16726168D02*
X7650341Y-16707120D01*
X7650341Y-16707120D02*
X7640817Y-16669025D01*
X7640817Y-16669025D02*
X7640817Y-16621406D01*
X7640817Y-16621406D02*
X7650341Y-16583311D01*
X7650341Y-16583311D02*
X7659865Y-16564263D01*
X7659865Y-16564263D02*
X7669389Y-16554739D01*
X7669389Y-16554739D02*
X7688436Y-16545216D01*
X7850341Y-16745216D02*
X7888436Y-16745216D01*
X7888436Y-16745216D02*
X7907484Y-16735692D01*
X7907484Y-16735692D02*
X7917008Y-16726168D01*
X7917008Y-16726168D02*
X7936055Y-16697597D01*
X7936055Y-16697597D02*
X7945579Y-16659501D01*
X7945579Y-16659501D02*
X7945579Y-16583311D01*
X7945579Y-16583311D02*
X7936055Y-16564263D01*
X7936055Y-16564263D02*
X7926532Y-16554739D01*
X7926532Y-16554739D02*
X7907484Y-16545216D01*
X7907484Y-16545216D02*
X7869389Y-16545216D01*
X7869389Y-16545216D02*
X7850341Y-16554739D01*
X7850341Y-16554739D02*
X7840817Y-16564263D01*
X7840817Y-16564263D02*
X7831293Y-16583311D01*
X7831293Y-16583311D02*
X7831293Y-16630930D01*
X7831293Y-16630930D02*
X7840817Y-16649978D01*
X7840817Y-16649978D02*
X7850341Y-16659501D01*
X7850341Y-16659501D02*
X7869389Y-16669025D01*
X7869389Y-16669025D02*
X7907484Y-16669025D01*
X7907484Y-16669025D02*
X7926532Y-16659501D01*
X7926532Y-16659501D02*
X7936055Y-16649978D01*
X7936055Y-16649978D02*
X7945579Y-16630930D01*
X8117008Y-16611882D02*
X8117008Y-16745216D01*
X8069389Y-16535692D02*
X8021770Y-16678549D01*
X8021770Y-16678549D02*
X8145579Y-16678549D01*
X8317008Y-16545216D02*
X8221770Y-16545216D01*
X8221770Y-16545216D02*
X8212246Y-16640454D01*
X8212246Y-16640454D02*
X8221770Y-16630930D01*
X8221770Y-16630930D02*
X8240817Y-16621406D01*
X8240817Y-16621406D02*
X8288436Y-16621406D01*
X8288436Y-16621406D02*
X8307484Y-16630930D01*
X8307484Y-16630930D02*
X8317008Y-16640454D01*
X8317008Y-16640454D02*
X8326532Y-16659501D01*
X8326532Y-16659501D02*
X8326532Y-16707120D01*
X8326532Y-16707120D02*
X8317008Y-16726168D01*
X8317008Y-16726168D02*
X8307484Y-16735692D01*
X8307484Y-16735692D02*
X8288436Y-16745216D01*
X8288436Y-16745216D02*
X8240817Y-16745216D01*
X8240817Y-16745216D02*
X8221770Y-16735692D01*
X8221770Y-16735692D02*
X8212246Y-16726168D01*
X8402722Y-16545216D02*
X8402722Y-16583311D01*
X8478913Y-16545216D02*
X8478913Y-16583311D01*
X8774151Y-16821406D02*
X8764627Y-16811882D01*
X8764627Y-16811882D02*
X8745579Y-16783311D01*
X8745579Y-16783311D02*
X8736056Y-16764263D01*
X8736056Y-16764263D02*
X8726532Y-16735692D01*
X8726532Y-16735692D02*
X8717008Y-16688073D01*
X8717008Y-16688073D02*
X8717008Y-16649978D01*
X8717008Y-16649978D02*
X8726532Y-16602358D01*
X8726532Y-16602358D02*
X8736056Y-16573787D01*
X8736056Y-16573787D02*
X8745579Y-16554739D01*
X8745579Y-16554739D02*
X8764627Y-16526168D01*
X8764627Y-16526168D02*
X8774151Y-16516644D01*
X8888436Y-16545216D02*
X8907484Y-16545216D01*
X8907484Y-16545216D02*
X8926532Y-16554739D01*
X8926532Y-16554739D02*
X8936056Y-16564263D01*
X8936056Y-16564263D02*
X8945579Y-16583311D01*
X8945579Y-16583311D02*
X8955103Y-16621406D01*
X8955103Y-16621406D02*
X8955103Y-16669025D01*
X8955103Y-16669025D02*
X8945579Y-16707120D01*
X8945579Y-16707120D02*
X8936056Y-16726168D01*
X8936056Y-16726168D02*
X8926532Y-16735692D01*
X8926532Y-16735692D02*
X8907484Y-16745216D01*
X8907484Y-16745216D02*
X8888436Y-16745216D01*
X8888436Y-16745216D02*
X8869389Y-16735692D01*
X8869389Y-16735692D02*
X8859865Y-16726168D01*
X8859865Y-16726168D02*
X8850341Y-16707120D01*
X8850341Y-16707120D02*
X8840817Y-16669025D01*
X8840817Y-16669025D02*
X8840817Y-16621406D01*
X8840817Y-16621406D02*
X8850341Y-16583311D01*
X8850341Y-16583311D02*
X8859865Y-16564263D01*
X8859865Y-16564263D02*
X8869389Y-16554739D01*
X8869389Y-16554739D02*
X8888436Y-16545216D01*
X9193198Y-16745216D02*
X9193198Y-16545216D01*
X9278913Y-16745216D02*
X9278913Y-16640454D01*
X9278913Y-16640454D02*
X9269389Y-16621406D01*
X9269389Y-16621406D02*
X9250341Y-16611882D01*
X9250341Y-16611882D02*
X9221770Y-16611882D01*
X9221770Y-16611882D02*
X9202722Y-16621406D01*
X9202722Y-16621406D02*
X9193198Y-16630930D01*
X9402722Y-16745216D02*
X9383675Y-16735692D01*
X9383675Y-16735692D02*
X9374151Y-16726168D01*
X9374151Y-16726168D02*
X9364627Y-16707120D01*
X9364627Y-16707120D02*
X9364627Y-16649978D01*
X9364627Y-16649978D02*
X9374151Y-16630930D01*
X9374151Y-16630930D02*
X9383675Y-16621406D01*
X9383675Y-16621406D02*
X9402722Y-16611882D01*
X9402722Y-16611882D02*
X9431294Y-16611882D01*
X9431294Y-16611882D02*
X9450341Y-16621406D01*
X9450341Y-16621406D02*
X9459865Y-16630930D01*
X9459865Y-16630930D02*
X9469389Y-16649978D01*
X9469389Y-16649978D02*
X9469389Y-16707120D01*
X9469389Y-16707120D02*
X9459865Y-16726168D01*
X9459865Y-16726168D02*
X9450341Y-16735692D01*
X9450341Y-16735692D02*
X9431294Y-16745216D01*
X9431294Y-16745216D02*
X9402722Y-16745216D01*
X9583675Y-16745216D02*
X9564627Y-16735692D01*
X9564627Y-16735692D02*
X9555103Y-16716644D01*
X9555103Y-16716644D02*
X9555103Y-16545216D01*
X9736056Y-16735692D02*
X9717008Y-16745216D01*
X9717008Y-16745216D02*
X9678913Y-16745216D01*
X9678913Y-16745216D02*
X9659865Y-16735692D01*
X9659865Y-16735692D02*
X9650341Y-16716644D01*
X9650341Y-16716644D02*
X9650341Y-16640454D01*
X9650341Y-16640454D02*
X9659865Y-16621406D01*
X9659865Y-16621406D02*
X9678913Y-16611882D01*
X9678913Y-16611882D02*
X9717008Y-16611882D01*
X9717008Y-16611882D02*
X9736056Y-16621406D01*
X9736056Y-16621406D02*
X9745579Y-16640454D01*
X9745579Y-16640454D02*
X9745579Y-16659501D01*
X9745579Y-16659501D02*
X9650341Y-16678549D01*
X9821770Y-16735692D02*
X9840818Y-16745216D01*
X9840818Y-16745216D02*
X9878913Y-16745216D01*
X9878913Y-16745216D02*
X9897960Y-16735692D01*
X9897960Y-16735692D02*
X9907484Y-16716644D01*
X9907484Y-16716644D02*
X9907484Y-16707120D01*
X9907484Y-16707120D02*
X9897960Y-16688073D01*
X9897960Y-16688073D02*
X9878913Y-16678549D01*
X9878913Y-16678549D02*
X9850341Y-16678549D01*
X9850341Y-16678549D02*
X9831294Y-16669025D01*
X9831294Y-16669025D02*
X9821770Y-16649978D01*
X9821770Y-16649978D02*
X9821770Y-16640454D01*
X9821770Y-16640454D02*
X9831294Y-16621406D01*
X9831294Y-16621406D02*
X9850341Y-16611882D01*
X9850341Y-16611882D02*
X9878913Y-16611882D01*
X9878913Y-16611882D02*
X9897960Y-16621406D01*
X10145580Y-16669025D02*
X10297961Y-16669025D01*
X10221770Y-16745216D02*
X10221770Y-16592835D01*
X10536056Y-16564263D02*
X10545580Y-16554739D01*
X10545580Y-16554739D02*
X10564627Y-16545216D01*
X10564627Y-16545216D02*
X10612246Y-16545216D01*
X10612246Y-16545216D02*
X10631294Y-16554739D01*
X10631294Y-16554739D02*
X10640818Y-16564263D01*
X10640818Y-16564263D02*
X10650341Y-16583311D01*
X10650341Y-16583311D02*
X10650341Y-16602358D01*
X10650341Y-16602358D02*
X10640818Y-16630930D01*
X10640818Y-16630930D02*
X10526532Y-16745216D01*
X10526532Y-16745216D02*
X10650341Y-16745216D01*
X10878913Y-16735692D02*
X10897961Y-16745216D01*
X10897961Y-16745216D02*
X10936056Y-16745216D01*
X10936056Y-16745216D02*
X10955103Y-16735692D01*
X10955103Y-16735692D02*
X10964627Y-16716644D01*
X10964627Y-16716644D02*
X10964627Y-16707120D01*
X10964627Y-16707120D02*
X10955103Y-16688073D01*
X10955103Y-16688073D02*
X10936056Y-16678549D01*
X10936056Y-16678549D02*
X10907484Y-16678549D01*
X10907484Y-16678549D02*
X10888437Y-16669025D01*
X10888437Y-16669025D02*
X10878913Y-16649978D01*
X10878913Y-16649978D02*
X10878913Y-16640454D01*
X10878913Y-16640454D02*
X10888437Y-16621406D01*
X10888437Y-16621406D02*
X10907484Y-16611882D01*
X10907484Y-16611882D02*
X10936056Y-16611882D01*
X10936056Y-16611882D02*
X10955103Y-16621406D01*
X11078913Y-16745216D02*
X11059865Y-16735692D01*
X11059865Y-16735692D02*
X11050342Y-16716644D01*
X11050342Y-16716644D02*
X11050342Y-16545216D01*
X11183675Y-16745216D02*
X11164627Y-16735692D01*
X11164627Y-16735692D02*
X11155103Y-16726168D01*
X11155103Y-16726168D02*
X11145580Y-16707120D01*
X11145580Y-16707120D02*
X11145580Y-16649978D01*
X11145580Y-16649978D02*
X11155103Y-16630930D01*
X11155103Y-16630930D02*
X11164627Y-16621406D01*
X11164627Y-16621406D02*
X11183675Y-16611882D01*
X11183675Y-16611882D02*
X11212246Y-16611882D01*
X11212246Y-16611882D02*
X11231294Y-16621406D01*
X11231294Y-16621406D02*
X11240818Y-16630930D01*
X11240818Y-16630930D02*
X11250341Y-16649978D01*
X11250341Y-16649978D02*
X11250341Y-16707120D01*
X11250341Y-16707120D02*
X11240818Y-16726168D01*
X11240818Y-16726168D02*
X11231294Y-16735692D01*
X11231294Y-16735692D02*
X11212246Y-16745216D01*
X11212246Y-16745216D02*
X11183675Y-16745216D01*
X11307484Y-16611882D02*
X11383675Y-16611882D01*
X11336056Y-16545216D02*
X11336056Y-16716644D01*
X11336056Y-16716644D02*
X11345580Y-16735692D01*
X11345580Y-16735692D02*
X11364627Y-16745216D01*
X11364627Y-16745216D02*
X11383675Y-16745216D01*
X11440818Y-16735692D02*
X11459865Y-16745216D01*
X11459865Y-16745216D02*
X11497960Y-16745216D01*
X11497960Y-16745216D02*
X11517008Y-16735692D01*
X11517008Y-16735692D02*
X11526532Y-16716644D01*
X11526532Y-16716644D02*
X11526532Y-16707120D01*
X11526532Y-16707120D02*
X11517008Y-16688073D01*
X11517008Y-16688073D02*
X11497960Y-16678549D01*
X11497960Y-16678549D02*
X11469389Y-16678549D01*
X11469389Y-16678549D02*
X11450341Y-16669025D01*
X11450341Y-16669025D02*
X11440818Y-16649978D01*
X11440818Y-16649978D02*
X11440818Y-16640454D01*
X11440818Y-16640454D02*
X11450341Y-16621406D01*
X11450341Y-16621406D02*
X11469389Y-16611882D01*
X11469389Y-16611882D02*
X11497960Y-16611882D01*
X11497960Y-16611882D02*
X11517008Y-16621406D01*
X11593199Y-16821406D02*
X11602722Y-16811882D01*
X11602722Y-16811882D02*
X11621770Y-16783311D01*
X11621770Y-16783311D02*
X11631294Y-16764263D01*
X11631294Y-16764263D02*
X11640818Y-16735692D01*
X11640818Y-16735692D02*
X11650341Y-16688073D01*
X11650341Y-16688073D02*
X11650341Y-16649978D01*
X11650341Y-16649978D02*
X11640818Y-16602358D01*
X11640818Y-16602358D02*
X11631294Y-16573787D01*
X11631294Y-16573787D02*
X11621770Y-16554739D01*
X11621770Y-16554739D02*
X11602722Y-16526168D01*
X11602722Y-16526168D02*
X11593199Y-16516644D01*
X4999088Y-16873732D02*
X5199088Y-17073732D01*
X5199088Y-16873732D02*
X4999088Y-17073732D01*
X5169799Y-17044443D02*
X5169799Y-16903021D01*
X5028377Y-16903021D01*
X5028377Y-17044443D01*
X5169799Y-17044443D01*
X5450341Y-16884263D02*
X5459865Y-16874740D01*
X5459865Y-16874740D02*
X5478912Y-16865216D01*
X5478912Y-16865216D02*
X5526531Y-16865216D01*
X5526531Y-16865216D02*
X5545579Y-16874740D01*
X5545579Y-16874740D02*
X5555103Y-16884263D01*
X5555103Y-16884263D02*
X5564627Y-16903311D01*
X5564627Y-16903311D02*
X5564627Y-16922359D01*
X5564627Y-16922359D02*
X5555103Y-16950930D01*
X5555103Y-16950930D02*
X5440817Y-17065216D01*
X5440817Y-17065216D02*
X5564627Y-17065216D01*
X5650341Y-17046168D02*
X5659865Y-17055692D01*
X5659865Y-17055692D02*
X5650341Y-17065216D01*
X5650341Y-17065216D02*
X5640817Y-17055692D01*
X5640817Y-17055692D02*
X5650341Y-17046168D01*
X5650341Y-17046168D02*
X5650341Y-17065216D01*
X5726531Y-16865216D02*
X5859865Y-16865216D01*
X5859865Y-16865216D02*
X5774150Y-17065216D01*
X5974150Y-16865216D02*
X5993198Y-16865216D01*
X5993198Y-16865216D02*
X6012246Y-16874740D01*
X6012246Y-16874740D02*
X6021769Y-16884263D01*
X6021769Y-16884263D02*
X6031293Y-16903311D01*
X6031293Y-16903311D02*
X6040817Y-16941406D01*
X6040817Y-16941406D02*
X6040817Y-16989025D01*
X6040817Y-16989025D02*
X6031293Y-17027120D01*
X6031293Y-17027120D02*
X6021769Y-17046168D01*
X6021769Y-17046168D02*
X6012246Y-17055692D01*
X6012246Y-17055692D02*
X5993198Y-17065216D01*
X5993198Y-17065216D02*
X5974150Y-17065216D01*
X5974150Y-17065216D02*
X5955103Y-17055692D01*
X5955103Y-17055692D02*
X5945579Y-17046168D01*
X5945579Y-17046168D02*
X5936055Y-17027120D01*
X5936055Y-17027120D02*
X5926531Y-16989025D01*
X5926531Y-16989025D02*
X5926531Y-16941406D01*
X5926531Y-16941406D02*
X5936055Y-16903311D01*
X5936055Y-16903311D02*
X5945579Y-16884263D01*
X5945579Y-16884263D02*
X5955103Y-16874740D01*
X5955103Y-16874740D02*
X5974150Y-16865216D01*
X6164627Y-16865216D02*
X6183674Y-16865216D01*
X6183674Y-16865216D02*
X6202722Y-16874740D01*
X6202722Y-16874740D02*
X6212246Y-16884263D01*
X6212246Y-16884263D02*
X6221769Y-16903311D01*
X6221769Y-16903311D02*
X6231293Y-16941406D01*
X6231293Y-16941406D02*
X6231293Y-16989025D01*
X6231293Y-16989025D02*
X6221769Y-17027120D01*
X6221769Y-17027120D02*
X6212246Y-17046168D01*
X6212246Y-17046168D02*
X6202722Y-17055692D01*
X6202722Y-17055692D02*
X6183674Y-17065216D01*
X6183674Y-17065216D02*
X6164627Y-17065216D01*
X6164627Y-17065216D02*
X6145579Y-17055692D01*
X6145579Y-17055692D02*
X6136055Y-17046168D01*
X6136055Y-17046168D02*
X6126531Y-17027120D01*
X6126531Y-17027120D02*
X6117008Y-16989025D01*
X6117008Y-16989025D02*
X6117008Y-16941406D01*
X6117008Y-16941406D02*
X6126531Y-16903311D01*
X6126531Y-16903311D02*
X6136055Y-16884263D01*
X6136055Y-16884263D02*
X6145579Y-16874740D01*
X6145579Y-16874740D02*
X6164627Y-16865216D01*
X6317008Y-17065216D02*
X6317008Y-16931882D01*
X6317008Y-16950930D02*
X6326531Y-16941406D01*
X6326531Y-16941406D02*
X6345579Y-16931882D01*
X6345579Y-16931882D02*
X6374150Y-16931882D01*
X6374150Y-16931882D02*
X6393198Y-16941406D01*
X6393198Y-16941406D02*
X6402722Y-16960454D01*
X6402722Y-16960454D02*
X6402722Y-17065216D01*
X6402722Y-16960454D02*
X6412246Y-16941406D01*
X6412246Y-16941406D02*
X6431293Y-16931882D01*
X6431293Y-16931882D02*
X6459865Y-16931882D01*
X6459865Y-16931882D02*
X6478912Y-16941406D01*
X6478912Y-16941406D02*
X6488436Y-16960454D01*
X6488436Y-16960454D02*
X6488436Y-17065216D01*
X6583674Y-17065216D02*
X6583674Y-16931882D01*
X6583674Y-16950930D02*
X6593198Y-16941406D01*
X6593198Y-16941406D02*
X6612246Y-16931882D01*
X6612246Y-16931882D02*
X6640817Y-16931882D01*
X6640817Y-16931882D02*
X6659865Y-16941406D01*
X6659865Y-16941406D02*
X6669389Y-16960454D01*
X6669389Y-16960454D02*
X6669389Y-17065216D01*
X6669389Y-16960454D02*
X6678912Y-16941406D01*
X6678912Y-16941406D02*
X6697960Y-16931882D01*
X6697960Y-16931882D02*
X6726531Y-16931882D01*
X6726531Y-16931882D02*
X6745579Y-16941406D01*
X6745579Y-16941406D02*
X6755103Y-16960454D01*
X6755103Y-16960454D02*
X6755103Y-17065216D01*
X7145579Y-16855692D02*
X6974151Y-17112835D01*
X7402722Y-16865216D02*
X7421770Y-16865216D01*
X7421770Y-16865216D02*
X7440817Y-16874740D01*
X7440817Y-16874740D02*
X7450341Y-16884263D01*
X7450341Y-16884263D02*
X7459865Y-16903311D01*
X7459865Y-16903311D02*
X7469389Y-16941406D01*
X7469389Y-16941406D02*
X7469389Y-16989025D01*
X7469389Y-16989025D02*
X7459865Y-17027120D01*
X7459865Y-17027120D02*
X7450341Y-17046168D01*
X7450341Y-17046168D02*
X7440817Y-17055692D01*
X7440817Y-17055692D02*
X7421770Y-17065216D01*
X7421770Y-17065216D02*
X7402722Y-17065216D01*
X7402722Y-17065216D02*
X7383674Y-17055692D01*
X7383674Y-17055692D02*
X7374151Y-17046168D01*
X7374151Y-17046168D02*
X7364627Y-17027120D01*
X7364627Y-17027120D02*
X7355103Y-16989025D01*
X7355103Y-16989025D02*
X7355103Y-16941406D01*
X7355103Y-16941406D02*
X7364627Y-16903311D01*
X7364627Y-16903311D02*
X7374151Y-16884263D01*
X7374151Y-16884263D02*
X7383674Y-16874740D01*
X7383674Y-16874740D02*
X7402722Y-16865216D01*
X7555103Y-17046168D02*
X7564627Y-17055692D01*
X7564627Y-17055692D02*
X7555103Y-17065216D01*
X7555103Y-17065216D02*
X7545579Y-17055692D01*
X7545579Y-17055692D02*
X7555103Y-17046168D01*
X7555103Y-17046168D02*
X7555103Y-17065216D01*
X7755103Y-17065216D02*
X7640817Y-17065216D01*
X7697960Y-17065216D02*
X7697960Y-16865216D01*
X7697960Y-16865216D02*
X7678912Y-16893787D01*
X7678912Y-16893787D02*
X7659865Y-16912835D01*
X7659865Y-16912835D02*
X7640817Y-16922359D01*
X7878912Y-16865216D02*
X7897960Y-16865216D01*
X7897960Y-16865216D02*
X7917008Y-16874740D01*
X7917008Y-16874740D02*
X7926532Y-16884263D01*
X7926532Y-16884263D02*
X7936055Y-16903311D01*
X7936055Y-16903311D02*
X7945579Y-16941406D01*
X7945579Y-16941406D02*
X7945579Y-16989025D01*
X7945579Y-16989025D02*
X7936055Y-17027120D01*
X7936055Y-17027120D02*
X7926532Y-17046168D01*
X7926532Y-17046168D02*
X7917008Y-17055692D01*
X7917008Y-17055692D02*
X7897960Y-17065216D01*
X7897960Y-17065216D02*
X7878912Y-17065216D01*
X7878912Y-17065216D02*
X7859865Y-17055692D01*
X7859865Y-17055692D02*
X7850341Y-17046168D01*
X7850341Y-17046168D02*
X7840817Y-17027120D01*
X7840817Y-17027120D02*
X7831293Y-16989025D01*
X7831293Y-16989025D02*
X7831293Y-16941406D01*
X7831293Y-16941406D02*
X7840817Y-16903311D01*
X7840817Y-16903311D02*
X7850341Y-16884263D01*
X7850341Y-16884263D02*
X7859865Y-16874740D01*
X7859865Y-16874740D02*
X7878912Y-16865216D01*
X8117008Y-16865216D02*
X8078912Y-16865216D01*
X8078912Y-16865216D02*
X8059865Y-16874740D01*
X8059865Y-16874740D02*
X8050341Y-16884263D01*
X8050341Y-16884263D02*
X8031293Y-16912835D01*
X8031293Y-16912835D02*
X8021770Y-16950930D01*
X8021770Y-16950930D02*
X8021770Y-17027120D01*
X8021770Y-17027120D02*
X8031293Y-17046168D01*
X8031293Y-17046168D02*
X8040817Y-17055692D01*
X8040817Y-17055692D02*
X8059865Y-17065216D01*
X8059865Y-17065216D02*
X8097960Y-17065216D01*
X8097960Y-17065216D02*
X8117008Y-17055692D01*
X8117008Y-17055692D02*
X8126532Y-17046168D01*
X8126532Y-17046168D02*
X8136055Y-17027120D01*
X8136055Y-17027120D02*
X8136055Y-16979501D01*
X8136055Y-16979501D02*
X8126532Y-16960454D01*
X8126532Y-16960454D02*
X8117008Y-16950930D01*
X8117008Y-16950930D02*
X8097960Y-16941406D01*
X8097960Y-16941406D02*
X8059865Y-16941406D01*
X8059865Y-16941406D02*
X8040817Y-16950930D01*
X8040817Y-16950930D02*
X8031293Y-16960454D01*
X8031293Y-16960454D02*
X8021770Y-16979501D01*
X8202722Y-16865216D02*
X8326532Y-16865216D01*
X8326532Y-16865216D02*
X8259865Y-16941406D01*
X8259865Y-16941406D02*
X8288436Y-16941406D01*
X8288436Y-16941406D02*
X8307484Y-16950930D01*
X8307484Y-16950930D02*
X8317008Y-16960454D01*
X8317008Y-16960454D02*
X8326532Y-16979501D01*
X8326532Y-16979501D02*
X8326532Y-17027120D01*
X8326532Y-17027120D02*
X8317008Y-17046168D01*
X8317008Y-17046168D02*
X8307484Y-17055692D01*
X8307484Y-17055692D02*
X8288436Y-17065216D01*
X8288436Y-17065216D02*
X8231293Y-17065216D01*
X8231293Y-17065216D02*
X8212246Y-17055692D01*
X8212246Y-17055692D02*
X8202722Y-17046168D01*
X8402722Y-16865216D02*
X8402722Y-16903311D01*
X8478913Y-16865216D02*
X8478913Y-16903311D01*
X8774151Y-17141406D02*
X8764627Y-17131882D01*
X8764627Y-17131882D02*
X8745579Y-17103311D01*
X8745579Y-17103311D02*
X8736056Y-17084263D01*
X8736056Y-17084263D02*
X8726532Y-17055692D01*
X8726532Y-17055692D02*
X8717008Y-17008073D01*
X8717008Y-17008073D02*
X8717008Y-16969978D01*
X8717008Y-16969978D02*
X8726532Y-16922359D01*
X8726532Y-16922359D02*
X8736056Y-16893787D01*
X8736056Y-16893787D02*
X8745579Y-16874740D01*
X8745579Y-16874740D02*
X8764627Y-16846168D01*
X8764627Y-16846168D02*
X8774151Y-16836644D01*
X8936056Y-16931882D02*
X8936056Y-17065216D01*
X8888436Y-16855692D02*
X8840817Y-16998549D01*
X8840817Y-16998549D02*
X8964627Y-16998549D01*
X9193198Y-17065216D02*
X9193198Y-16865216D01*
X9278913Y-17065216D02*
X9278913Y-16960454D01*
X9278913Y-16960454D02*
X9269389Y-16941406D01*
X9269389Y-16941406D02*
X9250341Y-16931882D01*
X9250341Y-16931882D02*
X9221770Y-16931882D01*
X9221770Y-16931882D02*
X9202722Y-16941406D01*
X9202722Y-16941406D02*
X9193198Y-16950930D01*
X9402722Y-17065216D02*
X9383675Y-17055692D01*
X9383675Y-17055692D02*
X9374151Y-17046168D01*
X9374151Y-17046168D02*
X9364627Y-17027120D01*
X9364627Y-17027120D02*
X9364627Y-16969978D01*
X9364627Y-16969978D02*
X9374151Y-16950930D01*
X9374151Y-16950930D02*
X9383675Y-16941406D01*
X9383675Y-16941406D02*
X9402722Y-16931882D01*
X9402722Y-16931882D02*
X9431294Y-16931882D01*
X9431294Y-16931882D02*
X9450341Y-16941406D01*
X9450341Y-16941406D02*
X9459865Y-16950930D01*
X9459865Y-16950930D02*
X9469389Y-16969978D01*
X9469389Y-16969978D02*
X9469389Y-17027120D01*
X9469389Y-17027120D02*
X9459865Y-17046168D01*
X9459865Y-17046168D02*
X9450341Y-17055692D01*
X9450341Y-17055692D02*
X9431294Y-17065216D01*
X9431294Y-17065216D02*
X9402722Y-17065216D01*
X9583675Y-17065216D02*
X9564627Y-17055692D01*
X9564627Y-17055692D02*
X9555103Y-17036644D01*
X9555103Y-17036644D02*
X9555103Y-16865216D01*
X9736056Y-17055692D02*
X9717008Y-17065216D01*
X9717008Y-17065216D02*
X9678913Y-17065216D01*
X9678913Y-17065216D02*
X9659865Y-17055692D01*
X9659865Y-17055692D02*
X9650341Y-17036644D01*
X9650341Y-17036644D02*
X9650341Y-16960454D01*
X9650341Y-16960454D02*
X9659865Y-16941406D01*
X9659865Y-16941406D02*
X9678913Y-16931882D01*
X9678913Y-16931882D02*
X9717008Y-16931882D01*
X9717008Y-16931882D02*
X9736056Y-16941406D01*
X9736056Y-16941406D02*
X9745579Y-16960454D01*
X9745579Y-16960454D02*
X9745579Y-16979501D01*
X9745579Y-16979501D02*
X9650341Y-16998549D01*
X9821770Y-17055692D02*
X9840818Y-17065216D01*
X9840818Y-17065216D02*
X9878913Y-17065216D01*
X9878913Y-17065216D02*
X9897960Y-17055692D01*
X9897960Y-17055692D02*
X9907484Y-17036644D01*
X9907484Y-17036644D02*
X9907484Y-17027120D01*
X9907484Y-17027120D02*
X9897960Y-17008073D01*
X9897960Y-17008073D02*
X9878913Y-16998549D01*
X9878913Y-16998549D02*
X9850341Y-16998549D01*
X9850341Y-16998549D02*
X9831294Y-16989025D01*
X9831294Y-16989025D02*
X9821770Y-16969978D01*
X9821770Y-16969978D02*
X9821770Y-16960454D01*
X9821770Y-16960454D02*
X9831294Y-16941406D01*
X9831294Y-16941406D02*
X9850341Y-16931882D01*
X9850341Y-16931882D02*
X9878913Y-16931882D01*
X9878913Y-16931882D02*
X9897960Y-16941406D01*
X9974151Y-17141406D02*
X9983675Y-17131882D01*
X9983675Y-17131882D02*
X10002722Y-17103311D01*
X10002722Y-17103311D02*
X10012246Y-17084263D01*
X10012246Y-17084263D02*
X10021770Y-17055692D01*
X10021770Y-17055692D02*
X10031294Y-17008073D01*
X10031294Y-17008073D02*
X10031294Y-16969978D01*
X10031294Y-16969978D02*
X10021770Y-16922359D01*
X10021770Y-16922359D02*
X10012246Y-16893787D01*
X10012246Y-16893787D02*
X10002722Y-16874740D01*
X10002722Y-16874740D02*
X9983675Y-16846168D01*
X9983675Y-16846168D02*
X9974151Y-16836644D01*
M02*
