M48
; DRILL file {KiCad 7.0.9} date Mon Oct  7 21:29:40 2024
; FORMAT={-:-/ absolute / metric / decimal}
; #@! TF.CreationDate,2024-10-07T21:29:40-04:00
; #@! TF.GenerationSoftware,Kicad,Pcbnew,7.0.9
; #@! TF.FileFunction,Plated,1,4,PTH
FMAT,2
METRIC
; #@! TA.AperFunction,Plated,PTH,ViaDrill
T1C0.305
; #@! TA.AperFunction,Plated,PTH,ViaDrill
T2C0.400
; #@! TA.AperFunction,Plated,PTH,ViaDrill
T3C0.610
; #@! TA.AperFunction,Plated,PTH,ComponentDrill
T4C1.100
; #@! TA.AperFunction,Plated,PTH,ComponentDrill
T5C1.200
; #@! TA.AperFunction,Plated,PTH,ComponentDrill
T6C1.600
; #@! TA.AperFunction,Plated,PTH,ComponentDrill
T7C2.400
; #@! TA.AperFunction,Plated,PTH,ComponentDrill
T8C2.700
%
G90
G05
T1
X78.359Y-91.44
X79.169Y-91.498
X81.28Y-123.444
X81.28Y-124.46
X82.296Y-123.444
X82.296Y-124.46
X82.296Y-125.476
X82.296Y-126.492
X82.296Y-127.635
X82.296Y-128.778
X82.296Y-129.794
X83.312Y-123.444
X83.312Y-124.46
X83.312Y-125.476
X83.312Y-126.492
X83.312Y-127.635
X83.312Y-128.778
X83.312Y-129.794
X83.566Y-130.937
X83.566Y-131.826
X83.566Y-132.715
X83.566Y-133.604
X83.566Y-136.906
X84.455Y-121.412
X84.455Y-122.428
X84.455Y-123.444
X84.455Y-124.46
X84.455Y-125.476
X84.455Y-126.492
X84.455Y-127.635
X84.455Y-128.778
X84.455Y-129.794
X84.455Y-130.937
X84.455Y-131.826
X84.455Y-132.715
X84.455Y-133.604
X84.455Y-136.906
X85.598Y-120.396
X85.598Y-121.412
X85.598Y-122.428
X85.598Y-123.444
X85.598Y-124.46
X85.598Y-125.476
X85.598Y-126.492
X85.598Y-127.635
X85.598Y-128.778
X85.598Y-129.794
X86.36Y-114.046
X86.36Y-114.808
X86.36Y-115.57
X86.36Y-116.332
X86.614Y-120.396
X86.614Y-121.412
X86.741Y-122.428
X86.741Y-123.444
X86.741Y-124.46
X86.741Y-125.476
X86.741Y-126.492
X86.741Y-127.635
X86.741Y-128.778
X86.741Y-129.794
X87.757Y-113.284
X88.138Y-110.617
X88.646Y-112.395
X88.9Y-111.506
X89.154Y-103.936
X89.811Y-103.459
X90.221Y-137.693
X91.034Y-137.693
X91.618Y-108.255
X91.669Y-111.531
X91.694Y-116.586
X91.708Y-113.386
X92.43Y-108.224
X92.456Y-116.586
X92.457Y-95.711
X92.583Y-112.752
X92.583Y-114.021
X93.269Y-95.682
X93.551Y-132.265
X94.311Y-100.076
X94.361Y-132.207
X95.123Y-100.076
X95.25Y-117.856
X96.012Y-117.856
X96.78Y-141.543
X97.358Y-137.084
X97.358Y-140.945
X97.765Y-99.289
X98.166Y-137.167
X98.603Y-98.552
X102.108Y-123.952
X102.108Y-127.0
X103.632Y-125.476
X104.013Y-112.776
X104.013Y-113.588
X105.156Y-123.952
X105.156Y-127.0
X108.05Y-114.3
X108.61Y-114.986
X109.047Y-114.3
X109.525Y-119.05
X109.525Y-119.862
X109.727Y-94.967
X110.617Y-94.996
X113.207Y-136.586
X113.919Y-137.18
X118.379Y-133.371
X118.694Y-137.312
X119.162Y-132.7
X119.253Y-127.762
X119.358Y-137.921
X119.405Y-126.961
X119.771Y-131.496
X119.942Y-135.444
X120.592Y-132.098
X120.701Y-131.369
X120.752Y-135.382
X120.762Y-132.893
X121.218Y-130.708
X122.955Y-126.946
X123.086Y-136.038
X123.162Y-135.23
X123.342Y-127.66
X123.902Y-128.286
X124.511Y-127.711
X124.888Y-132.588
X125.544Y-133.371
X125.815Y-122.209
X126.221Y-121.505
X127.432Y-121.844
X127.508Y-126.035
X127.584Y-127.788
X127.723Y-122.602
X128.194Y-125.324
X128.259Y-127.166
X129.54Y-134.442
X130.352Y-134.442
T2
X88.189Y-106.756
X94.031Y-138.989
T3
X71.374Y-95.377
X71.45Y-92.202
X74.041Y-99.568
X77.673Y-97.46
X78.613Y-116.205
X79.654Y-99.009
X85.141Y-91.617
X85.229Y-97.016
X93.345Y-91.897
X94.971Y-91.948
X95.823Y-140.936
X98.871Y-140.936
X100.076Y-136.195
X101.524Y-95.987
X106.731Y-109.576
X107.925Y-119.278
X108.458Y-138.938
X108.864Y-134.188
X111.176Y-134.823
X111.608Y-97.561
X112.331Y-125.032
X116.116Y-127.825
X119.088Y-130.188
X127.702Y-129.026
X130.471Y-131.845
X130.623Y-130.372
T4
X82.775Y-99.875
X85.275Y-99.875
X87.775Y-99.875
X90.275Y-99.875
T5
X65.532Y-97.108
X65.532Y-102.108
X65.532Y-108.03
X65.532Y-113.03
X65.532Y-118.872
X65.532Y-123.872
X65.532Y-129.794
X65.532Y-134.794
T6
X114.402Y-119.532
X116.942Y-102.032
X119.482Y-119.532
X122.022Y-102.032
X124.562Y-119.532
T8
X56.896Y-91.821
X56.896Y-139.776
X129.235Y-91.872
X129.235Y-139.776
T7
X112.082Y-109.082G85X112.082Y-108.982
G05
X126.882Y-109.082G85X126.882Y-108.982
G05
T0
M30
