G04 #@! TF.GenerationSoftware,KiCad,Pcbnew,7.0.9*
G04 #@! TF.CreationDate,2024-10-07T21:29:26-04:00*
G04 #@! TF.ProjectId,T12 soldering station V12,54313220-736f-46c6-9465-72696e672073,rev?*
G04 #@! TF.SameCoordinates,Original*
G04 #@! TF.FileFunction,Legend,Bot*
G04 #@! TF.FilePolarity,Positive*
%FSLAX46Y46*%
G04 Gerber Fmt 4.6, Leading zero omitted, Abs format (unit mm)*
G04 Created by KiCad (PCBNEW 7.0.9) date 2024-10-07 21:29:26*
%MOMM*%
%LPD*%
G01*
G04 APERTURE LIST*
G04 Aperture macros list*
%AMRoundRect*
0 Rectangle with rounded corners*
0 $1 Rounding radius*
0 $2 $3 $4 $5 $6 $7 $8 $9 X,Y pos of 4 corners*
0 Add a 4 corners polygon primitive as box body*
4,1,4,$2,$3,$4,$5,$6,$7,$8,$9,$2,$3,0*
0 Add four circle primitives for the rounded corners*
1,1,$1+$1,$2,$3*
1,1,$1+$1,$4,$5*
1,1,$1+$1,$6,$7*
1,1,$1+$1,$8,$9*
0 Add four rect primitives between the rounded corners*
20,1,$1+$1,$2,$3,$4,$5,0*
20,1,$1+$1,$4,$5,$6,$7,0*
20,1,$1+$1,$6,$7,$8,$9,0*
20,1,$1+$1,$8,$9,$2,$3,0*%
G04 Aperture macros list end*
%ADD10C,0.152400*%
%ADD11C,0.250000*%
%ADD12C,0.100000*%
%ADD13C,0.120000*%
%ADD14C,3.100000*%
%ADD15C,5.400000*%
%ADD16C,2.000000*%
%ADD17O,3.200000X3.500000*%
%ADD18C,2.500000*%
%ADD19C,2.100000*%
%ADD20RoundRect,0.218750X-0.256250X0.218750X-0.256250X-0.218750X0.256250X-0.218750X0.256250X0.218750X0*%
%ADD21R,1.900000X1.300000*%
G04 APERTURE END LIST*
D10*
X92160647Y-91770015D02*
X92732075Y-91770015D01*
X92446361Y-91770015D02*
X92446361Y-90754015D01*
X92446361Y-90754015D02*
X92541599Y-90899158D01*
X92541599Y-90899158D02*
X92636837Y-90995920D01*
X92636837Y-90995920D02*
X92732075Y-91044301D01*
X91779694Y-90850777D02*
X91732075Y-90802396D01*
X91732075Y-90802396D02*
X91636837Y-90754015D01*
X91636837Y-90754015D02*
X91398742Y-90754015D01*
X91398742Y-90754015D02*
X91303504Y-90802396D01*
X91303504Y-90802396D02*
X91255885Y-90850777D01*
X91255885Y-90850777D02*
X91208266Y-90947539D01*
X91208266Y-90947539D02*
X91208266Y-91044301D01*
X91208266Y-91044301D02*
X91255885Y-91189444D01*
X91255885Y-91189444D02*
X91827313Y-91770015D01*
X91827313Y-91770015D02*
X91208266Y-91770015D01*
X90922551Y-90754015D02*
X90589218Y-91770015D01*
X90589218Y-91770015D02*
X90255885Y-90754015D01*
X110659704Y-113593695D02*
X110659704Y-114416172D01*
X110659704Y-114416172D02*
X110612085Y-114512934D01*
X110612085Y-114512934D02*
X110564466Y-114561315D01*
X110564466Y-114561315D02*
X110469228Y-114609695D01*
X110469228Y-114609695D02*
X110278752Y-114609695D01*
X110278752Y-114609695D02*
X110183514Y-114561315D01*
X110183514Y-114561315D02*
X110135895Y-114512934D01*
X110135895Y-114512934D02*
X110088276Y-114416172D01*
X110088276Y-114416172D02*
X110088276Y-113593695D01*
X109659704Y-114561315D02*
X109516847Y-114609695D01*
X109516847Y-114609695D02*
X109278752Y-114609695D01*
X109278752Y-114609695D02*
X109183514Y-114561315D01*
X109183514Y-114561315D02*
X109135895Y-114512934D01*
X109135895Y-114512934D02*
X109088276Y-114416172D01*
X109088276Y-114416172D02*
X109088276Y-114319410D01*
X109088276Y-114319410D02*
X109135895Y-114222648D01*
X109135895Y-114222648D02*
X109183514Y-114174267D01*
X109183514Y-114174267D02*
X109278752Y-114125886D01*
X109278752Y-114125886D02*
X109469228Y-114077505D01*
X109469228Y-114077505D02*
X109564466Y-114029124D01*
X109564466Y-114029124D02*
X109612085Y-113980743D01*
X109612085Y-113980743D02*
X109659704Y-113883981D01*
X109659704Y-113883981D02*
X109659704Y-113787219D01*
X109659704Y-113787219D02*
X109612085Y-113690457D01*
X109612085Y-113690457D02*
X109564466Y-113642076D01*
X109564466Y-113642076D02*
X109469228Y-113593695D01*
X109469228Y-113593695D02*
X109231133Y-113593695D01*
X109231133Y-113593695D02*
X109088276Y-113642076D01*
X108088276Y-114609695D02*
X108421609Y-114125886D01*
X108659704Y-114609695D02*
X108659704Y-113593695D01*
X108659704Y-113593695D02*
X108278752Y-113593695D01*
X108278752Y-113593695D02*
X108183514Y-113642076D01*
X108183514Y-113642076D02*
X108135895Y-113690457D01*
X108135895Y-113690457D02*
X108088276Y-113787219D01*
X108088276Y-113787219D02*
X108088276Y-113932362D01*
X108088276Y-113932362D02*
X108135895Y-114029124D01*
X108135895Y-114029124D02*
X108183514Y-114077505D01*
X108183514Y-114077505D02*
X108278752Y-114125886D01*
X108278752Y-114125886D02*
X108659704Y-114125886D01*
X96507276Y-90784495D02*
X96983466Y-90784495D01*
X96983466Y-90784495D02*
X97031085Y-91268305D01*
X97031085Y-91268305D02*
X96983466Y-91219924D01*
X96983466Y-91219924D02*
X96888228Y-91171543D01*
X96888228Y-91171543D02*
X96650133Y-91171543D01*
X96650133Y-91171543D02*
X96554895Y-91219924D01*
X96554895Y-91219924D02*
X96507276Y-91268305D01*
X96507276Y-91268305D02*
X96459657Y-91365067D01*
X96459657Y-91365067D02*
X96459657Y-91606972D01*
X96459657Y-91606972D02*
X96507276Y-91703734D01*
X96507276Y-91703734D02*
X96554895Y-91752115D01*
X96554895Y-91752115D02*
X96650133Y-91800495D01*
X96650133Y-91800495D02*
X96888228Y-91800495D01*
X96888228Y-91800495D02*
X96983466Y-91752115D01*
X96983466Y-91752115D02*
X97031085Y-91703734D01*
X96173942Y-90784495D02*
X95840609Y-91800495D01*
X95840609Y-91800495D02*
X95507276Y-90784495D01*
X120814932Y-98446115D02*
X120672075Y-98494495D01*
X120672075Y-98494495D02*
X120433980Y-98494495D01*
X120433980Y-98494495D02*
X120338742Y-98446115D01*
X120338742Y-98446115D02*
X120291123Y-98397734D01*
X120291123Y-98397734D02*
X120243504Y-98300972D01*
X120243504Y-98300972D02*
X120243504Y-98204210D01*
X120243504Y-98204210D02*
X120291123Y-98107448D01*
X120291123Y-98107448D02*
X120338742Y-98059067D01*
X120338742Y-98059067D02*
X120433980Y-98010686D01*
X120433980Y-98010686D02*
X120624456Y-97962305D01*
X120624456Y-97962305D02*
X120719694Y-97913924D01*
X120719694Y-97913924D02*
X120767313Y-97865543D01*
X120767313Y-97865543D02*
X120814932Y-97768781D01*
X120814932Y-97768781D02*
X120814932Y-97672019D01*
X120814932Y-97672019D02*
X120767313Y-97575257D01*
X120767313Y-97575257D02*
X120719694Y-97526876D01*
X120719694Y-97526876D02*
X120624456Y-97478495D01*
X120624456Y-97478495D02*
X120386361Y-97478495D01*
X120386361Y-97478495D02*
X120243504Y-97526876D01*
X119910170Y-97478495D02*
X119672075Y-98494495D01*
X119672075Y-98494495D02*
X119481599Y-97768781D01*
X119481599Y-97768781D02*
X119291123Y-98494495D01*
X119291123Y-98494495D02*
X119053028Y-97478495D01*
X118148266Y-98494495D02*
X118719694Y-98494495D01*
X118433980Y-98494495D02*
X118433980Y-97478495D01*
X118433980Y-97478495D02*
X118529218Y-97623638D01*
X118529218Y-97623638D02*
X118624456Y-97720400D01*
X118624456Y-97720400D02*
X118719694Y-97768781D01*
X88591666Y-97712095D02*
X89067856Y-97712095D01*
X89067856Y-97712095D02*
X89067856Y-96696095D01*
X87686904Y-97615334D02*
X87734523Y-97663715D01*
X87734523Y-97663715D02*
X87877380Y-97712095D01*
X87877380Y-97712095D02*
X87972618Y-97712095D01*
X87972618Y-97712095D02*
X88115475Y-97663715D01*
X88115475Y-97663715D02*
X88210713Y-97566953D01*
X88210713Y-97566953D02*
X88258332Y-97470191D01*
X88258332Y-97470191D02*
X88305951Y-97276667D01*
X88305951Y-97276667D02*
X88305951Y-97131524D01*
X88305951Y-97131524D02*
X88258332Y-96938000D01*
X88258332Y-96938000D02*
X88210713Y-96841238D01*
X88210713Y-96841238D02*
X88115475Y-96744476D01*
X88115475Y-96744476D02*
X87972618Y-96696095D01*
X87972618Y-96696095D02*
X87877380Y-96696095D01*
X87877380Y-96696095D02*
X87734523Y-96744476D01*
X87734523Y-96744476D02*
X87686904Y-96792857D01*
X87258332Y-97712095D02*
X87258332Y-96696095D01*
X87258332Y-96696095D02*
X87020237Y-96696095D01*
X87020237Y-96696095D02*
X86877380Y-96744476D01*
X86877380Y-96744476D02*
X86782142Y-96841238D01*
X86782142Y-96841238D02*
X86734523Y-96938000D01*
X86734523Y-96938000D02*
X86686904Y-97131524D01*
X86686904Y-97131524D02*
X86686904Y-97276667D01*
X86686904Y-97276667D02*
X86734523Y-97470191D01*
X86734523Y-97470191D02*
X86782142Y-97566953D01*
X86782142Y-97566953D02*
X86877380Y-97663715D01*
X86877380Y-97663715D02*
X87020237Y-97712095D01*
X87020237Y-97712095D02*
X87258332Y-97712095D01*
X85734523Y-97712095D02*
X86305951Y-97712095D01*
X86020237Y-97712095D02*
X86020237Y-96696095D01*
X86020237Y-96696095D02*
X86115475Y-96841238D01*
X86115475Y-96841238D02*
X86210713Y-96938000D01*
X86210713Y-96938000D02*
X86305951Y-96986381D01*
X96038894Y-96372495D02*
X96038894Y-95356495D01*
X96038894Y-95356495D02*
X95800799Y-95356495D01*
X95800799Y-95356495D02*
X95657942Y-95404876D01*
X95657942Y-95404876D02*
X95562704Y-95501638D01*
X95562704Y-95501638D02*
X95515085Y-95598400D01*
X95515085Y-95598400D02*
X95467466Y-95791924D01*
X95467466Y-95791924D02*
X95467466Y-95937067D01*
X95467466Y-95937067D02*
X95515085Y-96130591D01*
X95515085Y-96130591D02*
X95562704Y-96227353D01*
X95562704Y-96227353D02*
X95657942Y-96324115D01*
X95657942Y-96324115D02*
X95800799Y-96372495D01*
X95800799Y-96372495D02*
X96038894Y-96372495D01*
X94610323Y-95356495D02*
X94800799Y-95356495D01*
X94800799Y-95356495D02*
X94896037Y-95404876D01*
X94896037Y-95404876D02*
X94943656Y-95453257D01*
X94943656Y-95453257D02*
X95038894Y-95598400D01*
X95038894Y-95598400D02*
X95086513Y-95791924D01*
X95086513Y-95791924D02*
X95086513Y-96178972D01*
X95086513Y-96178972D02*
X95038894Y-96275734D01*
X95038894Y-96275734D02*
X94991275Y-96324115D01*
X94991275Y-96324115D02*
X94896037Y-96372495D01*
X94896037Y-96372495D02*
X94705561Y-96372495D01*
X94705561Y-96372495D02*
X94610323Y-96324115D01*
X94610323Y-96324115D02*
X94562704Y-96275734D01*
X94562704Y-96275734D02*
X94515085Y-96178972D01*
X94515085Y-96178972D02*
X94515085Y-95937067D01*
X94515085Y-95937067D02*
X94562704Y-95840305D01*
X94562704Y-95840305D02*
X94610323Y-95791924D01*
X94610323Y-95791924D02*
X94705561Y-95743543D01*
X94705561Y-95743543D02*
X94896037Y-95743543D01*
X94896037Y-95743543D02*
X94991275Y-95791924D01*
X94991275Y-95791924D02*
X95038894Y-95840305D01*
X95038894Y-95840305D02*
X95086513Y-95937067D01*
X93488094Y-96412095D02*
X93488094Y-95396095D01*
X93488094Y-95396095D02*
X93249999Y-95396095D01*
X93249999Y-95396095D02*
X93107142Y-95444476D01*
X93107142Y-95444476D02*
X93011904Y-95541238D01*
X93011904Y-95541238D02*
X92964285Y-95638000D01*
X92964285Y-95638000D02*
X92916666Y-95831524D01*
X92916666Y-95831524D02*
X92916666Y-95976667D01*
X92916666Y-95976667D02*
X92964285Y-96170191D01*
X92964285Y-96170191D02*
X93011904Y-96266953D01*
X93011904Y-96266953D02*
X93107142Y-96363715D01*
X93107142Y-96363715D02*
X93249999Y-96412095D01*
X93249999Y-96412095D02*
X93488094Y-96412095D01*
X92011904Y-95396095D02*
X92488094Y-95396095D01*
X92488094Y-95396095D02*
X92535713Y-95879905D01*
X92535713Y-95879905D02*
X92488094Y-95831524D01*
X92488094Y-95831524D02*
X92392856Y-95783143D01*
X92392856Y-95783143D02*
X92154761Y-95783143D01*
X92154761Y-95783143D02*
X92059523Y-95831524D01*
X92059523Y-95831524D02*
X92011904Y-95879905D01*
X92011904Y-95879905D02*
X91964285Y-95976667D01*
X91964285Y-95976667D02*
X91964285Y-96218572D01*
X91964285Y-96218572D02*
X92011904Y-96315334D01*
X92011904Y-96315334D02*
X92059523Y-96363715D01*
X92059523Y-96363715D02*
X92154761Y-96412095D01*
X92154761Y-96412095D02*
X92392856Y-96412095D01*
X92392856Y-96412095D02*
X92488094Y-96363715D01*
X92488094Y-96363715D02*
X92535713Y-96315334D01*
X107047732Y-91740315D02*
X106904875Y-91788695D01*
X106904875Y-91788695D02*
X106666780Y-91788695D01*
X106666780Y-91788695D02*
X106571542Y-91740315D01*
X106571542Y-91740315D02*
X106523923Y-91691934D01*
X106523923Y-91691934D02*
X106476304Y-91595172D01*
X106476304Y-91595172D02*
X106476304Y-91498410D01*
X106476304Y-91498410D02*
X106523923Y-91401648D01*
X106523923Y-91401648D02*
X106571542Y-91353267D01*
X106571542Y-91353267D02*
X106666780Y-91304886D01*
X106666780Y-91304886D02*
X106857256Y-91256505D01*
X106857256Y-91256505D02*
X106952494Y-91208124D01*
X106952494Y-91208124D02*
X107000113Y-91159743D01*
X107000113Y-91159743D02*
X107047732Y-91062981D01*
X107047732Y-91062981D02*
X107047732Y-90966219D01*
X107047732Y-90966219D02*
X107000113Y-90869457D01*
X107000113Y-90869457D02*
X106952494Y-90821076D01*
X106952494Y-90821076D02*
X106857256Y-90772695D01*
X106857256Y-90772695D02*
X106619161Y-90772695D01*
X106619161Y-90772695D02*
X106476304Y-90821076D01*
X106142970Y-90772695D02*
X105904875Y-91788695D01*
X105904875Y-91788695D02*
X105714399Y-91062981D01*
X105714399Y-91062981D02*
X105523923Y-91788695D01*
X105523923Y-91788695D02*
X105285828Y-90772695D01*
X104952494Y-90869457D02*
X104904875Y-90821076D01*
X104904875Y-90821076D02*
X104809637Y-90772695D01*
X104809637Y-90772695D02*
X104571542Y-90772695D01*
X104571542Y-90772695D02*
X104476304Y-90821076D01*
X104476304Y-90821076D02*
X104428685Y-90869457D01*
X104428685Y-90869457D02*
X104381066Y-90966219D01*
X104381066Y-90966219D02*
X104381066Y-91062981D01*
X104381066Y-91062981D02*
X104428685Y-91208124D01*
X104428685Y-91208124D02*
X105000113Y-91788695D01*
X105000113Y-91788695D02*
X104381066Y-91788695D01*
X110288094Y-119737095D02*
X110288094Y-118721095D01*
X110288094Y-118721095D02*
X110049999Y-118721095D01*
X110049999Y-118721095D02*
X109907142Y-118769476D01*
X109907142Y-118769476D02*
X109811904Y-118866238D01*
X109811904Y-118866238D02*
X109764285Y-118963000D01*
X109764285Y-118963000D02*
X109716666Y-119156524D01*
X109716666Y-119156524D02*
X109716666Y-119301667D01*
X109716666Y-119301667D02*
X109764285Y-119495191D01*
X109764285Y-119495191D02*
X109811904Y-119591953D01*
X109811904Y-119591953D02*
X109907142Y-119688715D01*
X109907142Y-119688715D02*
X110049999Y-119737095D01*
X110049999Y-119737095D02*
X110288094Y-119737095D01*
X109240475Y-119737095D02*
X109049999Y-119737095D01*
X109049999Y-119737095D02*
X108954761Y-119688715D01*
X108954761Y-119688715D02*
X108907142Y-119640334D01*
X108907142Y-119640334D02*
X108811904Y-119495191D01*
X108811904Y-119495191D02*
X108764285Y-119301667D01*
X108764285Y-119301667D02*
X108764285Y-118914619D01*
X108764285Y-118914619D02*
X108811904Y-118817857D01*
X108811904Y-118817857D02*
X108859523Y-118769476D01*
X108859523Y-118769476D02*
X108954761Y-118721095D01*
X108954761Y-118721095D02*
X109145237Y-118721095D01*
X109145237Y-118721095D02*
X109240475Y-118769476D01*
X109240475Y-118769476D02*
X109288094Y-118817857D01*
X109288094Y-118817857D02*
X109335713Y-118914619D01*
X109335713Y-118914619D02*
X109335713Y-119156524D01*
X109335713Y-119156524D02*
X109288094Y-119253286D01*
X109288094Y-119253286D02*
X109240475Y-119301667D01*
X109240475Y-119301667D02*
X109145237Y-119350048D01*
X109145237Y-119350048D02*
X108954761Y-119350048D01*
X108954761Y-119350048D02*
X108859523Y-119301667D01*
X108859523Y-119301667D02*
X108811904Y-119253286D01*
X108811904Y-119253286D02*
X108764285Y-119156524D01*
D11*
X127481600Y-110912400D02*
X127481600Y-117732400D01*
X127481600Y-100332400D02*
X127481600Y-107152400D01*
X127481600Y-100332400D02*
X111481600Y-100332400D01*
X127351600Y-105222400D02*
X122021600Y-105222400D01*
X122021600Y-112842400D02*
X127351600Y-112842400D01*
X121481600Y-121232400D02*
X117481600Y-121232400D01*
X121481600Y-117732400D02*
X121481600Y-121232400D01*
X121001600Y-107512400D02*
X117961600Y-107512400D01*
X120501600Y-108012400D02*
X121001600Y-107512400D01*
X118461600Y-108012400D02*
X120501600Y-108012400D01*
X117961600Y-107512400D02*
X118461600Y-108012400D01*
X117481600Y-121232400D02*
X117461600Y-117732400D01*
X116941600Y-105222400D02*
X111611600Y-105222400D01*
X111611600Y-112842400D02*
X116941600Y-112842400D01*
X111481600Y-117732400D02*
X127481600Y-117732400D01*
X111481600Y-110912400D02*
X111481600Y-117732400D01*
X111481600Y-100332400D02*
X111481600Y-107152400D01*
X117958084Y-107515790D02*
G75*
G03*
X121001600Y-107512400I1523516J-1576610D01*
G01*
X120996655Y-107508708D02*
G75*
G03*
X117961600Y-107512401I-1515055J-2033692D01*
G01*
X122891600Y-109032400D02*
G75*
G03*
X122891600Y-109032400I-3410000J0D01*
G01*
X124061600Y-109032400D02*
G75*
G03*
X124061600Y-109032400I-4580000J0D01*
G01*
D12*
X100108600Y-125275000D02*
X100108600Y-124775000D01*
X100108600Y-125275000D02*
X99608600Y-125275000D01*
X100007000Y-97999400D02*
X100007000Y-98499400D01*
X100007000Y-97999400D02*
X99507000Y-97999400D01*
X73032200Y-97893800D02*
X73532200Y-97893800D01*
X73032200Y-97893800D02*
X73032200Y-98393800D01*
X72985400Y-125325800D02*
X73485400Y-125325800D01*
X72985400Y-125325800D02*
X72985400Y-124825800D01*
D13*
X95705600Y-92342600D02*
X95705600Y-94627600D01*
X94235600Y-92342600D02*
X95705600Y-92342600D01*
X94235600Y-94627600D02*
X94235600Y-92342600D01*
X94080000Y-92342600D02*
X94080000Y-94627600D01*
X92610000Y-92342600D02*
X94080000Y-92342600D01*
X92610000Y-94627600D02*
X92610000Y-92342600D01*
D11*
X108739400Y-98401600D02*
X108739400Y-92301600D01*
X108739400Y-92301600D02*
X102709400Y-92301600D01*
X102709400Y-98401600D02*
X108739400Y-98401600D01*
X102709400Y-92301600D02*
X102709400Y-98401600D01*
X108289400Y-97491600D02*
G75*
G03*
X108289400Y-97491600I-460000J0D01*
G01*
X108289400Y-93251600D02*
G75*
G03*
X108289400Y-93251600I-460000J0D01*
G01*
X107219400Y-95351600D02*
G75*
G03*
X107219400Y-95351600I-1530000J0D01*
G01*
X104079400Y-93251600D02*
G75*
G03*
X104079400Y-93251600I-460000J0D01*
G01*
X103989400Y-97531600D02*
G75*
G03*
X103989400Y-97531600I-460000J0D01*
G01*
D13*
X110214400Y-115649000D02*
X110214400Y-117934000D01*
X108744400Y-115649000D02*
X110214400Y-115649000D01*
X108744400Y-117934000D02*
X108744400Y-115649000D01*
%LPC*%
D14*
X129235200Y-139776200D03*
D15*
X129235200Y-139776200D03*
D14*
X129235200Y-91871800D03*
D15*
X129235200Y-91871800D03*
D16*
X65532000Y-118872000D03*
X65532000Y-123872000D03*
X65532000Y-108030000D03*
X65532000Y-113030000D03*
D14*
X56896000Y-139776200D03*
D15*
X56896000Y-139776200D03*
D14*
X56896000Y-91821000D03*
D15*
X56896000Y-91821000D03*
D16*
X65532000Y-129794000D03*
X65532000Y-134794000D03*
X65532000Y-97108000D03*
X65532000Y-102108000D03*
D17*
X126881600Y-109032400D03*
X112081600Y-109032400D03*
D18*
X124561600Y-119532400D03*
X119481600Y-119532400D03*
X114401600Y-119532400D03*
X122021600Y-102032400D03*
X116941600Y-102032400D03*
D19*
X90275000Y-99875000D03*
X87775000Y-99875000D03*
X85275000Y-99875000D03*
X82775000Y-99875000D03*
D20*
X94970600Y-93040100D03*
X94970600Y-94615100D03*
X93345000Y-93040100D03*
X93345000Y-94615100D03*
D21*
X109889400Y-93101600D03*
X101489400Y-93101600D03*
X109889400Y-97601600D03*
X101489400Y-97601600D03*
D20*
X109479400Y-116346500D03*
X109479400Y-117921500D03*
%LPD*%
M02*
