G04 #@! TF.GenerationSoftware,KiCad,Pcbnew,7.0.9*
G04 #@! TF.CreationDate,2024-10-07T21:29:26-04:00*
G04 #@! TF.ProjectId,T12 soldering station V12,54313220-736f-46c6-9465-72696e672073,rev?*
G04 #@! TF.SameCoordinates,Original*
G04 #@! TF.FileFunction,Copper,L2,Inr*
G04 #@! TF.FilePolarity,Positive*
%FSLAX46Y46*%
G04 Gerber Fmt 4.6, Leading zero omitted, Abs format (unit mm)*
G04 Created by KiCad (PCBNEW 7.0.9) date 2024-10-07 21:29:26*
%MOMM*%
%LPD*%
G01*
G04 APERTURE LIST*
G04 #@! TA.AperFunction,ComponentPad*
%ADD10C,3.100000*%
G04 #@! TD*
G04 #@! TA.AperFunction,ComponentPad*
%ADD11C,2.000000*%
G04 #@! TD*
G04 #@! TA.AperFunction,ComponentPad*
%ADD12O,3.200000X3.500000*%
G04 #@! TD*
G04 #@! TA.AperFunction,ComponentPad*
%ADD13C,2.500000*%
G04 #@! TD*
G04 #@! TA.AperFunction,ComponentPad*
%ADD14C,2.100000*%
G04 #@! TD*
G04 #@! TA.AperFunction,ViaPad*
%ADD15C,0.609600*%
G04 #@! TD*
G04 #@! TA.AperFunction,ViaPad*
%ADD16C,0.914400*%
G04 #@! TD*
G04 #@! TA.AperFunction,ViaPad*
%ADD17C,0.800000*%
G04 #@! TD*
G04 APERTURE END LIST*
D10*
X129235200Y-139776200D03*
X129235200Y-91871800D03*
D11*
X65532000Y-118872000D03*
X65532000Y-123872000D03*
X65532000Y-108030000D03*
X65532000Y-113030000D03*
D10*
X56896000Y-139776200D03*
X56896000Y-91821000D03*
D11*
X65532000Y-129794000D03*
X65532000Y-134794000D03*
X65532000Y-97108000D03*
X65532000Y-102108000D03*
D12*
X126881600Y-109032400D03*
X112081600Y-109032400D03*
D13*
X124561600Y-119532400D03*
X119481600Y-119532400D03*
X114401600Y-119532400D03*
X122021600Y-102032400D03*
X116941600Y-102032400D03*
D14*
X90275000Y-99875000D03*
X87775000Y-99875000D03*
X85275000Y-99875000D03*
X82775000Y-99875000D03*
D15*
X119161800Y-132700000D03*
X104013000Y-112776000D03*
X85598000Y-120396000D03*
X84455000Y-126492000D03*
X82296000Y-129794000D03*
X86614000Y-120396000D03*
X128258514Y-127166088D03*
D16*
X95823200Y-140936300D03*
X106730800Y-109575600D03*
D15*
X84455000Y-125476000D03*
X102108000Y-127000000D03*
D16*
X71450200Y-92202000D03*
D15*
X83312000Y-129794000D03*
X92456000Y-116586000D03*
X92457015Y-95710792D03*
D16*
X98871200Y-140936300D03*
X93345000Y-91897200D03*
D15*
X84455000Y-130937000D03*
X89154000Y-103936303D03*
X82296000Y-128778000D03*
X91694000Y-116586000D03*
D16*
X78613000Y-116205000D03*
D15*
X82296000Y-126492000D03*
X104013000Y-113588303D03*
X83312000Y-125476000D03*
X113207222Y-136585981D03*
D16*
X111175800Y-134823200D03*
D15*
X128193800Y-125323600D03*
X90221297Y-137692900D03*
D16*
X116116100Y-127825500D03*
D15*
X85598000Y-127635000D03*
X84455000Y-128778000D03*
X120592283Y-132098383D03*
X84455000Y-121412000D03*
X83566000Y-132715000D03*
X85598000Y-124460000D03*
X109524800Y-119862103D03*
D16*
X74041000Y-99568000D03*
D15*
X86741000Y-124460000D03*
X83566000Y-136906000D03*
X105156000Y-123952000D03*
D16*
X79654400Y-99009200D03*
D15*
X81280000Y-124460000D03*
X109046505Y-114300492D03*
X127723399Y-122601959D03*
X85598000Y-128778000D03*
X84455000Y-133604000D03*
X85598000Y-121412000D03*
X98602800Y-98552000D03*
D17*
X88188800Y-106756200D03*
D16*
X127702200Y-129026000D03*
D15*
X83312000Y-128778000D03*
X91668600Y-111531400D03*
X102108000Y-123952000D03*
D16*
X130623200Y-130372200D03*
D15*
X82296000Y-127635000D03*
X86360000Y-114808000D03*
X84455000Y-127635000D03*
X83312000Y-123444000D03*
X98166191Y-137167385D03*
X83312000Y-127635000D03*
D16*
X94970600Y-91948000D03*
D15*
X83312000Y-124460000D03*
X85598000Y-123444000D03*
X96012000Y-117856000D03*
X82296000Y-123444000D03*
X130352303Y-134442200D03*
D16*
X85140800Y-91617300D03*
D15*
X84455000Y-122428000D03*
X83566000Y-133604000D03*
X84455000Y-129794000D03*
X118379298Y-133370502D03*
X105156000Y-127000000D03*
X84455000Y-136906000D03*
X86360000Y-115570000D03*
X92583000Y-114020900D03*
X108049525Y-114300000D03*
X83566000Y-130937000D03*
X84455000Y-131826000D03*
X88646000Y-112395000D03*
X119357825Y-137921500D03*
X86741000Y-122428000D03*
X86360000Y-116332000D03*
D16*
X108458000Y-138938000D03*
D15*
X123086365Y-136038392D03*
X123342400Y-127659900D03*
X82296000Y-124460000D03*
X126221435Y-121505073D03*
X88138000Y-110617000D03*
X85598000Y-122428000D03*
X94310697Y-100076000D03*
X123901700Y-128285585D03*
X95250000Y-117856000D03*
X96780215Y-141543189D03*
D17*
X94030800Y-138988800D03*
D15*
X84455000Y-124460000D03*
X86741000Y-123444000D03*
D16*
X101523800Y-95986600D03*
D15*
X88900000Y-111506000D03*
X86741000Y-129794000D03*
X92429502Y-108223580D03*
D16*
X100076000Y-136194800D03*
D15*
X86360000Y-114046000D03*
X82296000Y-125476000D03*
X83312000Y-126492000D03*
X103632000Y-125476000D03*
X83566000Y-131826000D03*
X109726793Y-94967191D03*
D16*
X71374000Y-95377000D03*
D15*
X125544302Y-133370502D03*
X86741000Y-126492000D03*
X84455000Y-123444000D03*
X86741000Y-125476000D03*
D16*
X85229200Y-97015800D03*
X111607600Y-97561400D03*
D15*
X119404900Y-126960749D03*
X119941690Y-135444300D03*
D16*
X77673200Y-97459800D03*
X112331200Y-125031800D03*
D15*
X120700800Y-131368800D03*
X81280000Y-123444000D03*
D16*
X107924600Y-119278400D03*
D15*
X85598000Y-125476000D03*
X92583000Y-112751900D03*
X79169239Y-91497874D03*
X85598000Y-129794000D03*
X86741000Y-127635000D03*
X85598000Y-126492000D03*
X84455000Y-132715000D03*
D16*
X108864400Y-134188200D03*
D15*
X86614000Y-121412000D03*
X87757000Y-113284000D03*
X93550761Y-132264874D03*
X86741000Y-128778000D03*
D16*
X130470800Y-131845400D03*
X119088200Y-130188000D03*
D15*
X91708000Y-113386400D03*
X94361000Y-132207000D03*
X127508000Y-126034800D03*
X91617800Y-108254800D03*
X97358200Y-137083800D03*
X93268800Y-95681800D03*
X97764600Y-99288600D03*
X108610400Y-114985800D03*
X109524800Y-119049800D03*
X119253000Y-127762000D03*
X91033600Y-137692900D03*
X123161800Y-135229600D03*
X129540000Y-134442200D03*
X118694200Y-137312400D03*
X124888330Y-132588000D03*
X122955269Y-126945782D03*
X113919000Y-137180500D03*
X110617000Y-94996000D03*
X95123000Y-100076000D03*
X125815435Y-122208635D03*
X127431800Y-121843800D03*
X97358200Y-140944600D03*
X124510800Y-127711200D03*
X120751600Y-135382000D03*
X89811216Y-103458912D03*
X127584200Y-127788000D03*
X78359000Y-91440000D03*
X120761800Y-132892800D03*
X121218020Y-130708400D03*
X119770900Y-131495800D03*
G04 #@! TA.AperFunction,Conductor*
G36*
X132547181Y-87789267D02*
G01*
X132599217Y-87794643D01*
X132695437Y-87804586D01*
X132715671Y-87808813D01*
X132850229Y-87851752D01*
X132869178Y-87860030D01*
X132992111Y-87929576D01*
X133008969Y-87941555D01*
X133115085Y-88034770D01*
X133129135Y-88049941D01*
X133213945Y-88162881D01*
X133224598Y-88180607D01*
X133284523Y-88308505D01*
X133291326Y-88328034D01*
X133323832Y-88465484D01*
X133326497Y-88485993D01*
X133330121Y-88623812D01*
X133329880Y-88629467D01*
X133329883Y-88643440D01*
X133329736Y-88647301D01*
X133327380Y-88677974D01*
X133328563Y-88687809D01*
X133327704Y-88687912D01*
X133329896Y-88701670D01*
X133342620Y-143092942D01*
X133342377Y-143097888D01*
X133328444Y-143239323D01*
X133324597Y-143258665D01*
X133285493Y-143387566D01*
X133277946Y-143405785D01*
X133214450Y-143524577D01*
X133203493Y-143540975D01*
X133118040Y-143645098D01*
X133104096Y-143659042D01*
X132999973Y-143744494D01*
X132983576Y-143755450D01*
X132864784Y-143818946D01*
X132846565Y-143826493D01*
X132717664Y-143865597D01*
X132698323Y-143869444D01*
X132642116Y-143874981D01*
X132556863Y-143883379D01*
X132551947Y-143883621D01*
X53035253Y-143883621D01*
X53030336Y-143883379D01*
X52939254Y-143874407D01*
X52888876Y-143869444D01*
X52869535Y-143865597D01*
X52740634Y-143826493D01*
X52722416Y-143818946D01*
X52603621Y-143755449D01*
X52587223Y-143744492D01*
X52483101Y-143659040D01*
X52469158Y-143645097D01*
X52394699Y-143554370D01*
X52383705Y-143540974D01*
X52372750Y-143524578D01*
X52309253Y-143405783D01*
X52301706Y-143387565D01*
X52286274Y-143336697D01*
X52262601Y-143258661D01*
X52258755Y-143239322D01*
X52246838Y-143118351D01*
X52244820Y-143097864D01*
X52244579Y-143092947D01*
X52244579Y-139776200D01*
X55137383Y-139776200D01*
X55157025Y-140038308D01*
X55215513Y-140294561D01*
X55215514Y-140294564D01*
X55311539Y-140539230D01*
X55311541Y-140539235D01*
X55442958Y-140766857D01*
X55442965Y-140766868D01*
X55606843Y-140972363D01*
X55606848Y-140972369D01*
X55799513Y-141151136D01*
X55799515Y-141151138D01*
X55799520Y-141151142D01*
X56016692Y-141299207D01*
X56253505Y-141413250D01*
X56504671Y-141490725D01*
X56764578Y-141529900D01*
X57027422Y-141529900D01*
X57287329Y-141490725D01*
X57538495Y-141413250D01*
X57775309Y-141299207D01*
X57992480Y-141151142D01*
X58185157Y-140972363D01*
X58207297Y-140944600D01*
X96844471Y-140944600D01*
X96865280Y-141089333D01*
X96926022Y-141222340D01*
X96926023Y-141222341D01*
X96926024Y-141222343D01*
X97021779Y-141332850D01*
X97144789Y-141411904D01*
X97285089Y-141453100D01*
X97431311Y-141453100D01*
X97571611Y-141411904D01*
X97694621Y-141332850D01*
X97790376Y-141222343D01*
X97851119Y-141089334D01*
X97871929Y-140944600D01*
X97851119Y-140799866D01*
X97790376Y-140666857D01*
X97694621Y-140556350D01*
X97633116Y-140516823D01*
X97571610Y-140477295D01*
X97431311Y-140436100D01*
X97285089Y-140436100D01*
X97144790Y-140477295D01*
X97144789Y-140477295D01*
X97021777Y-140556351D01*
X96926022Y-140666859D01*
X96865280Y-140799866D01*
X96844471Y-140944600D01*
X58207297Y-140944600D01*
X58349038Y-140766864D01*
X58480459Y-140539235D01*
X58576487Y-140294561D01*
X58634975Y-140038308D01*
X58654617Y-139776200D01*
X127476583Y-139776200D01*
X127496225Y-140038308D01*
X127554713Y-140294561D01*
X127554714Y-140294564D01*
X127650739Y-140539230D01*
X127650741Y-140539235D01*
X127782158Y-140766857D01*
X127782165Y-140766868D01*
X127946043Y-140972363D01*
X127946048Y-140972369D01*
X128138713Y-141151136D01*
X128138715Y-141151138D01*
X128138720Y-141151142D01*
X128355892Y-141299207D01*
X128592705Y-141413250D01*
X128843871Y-141490725D01*
X129103778Y-141529900D01*
X129366622Y-141529900D01*
X129626529Y-141490725D01*
X129877695Y-141413250D01*
X130114509Y-141299207D01*
X130331680Y-141151142D01*
X130524357Y-140972363D01*
X130688238Y-140766864D01*
X130819659Y-140539235D01*
X130915687Y-140294561D01*
X130974175Y-140038308D01*
X130993817Y-139776200D01*
X130974175Y-139514092D01*
X130915687Y-139257839D01*
X130819659Y-139013165D01*
X130688238Y-138785536D01*
X130524357Y-138580037D01*
X130524356Y-138580036D01*
X130524351Y-138580030D01*
X130331686Y-138401263D01*
X130331682Y-138401260D01*
X130331680Y-138401258D01*
X130114509Y-138253193D01*
X130114510Y-138253193D01*
X130114508Y-138253192D01*
X130114506Y-138253191D01*
X129877702Y-138139153D01*
X129877699Y-138139152D01*
X129877695Y-138139150D01*
X129626529Y-138061675D01*
X129626521Y-138061673D01*
X129366622Y-138022500D01*
X129103778Y-138022500D01*
X128843878Y-138061673D01*
X128843870Y-138061675D01*
X128780735Y-138081150D01*
X128592705Y-138139150D01*
X128592701Y-138139151D01*
X128592697Y-138139153D01*
X128355895Y-138253191D01*
X128355892Y-138253192D01*
X128138721Y-138401257D01*
X128138713Y-138401263D01*
X127946048Y-138580030D01*
X127946043Y-138580036D01*
X127782165Y-138785531D01*
X127782158Y-138785542D01*
X127650741Y-139013164D01*
X127650739Y-139013169D01*
X127554714Y-139257835D01*
X127554713Y-139257838D01*
X127554713Y-139257839D01*
X127496225Y-139514092D01*
X127476583Y-139776200D01*
X58654617Y-139776200D01*
X58634975Y-139514092D01*
X58576487Y-139257839D01*
X58480459Y-139013165D01*
X58349038Y-138785536D01*
X58185157Y-138580037D01*
X58185156Y-138580036D01*
X58185151Y-138580030D01*
X57992486Y-138401263D01*
X57992482Y-138401260D01*
X57992480Y-138401258D01*
X57775309Y-138253193D01*
X57775310Y-138253193D01*
X57775308Y-138253192D01*
X57775306Y-138253191D01*
X57538502Y-138139153D01*
X57538499Y-138139152D01*
X57538495Y-138139150D01*
X57287329Y-138061675D01*
X57287321Y-138061673D01*
X57027422Y-138022500D01*
X56764578Y-138022500D01*
X56504678Y-138061673D01*
X56504670Y-138061675D01*
X56441535Y-138081150D01*
X56253505Y-138139150D01*
X56253501Y-138139151D01*
X56253497Y-138139153D01*
X56016695Y-138253191D01*
X56016692Y-138253192D01*
X55799521Y-138401257D01*
X55799513Y-138401263D01*
X55606848Y-138580030D01*
X55606843Y-138580036D01*
X55442965Y-138785531D01*
X55442958Y-138785542D01*
X55311541Y-139013164D01*
X55311539Y-139013169D01*
X55215514Y-139257835D01*
X55215513Y-139257838D01*
X55215513Y-139257839D01*
X55157025Y-139514092D01*
X55137383Y-139776200D01*
X52244579Y-139776200D01*
X52244579Y-137692900D01*
X90519871Y-137692900D01*
X90540680Y-137837633D01*
X90601422Y-137970640D01*
X90601423Y-137970641D01*
X90601424Y-137970643D01*
X90697179Y-138081150D01*
X90820189Y-138160204D01*
X90960489Y-138201400D01*
X91106711Y-138201400D01*
X91247011Y-138160204D01*
X91370021Y-138081150D01*
X91465776Y-137970643D01*
X91526519Y-137837634D01*
X91547329Y-137692900D01*
X91526519Y-137548166D01*
X91465776Y-137415157D01*
X91370021Y-137304650D01*
X91251583Y-137228534D01*
X91247010Y-137225595D01*
X91106711Y-137184400D01*
X90960489Y-137184400D01*
X90820190Y-137225595D01*
X90820189Y-137225595D01*
X90697177Y-137304651D01*
X90601422Y-137415159D01*
X90540680Y-137548166D01*
X90519871Y-137692900D01*
X52244579Y-137692900D01*
X52244579Y-137083800D01*
X96844471Y-137083800D01*
X96865280Y-137228533D01*
X96926022Y-137361540D01*
X96926023Y-137361541D01*
X96926024Y-137361543D01*
X96972481Y-137415157D01*
X97009812Y-137458240D01*
X97021779Y-137472050D01*
X97144789Y-137551104D01*
X97285089Y-137592300D01*
X97431311Y-137592300D01*
X97571611Y-137551104D01*
X97694621Y-137472050D01*
X97790376Y-137361543D01*
X97851119Y-137228534D01*
X97858025Y-137180500D01*
X113405271Y-137180500D01*
X113426080Y-137325233D01*
X113486822Y-137458240D01*
X113486823Y-137458241D01*
X113486824Y-137458243D01*
X113582579Y-137568750D01*
X113705589Y-137647804D01*
X113845889Y-137689000D01*
X113992111Y-137689000D01*
X114132411Y-137647804D01*
X114255421Y-137568750D01*
X114351176Y-137458243D01*
X114411919Y-137325234D01*
X114413764Y-137312400D01*
X118180471Y-137312400D01*
X118201280Y-137457133D01*
X118262022Y-137590140D01*
X118262023Y-137590141D01*
X118262024Y-137590143D01*
X118311988Y-137647804D01*
X118351063Y-137692900D01*
X118357779Y-137700650D01*
X118480789Y-137779704D01*
X118621089Y-137820900D01*
X118767311Y-137820900D01*
X118907611Y-137779704D01*
X119030621Y-137700650D01*
X119126376Y-137590143D01*
X119187119Y-137457134D01*
X119207929Y-137312400D01*
X119187119Y-137167666D01*
X119148819Y-137083800D01*
X119126377Y-137034659D01*
X119126376Y-137034658D01*
X119126376Y-137034657D01*
X119030621Y-136924150D01*
X118969116Y-136884623D01*
X118907610Y-136845095D01*
X118767311Y-136803900D01*
X118621089Y-136803900D01*
X118480790Y-136845095D01*
X118480789Y-136845095D01*
X118357777Y-136924151D01*
X118262022Y-137034659D01*
X118201280Y-137167666D01*
X118180471Y-137312400D01*
X114413764Y-137312400D01*
X114432729Y-137180500D01*
X114411919Y-137035766D01*
X114351176Y-136902757D01*
X114255421Y-136792250D01*
X114193916Y-136752723D01*
X114132410Y-136713195D01*
X113992111Y-136672000D01*
X113845889Y-136672000D01*
X113705590Y-136713195D01*
X113705589Y-136713195D01*
X113582577Y-136792251D01*
X113486822Y-136902759D01*
X113426080Y-137035766D01*
X113405271Y-137180500D01*
X97858025Y-137180500D01*
X97871929Y-137083800D01*
X97851119Y-136939066D01*
X97834537Y-136902757D01*
X97790377Y-136806059D01*
X97790376Y-136806058D01*
X97790376Y-136806057D01*
X97694621Y-136695550D01*
X97633116Y-136656023D01*
X97571610Y-136616495D01*
X97431311Y-136575300D01*
X97285089Y-136575300D01*
X97144790Y-136616495D01*
X97144789Y-136616495D01*
X97021777Y-136695551D01*
X96926022Y-136806059D01*
X96865280Y-136939066D01*
X96844471Y-137083800D01*
X52244579Y-137083800D01*
X52244579Y-134794005D01*
X64026859Y-134794005D01*
X64047385Y-135041731D01*
X64108413Y-135282720D01*
X64208269Y-135510371D01*
X64308563Y-135663881D01*
X64969265Y-135003179D01*
X65007946Y-135096562D01*
X65104112Y-135221888D01*
X65229438Y-135318054D01*
X65322818Y-135356733D01*
X64661942Y-136017609D01*
X64661942Y-136017611D01*
X64708763Y-136054052D01*
X64927391Y-136172367D01*
X64927392Y-136172368D01*
X65162510Y-136253083D01*
X65407700Y-136293999D01*
X65407710Y-136294000D01*
X65656290Y-136294000D01*
X65656299Y-136293999D01*
X65901489Y-136253083D01*
X66136607Y-136172368D01*
X66136608Y-136172367D01*
X66355226Y-136054058D01*
X66402056Y-136017609D01*
X65741180Y-135356733D01*
X65834562Y-135318054D01*
X65959888Y-135221888D01*
X66056054Y-135096563D01*
X66094733Y-135003180D01*
X66755434Y-135663881D01*
X66855729Y-135510373D01*
X66912038Y-135382000D01*
X120237871Y-135382000D01*
X120258680Y-135526733D01*
X120319422Y-135659740D01*
X120319423Y-135659741D01*
X120319424Y-135659743D01*
X120415179Y-135770250D01*
X120538189Y-135849304D01*
X120678489Y-135890500D01*
X120824711Y-135890500D01*
X120965011Y-135849304D01*
X121088021Y-135770250D01*
X121183776Y-135659743D01*
X121244519Y-135526734D01*
X121265329Y-135382000D01*
X121244519Y-135237266D01*
X121241018Y-135229600D01*
X122648071Y-135229600D01*
X122668880Y-135374333D01*
X122729622Y-135507340D01*
X122729623Y-135507341D01*
X122729624Y-135507343D01*
X122825379Y-135617850D01*
X122948389Y-135696904D01*
X123088689Y-135738100D01*
X123234911Y-135738100D01*
X123375211Y-135696904D01*
X123498221Y-135617850D01*
X123593976Y-135507343D01*
X123654719Y-135374334D01*
X123675529Y-135229600D01*
X123654719Y-135084866D01*
X123593976Y-134951857D01*
X123498221Y-134841350D01*
X123424534Y-134793994D01*
X123375210Y-134762295D01*
X123234911Y-134721100D01*
X123088689Y-134721100D01*
X122948390Y-134762295D01*
X122948389Y-134762295D01*
X122825377Y-134841351D01*
X122729622Y-134951859D01*
X122668880Y-135084866D01*
X122648071Y-135229600D01*
X121241018Y-135229600D01*
X121183776Y-135104257D01*
X121088021Y-134993750D01*
X121020907Y-134950618D01*
X120965010Y-134914695D01*
X120824711Y-134873500D01*
X120678489Y-134873500D01*
X120538190Y-134914695D01*
X120538189Y-134914695D01*
X120415177Y-134993751D01*
X120319422Y-135104259D01*
X120258680Y-135237266D01*
X120237871Y-135382000D01*
X66912038Y-135382000D01*
X66955586Y-135282720D01*
X67016614Y-135041731D01*
X67037141Y-134794005D01*
X67037141Y-134793994D01*
X67016614Y-134546268D01*
X66990260Y-134442200D01*
X129026271Y-134442200D01*
X129047080Y-134586933D01*
X129107822Y-134719940D01*
X129107823Y-134719941D01*
X129107824Y-134719943D01*
X129203579Y-134830450D01*
X129326589Y-134909504D01*
X129466889Y-134950700D01*
X129613111Y-134950700D01*
X129753411Y-134909504D01*
X129876421Y-134830450D01*
X129972176Y-134719943D01*
X130032919Y-134586934D01*
X130053729Y-134442200D01*
X130032919Y-134297466D01*
X129972176Y-134164457D01*
X129876421Y-134053950D01*
X129814916Y-134014423D01*
X129753410Y-133974895D01*
X129613111Y-133933700D01*
X129466889Y-133933700D01*
X129326590Y-133974895D01*
X129326589Y-133974895D01*
X129203577Y-134053951D01*
X129107822Y-134164459D01*
X129047080Y-134297466D01*
X129026271Y-134442200D01*
X66990260Y-134442200D01*
X66955586Y-134305279D01*
X66855730Y-134077628D01*
X66755435Y-133924116D01*
X66094733Y-134584818D01*
X66056054Y-134491438D01*
X65959888Y-134366112D01*
X65834562Y-134269946D01*
X65741179Y-134231265D01*
X66402056Y-133570388D01*
X66355236Y-133533947D01*
X66136608Y-133415632D01*
X66136607Y-133415631D01*
X65901489Y-133334916D01*
X65656299Y-133294000D01*
X65407700Y-133294000D01*
X65162510Y-133334916D01*
X64927392Y-133415631D01*
X64927391Y-133415632D01*
X64708771Y-133533942D01*
X64708763Y-133533948D01*
X64661942Y-133570388D01*
X64661942Y-133570389D01*
X65322819Y-134231266D01*
X65229438Y-134269946D01*
X65104112Y-134366112D01*
X65007946Y-134491437D01*
X64969266Y-134584819D01*
X64308563Y-133924117D01*
X64208269Y-134077628D01*
X64108413Y-134305279D01*
X64047385Y-134546268D01*
X64026859Y-134793994D01*
X64026859Y-134794005D01*
X52244579Y-134794005D01*
X52244579Y-132207000D01*
X93847271Y-132207000D01*
X93868080Y-132351733D01*
X93928822Y-132484740D01*
X93928823Y-132484741D01*
X93928824Y-132484743D01*
X94024579Y-132595250D01*
X94147589Y-132674304D01*
X94287889Y-132715500D01*
X94434111Y-132715500D01*
X94486899Y-132700000D01*
X118648071Y-132700000D01*
X118668880Y-132844733D01*
X118729622Y-132977740D01*
X118729623Y-132977741D01*
X118729624Y-132977743D01*
X118825379Y-133088250D01*
X118948389Y-133167304D01*
X119088689Y-133208500D01*
X119234911Y-133208500D01*
X119375211Y-133167304D01*
X119498221Y-133088250D01*
X119593976Y-132977743D01*
X119632768Y-132892800D01*
X120248071Y-132892800D01*
X120268880Y-133037533D01*
X120329622Y-133170540D01*
X120329623Y-133170541D01*
X120329624Y-133170543D01*
X120425379Y-133281050D01*
X120548389Y-133360104D01*
X120688689Y-133401300D01*
X120834911Y-133401300D01*
X120975211Y-133360104D01*
X121098221Y-133281050D01*
X121193976Y-133170543D01*
X121254719Y-133037534D01*
X121275529Y-132892800D01*
X121254719Y-132748066D01*
X121193976Y-132615057D01*
X121170531Y-132588000D01*
X124374601Y-132588000D01*
X124395410Y-132732733D01*
X124456152Y-132865740D01*
X124456153Y-132865741D01*
X124456154Y-132865743D01*
X124551909Y-132976250D01*
X124674919Y-133055304D01*
X124815219Y-133096500D01*
X124961441Y-133096500D01*
X125101741Y-133055304D01*
X125224751Y-132976250D01*
X125320506Y-132865743D01*
X125381249Y-132732734D01*
X125402059Y-132588000D01*
X125381249Y-132443266D01*
X125320506Y-132310257D01*
X125224751Y-132199750D01*
X125163246Y-132160223D01*
X125101740Y-132120695D01*
X124961441Y-132079500D01*
X124815219Y-132079500D01*
X124674920Y-132120695D01*
X124674919Y-132120695D01*
X124551907Y-132199751D01*
X124456152Y-132310259D01*
X124395410Y-132443266D01*
X124374601Y-132588000D01*
X121170531Y-132588000D01*
X121098221Y-132504550D01*
X121002862Y-132443266D01*
X120975210Y-132425495D01*
X120834911Y-132384300D01*
X120688689Y-132384300D01*
X120548390Y-132425495D01*
X120548389Y-132425495D01*
X120425377Y-132504551D01*
X120329622Y-132615059D01*
X120268880Y-132748066D01*
X120248071Y-132892800D01*
X119632768Y-132892800D01*
X119654719Y-132844734D01*
X119675529Y-132700000D01*
X119654719Y-132555266D01*
X119622511Y-132484740D01*
X119593977Y-132422259D01*
X119593976Y-132422258D01*
X119593976Y-132422257D01*
X119498221Y-132311750D01*
X119436716Y-132272223D01*
X119375210Y-132232695D01*
X119234911Y-132191500D01*
X119088689Y-132191500D01*
X118948390Y-132232695D01*
X118948389Y-132232695D01*
X118825377Y-132311751D01*
X118729622Y-132422259D01*
X118668880Y-132555266D01*
X118648071Y-132700000D01*
X94486899Y-132700000D01*
X94574411Y-132674304D01*
X94697421Y-132595250D01*
X94793176Y-132484743D01*
X94853919Y-132351734D01*
X94874729Y-132207000D01*
X94853919Y-132062266D01*
X94793176Y-131929257D01*
X94697421Y-131818750D01*
X94627073Y-131773540D01*
X94574410Y-131739695D01*
X94434111Y-131698500D01*
X94287889Y-131698500D01*
X94147590Y-131739695D01*
X94147589Y-131739695D01*
X94024577Y-131818751D01*
X93928822Y-131929259D01*
X93868080Y-132062266D01*
X93847271Y-132207000D01*
X52244579Y-132207000D01*
X52244579Y-131495800D01*
X119257171Y-131495800D01*
X119277980Y-131640533D01*
X119338722Y-131773540D01*
X119338723Y-131773541D01*
X119338724Y-131773543D01*
X119434479Y-131884050D01*
X119557489Y-131963104D01*
X119697789Y-132004300D01*
X119844011Y-132004300D01*
X119984311Y-131963104D01*
X120107321Y-131884050D01*
X120203076Y-131773543D01*
X120263819Y-131640534D01*
X120284629Y-131495800D01*
X120263819Y-131351066D01*
X120203076Y-131218057D01*
X120107321Y-131107550D01*
X120045816Y-131068023D01*
X119984310Y-131028495D01*
X119844011Y-130987300D01*
X119697789Y-130987300D01*
X119557490Y-131028495D01*
X119557489Y-131028495D01*
X119434477Y-131107551D01*
X119338722Y-131218059D01*
X119277980Y-131351066D01*
X119257171Y-131495800D01*
X52244579Y-131495800D01*
X52244579Y-129794000D01*
X64323143Y-129794000D01*
X64343725Y-130016126D01*
X64343726Y-130016129D01*
X64404774Y-130230691D01*
X64404775Y-130230693D01*
X64504206Y-130430376D01*
X64504207Y-130430377D01*
X64504209Y-130430381D01*
X64604861Y-130563666D01*
X64638644Y-130608402D01*
X64803491Y-130758681D01*
X64803495Y-130758684D01*
X64803501Y-130758689D01*
X64993166Y-130876124D01*
X65201181Y-130956710D01*
X65254995Y-130966769D01*
X65420459Y-130997700D01*
X65420461Y-130997700D01*
X65643540Y-130997700D01*
X65726271Y-130982234D01*
X65862819Y-130956710D01*
X66070834Y-130876124D01*
X66260499Y-130758689D01*
X66315663Y-130708400D01*
X120704291Y-130708400D01*
X120725100Y-130853133D01*
X120785842Y-130986140D01*
X120785843Y-130986141D01*
X120785844Y-130986143D01*
X120881599Y-131096650D01*
X121004609Y-131175704D01*
X121144909Y-131216900D01*
X121291131Y-131216900D01*
X121431431Y-131175704D01*
X121554441Y-131096650D01*
X121650196Y-130986143D01*
X121710939Y-130853134D01*
X121731749Y-130708400D01*
X121710939Y-130563666D01*
X121650196Y-130430657D01*
X121554441Y-130320150D01*
X121492936Y-130280623D01*
X121431430Y-130241095D01*
X121291131Y-130199900D01*
X121144909Y-130199900D01*
X121004610Y-130241095D01*
X121004609Y-130241095D01*
X120881597Y-130320151D01*
X120785842Y-130430659D01*
X120725100Y-130563666D01*
X120704291Y-130708400D01*
X66315663Y-130708400D01*
X66425356Y-130608402D01*
X66559791Y-130430381D01*
X66659226Y-130230690D01*
X66720274Y-130016127D01*
X66740857Y-129794000D01*
X66720274Y-129571873D01*
X66659226Y-129357310D01*
X66559791Y-129157619D01*
X66425356Y-128979598D01*
X66425355Y-128979597D01*
X66260508Y-128829318D01*
X66260503Y-128829314D01*
X66260499Y-128829311D01*
X66070834Y-128711876D01*
X66070830Y-128711874D01*
X65862817Y-128631289D01*
X65862812Y-128631288D01*
X65643541Y-128590300D01*
X65643539Y-128590300D01*
X65420461Y-128590300D01*
X65420459Y-128590300D01*
X65201187Y-128631288D01*
X65201182Y-128631289D01*
X64993169Y-128711874D01*
X64993165Y-128711876D01*
X64875730Y-128784588D01*
X64803501Y-128829311D01*
X64803500Y-128829312D01*
X64803491Y-128829318D01*
X64638644Y-128979597D01*
X64581474Y-129055302D01*
X64504209Y-129157619D01*
X64504207Y-129157623D01*
X64504206Y-129157623D01*
X64404775Y-129357306D01*
X64404774Y-129357308D01*
X64343726Y-129571870D01*
X64343725Y-129571873D01*
X64323143Y-129794000D01*
X52244579Y-129794000D01*
X52244579Y-127762000D01*
X118739271Y-127762000D01*
X118760080Y-127906733D01*
X118820822Y-128039740D01*
X118820823Y-128039741D01*
X118820824Y-128039743D01*
X118916579Y-128150250D01*
X119039589Y-128229304D01*
X119179889Y-128270500D01*
X119326111Y-128270500D01*
X119466411Y-128229304D01*
X119589421Y-128150250D01*
X119685176Y-128039743D01*
X119745919Y-127906734D01*
X119766729Y-127762000D01*
X119759425Y-127711200D01*
X123997071Y-127711200D01*
X124017880Y-127855933D01*
X124078622Y-127988940D01*
X124078623Y-127988941D01*
X124078624Y-127988943D01*
X124174379Y-128099450D01*
X124297389Y-128178504D01*
X124437689Y-128219700D01*
X124583911Y-128219700D01*
X124724211Y-128178504D01*
X124847221Y-128099450D01*
X124942976Y-127988943D01*
X125003719Y-127855934D01*
X125013487Y-127788000D01*
X127070471Y-127788000D01*
X127091280Y-127932733D01*
X127152022Y-128065740D01*
X127152023Y-128065741D01*
X127152024Y-128065743D01*
X127247779Y-128176250D01*
X127370789Y-128255304D01*
X127511089Y-128296500D01*
X127657311Y-128296500D01*
X127797611Y-128255304D01*
X127920621Y-128176250D01*
X128016376Y-128065743D01*
X128077119Y-127932734D01*
X128097929Y-127788000D01*
X128077119Y-127643266D01*
X128016376Y-127510257D01*
X127920621Y-127399750D01*
X127859116Y-127360223D01*
X127797610Y-127320695D01*
X127657311Y-127279500D01*
X127511089Y-127279500D01*
X127370790Y-127320695D01*
X127370789Y-127320695D01*
X127247777Y-127399751D01*
X127152022Y-127510259D01*
X127091280Y-127643266D01*
X127070471Y-127788000D01*
X125013487Y-127788000D01*
X125024529Y-127711200D01*
X125003719Y-127566466D01*
X124966176Y-127484257D01*
X124942977Y-127433459D01*
X124942976Y-127433458D01*
X124942976Y-127433457D01*
X124847221Y-127322950D01*
X124739155Y-127253500D01*
X124724210Y-127243895D01*
X124583911Y-127202700D01*
X124437689Y-127202700D01*
X124297390Y-127243895D01*
X124297389Y-127243895D01*
X124174377Y-127322951D01*
X124078622Y-127433459D01*
X124017880Y-127566466D01*
X123997071Y-127711200D01*
X119759425Y-127711200D01*
X119745919Y-127617266D01*
X119685177Y-127484259D01*
X119685176Y-127484258D01*
X119685176Y-127484257D01*
X119589421Y-127373750D01*
X119527616Y-127334030D01*
X119466410Y-127294695D01*
X119326111Y-127253500D01*
X119179889Y-127253500D01*
X119039590Y-127294695D01*
X119039589Y-127294695D01*
X118916577Y-127373751D01*
X118820822Y-127484259D01*
X118760080Y-127617266D01*
X118739271Y-127762000D01*
X52244579Y-127762000D01*
X52244579Y-126945782D01*
X122441540Y-126945782D01*
X122462349Y-127090515D01*
X122523091Y-127223522D01*
X122523092Y-127223523D01*
X122523093Y-127223525D01*
X122618848Y-127334032D01*
X122741858Y-127413086D01*
X122882158Y-127454282D01*
X123028380Y-127454282D01*
X123168680Y-127413086D01*
X123291690Y-127334032D01*
X123387445Y-127223525D01*
X123448188Y-127090516D01*
X123468998Y-126945782D01*
X123448188Y-126801048D01*
X123387445Y-126668039D01*
X123291690Y-126557532D01*
X123205443Y-126502104D01*
X123168679Y-126478477D01*
X123028380Y-126437282D01*
X122882158Y-126437282D01*
X122741859Y-126478477D01*
X122741858Y-126478477D01*
X122618846Y-126557533D01*
X122523091Y-126668041D01*
X122462349Y-126801048D01*
X122441540Y-126945782D01*
X52244579Y-126945782D01*
X52244579Y-126034800D01*
X126994271Y-126034800D01*
X127015080Y-126179533D01*
X127075822Y-126312540D01*
X127075823Y-126312541D01*
X127075824Y-126312543D01*
X127171579Y-126423050D01*
X127294589Y-126502104D01*
X127434889Y-126543300D01*
X127581111Y-126543300D01*
X127721411Y-126502104D01*
X127844421Y-126423050D01*
X127940176Y-126312543D01*
X128000919Y-126179534D01*
X128021729Y-126034800D01*
X128000919Y-125890066D01*
X127940176Y-125757057D01*
X127844421Y-125646550D01*
X127782916Y-125607023D01*
X127721410Y-125567495D01*
X127581111Y-125526300D01*
X127434889Y-125526300D01*
X127294590Y-125567495D01*
X127294589Y-125567495D01*
X127171577Y-125646551D01*
X127075822Y-125757059D01*
X127015080Y-125890066D01*
X126994271Y-126034800D01*
X52244579Y-126034800D01*
X52244579Y-123872005D01*
X64026859Y-123872005D01*
X64047385Y-124119731D01*
X64108413Y-124360720D01*
X64208269Y-124588371D01*
X64308563Y-124741881D01*
X64969265Y-124081179D01*
X65007946Y-124174562D01*
X65104112Y-124299888D01*
X65229438Y-124396054D01*
X65322818Y-124434733D01*
X64661942Y-125095609D01*
X64661942Y-125095611D01*
X64708763Y-125132052D01*
X64927391Y-125250367D01*
X64927392Y-125250368D01*
X65162510Y-125331083D01*
X65407700Y-125371999D01*
X65407710Y-125372000D01*
X65656290Y-125372000D01*
X65656299Y-125371999D01*
X65901489Y-125331083D01*
X66136607Y-125250368D01*
X66136608Y-125250367D01*
X66355226Y-125132058D01*
X66402056Y-125095609D01*
X65741180Y-124434733D01*
X65834562Y-124396054D01*
X65959888Y-124299888D01*
X66056054Y-124174563D01*
X66094733Y-124081180D01*
X66755434Y-124741881D01*
X66855729Y-124588373D01*
X66955586Y-124360720D01*
X67016614Y-124119731D01*
X67037141Y-123872005D01*
X67037141Y-123871994D01*
X67016614Y-123624268D01*
X66955586Y-123383279D01*
X66855730Y-123155628D01*
X66755435Y-123002116D01*
X66094733Y-123662818D01*
X66056054Y-123569438D01*
X65959888Y-123444112D01*
X65834562Y-123347946D01*
X65741179Y-123309265D01*
X66402056Y-122648388D01*
X66355236Y-122611947D01*
X66136608Y-122493632D01*
X66136607Y-122493631D01*
X65901489Y-122412916D01*
X65656299Y-122372000D01*
X65407700Y-122372000D01*
X65162510Y-122412916D01*
X64927392Y-122493631D01*
X64927391Y-122493632D01*
X64708771Y-122611942D01*
X64708763Y-122611948D01*
X64661942Y-122648388D01*
X64661942Y-122648389D01*
X65322819Y-123309266D01*
X65229438Y-123347946D01*
X65104112Y-123444112D01*
X65007946Y-123569437D01*
X64969266Y-123662819D01*
X64308563Y-123002117D01*
X64208269Y-123155628D01*
X64108413Y-123383279D01*
X64047385Y-123624268D01*
X64026859Y-123871994D01*
X64026859Y-123872005D01*
X52244579Y-123872005D01*
X52244579Y-122208635D01*
X125301706Y-122208635D01*
X125322515Y-122353368D01*
X125383257Y-122486375D01*
X125383258Y-122486376D01*
X125383259Y-122486378D01*
X125479014Y-122596885D01*
X125602024Y-122675939D01*
X125742324Y-122717135D01*
X125888546Y-122717135D01*
X126028846Y-122675939D01*
X126151856Y-122596885D01*
X126247611Y-122486378D01*
X126308354Y-122353369D01*
X126329164Y-122208635D01*
X126308354Y-122063901D01*
X126247611Y-121930892D01*
X126172145Y-121843800D01*
X126918071Y-121843800D01*
X126938880Y-121988533D01*
X126999622Y-122121540D01*
X126999623Y-122121541D01*
X126999624Y-122121543D01*
X127095379Y-122232050D01*
X127218389Y-122311104D01*
X127358689Y-122352300D01*
X127504911Y-122352300D01*
X127645211Y-122311104D01*
X127768221Y-122232050D01*
X127863976Y-122121543D01*
X127924719Y-121988534D01*
X127945529Y-121843800D01*
X127924719Y-121699066D01*
X127863976Y-121566057D01*
X127768221Y-121455550D01*
X127706716Y-121416023D01*
X127645210Y-121376495D01*
X127504911Y-121335300D01*
X127358689Y-121335300D01*
X127218390Y-121376495D01*
X127218389Y-121376495D01*
X127095377Y-121455551D01*
X126999622Y-121566059D01*
X126938880Y-121699066D01*
X126918071Y-121843800D01*
X126172145Y-121843800D01*
X126151856Y-121820385D01*
X126090351Y-121780858D01*
X126028845Y-121741330D01*
X125888546Y-121700135D01*
X125742324Y-121700135D01*
X125602025Y-121741330D01*
X125602024Y-121741330D01*
X125479012Y-121820386D01*
X125383257Y-121930894D01*
X125322515Y-122063901D01*
X125301706Y-122208635D01*
X52244579Y-122208635D01*
X52244579Y-118872000D01*
X64323143Y-118872000D01*
X64343725Y-119094126D01*
X64343726Y-119094129D01*
X64404774Y-119308691D01*
X64404775Y-119308693D01*
X64504206Y-119508376D01*
X64504207Y-119508377D01*
X64504209Y-119508381D01*
X64638644Y-119686402D01*
X64803491Y-119836681D01*
X64803495Y-119836684D01*
X64803501Y-119836689D01*
X64993166Y-119954124D01*
X65201181Y-120034710D01*
X65254995Y-120044769D01*
X65420459Y-120075700D01*
X65420461Y-120075700D01*
X65643540Y-120075700D01*
X65726271Y-120060234D01*
X65862819Y-120034710D01*
X66070834Y-119954124D01*
X66260499Y-119836689D01*
X66425356Y-119686402D01*
X66559791Y-119508381D01*
X66659226Y-119308690D01*
X66720274Y-119094127D01*
X66724381Y-119049800D01*
X109011071Y-119049800D01*
X109031880Y-119194533D01*
X109092622Y-119327540D01*
X109092623Y-119327541D01*
X109092624Y-119327543D01*
X109188379Y-119438050D01*
X109311389Y-119517104D01*
X109451689Y-119558300D01*
X109597911Y-119558300D01*
X109686118Y-119532400D01*
X112646693Y-119532400D01*
X112666294Y-119793955D01*
X112724659Y-120049668D01*
X112724660Y-120049671D01*
X112820481Y-120293822D01*
X112820483Y-120293825D01*
X112951623Y-120520967D01*
X112951631Y-120520979D01*
X112999473Y-120580970D01*
X112999474Y-120580970D01*
X113684938Y-119895505D01*
X113772178Y-120034347D01*
X113899653Y-120161822D01*
X114038491Y-120249060D01*
X113352432Y-120935120D01*
X113352432Y-120935121D01*
X113524147Y-121052194D01*
X113524150Y-121052195D01*
X113760454Y-121165994D01*
X114011099Y-121243308D01*
X114270457Y-121282400D01*
X114532743Y-121282400D01*
X114792099Y-121243308D01*
X114792102Y-121243308D01*
X115042745Y-121165994D01*
X115279050Y-121052195D01*
X115279062Y-121052188D01*
X115450766Y-120935121D01*
X115450766Y-120935120D01*
X114764707Y-120249060D01*
X114903547Y-120161822D01*
X115031022Y-120034347D01*
X115118261Y-119895507D01*
X115803724Y-120580970D01*
X115851572Y-120520973D01*
X115982716Y-120293825D01*
X115982718Y-120293822D01*
X116078539Y-120049671D01*
X116078540Y-120049668D01*
X116136905Y-119793955D01*
X116156506Y-119532404D01*
X118022918Y-119532404D01*
X118042811Y-119772484D01*
X118042813Y-119772491D01*
X118101953Y-120006033D01*
X118198727Y-120226656D01*
X118330495Y-120428341D01*
X118493662Y-120605587D01*
X118493663Y-120605588D01*
X118683780Y-120753562D01*
X118779273Y-120805239D01*
X118895654Y-120868222D01*
X119123515Y-120946447D01*
X119361143Y-120986100D01*
X119361147Y-120986100D01*
X119602053Y-120986100D01*
X119602057Y-120986100D01*
X119839685Y-120946447D01*
X120067546Y-120868222D01*
X120279423Y-120753560D01*
X120469538Y-120605587D01*
X120632705Y-120428341D01*
X120764473Y-120226656D01*
X120861247Y-120006033D01*
X120920387Y-119772491D01*
X120925438Y-119711543D01*
X120940282Y-119532404D01*
X123102918Y-119532404D01*
X123122811Y-119772484D01*
X123122813Y-119772491D01*
X123181953Y-120006033D01*
X123278727Y-120226656D01*
X123410495Y-120428341D01*
X123573662Y-120605587D01*
X123573663Y-120605588D01*
X123763780Y-120753562D01*
X123859273Y-120805239D01*
X123975654Y-120868222D01*
X124203515Y-120946447D01*
X124441143Y-120986100D01*
X124441147Y-120986100D01*
X124682053Y-120986100D01*
X124682057Y-120986100D01*
X124919685Y-120946447D01*
X125147546Y-120868222D01*
X125359423Y-120753560D01*
X125549538Y-120605587D01*
X125712705Y-120428341D01*
X125844473Y-120226656D01*
X125941247Y-120006033D01*
X126000387Y-119772491D01*
X126005438Y-119711543D01*
X126020282Y-119532404D01*
X126020282Y-119532395D01*
X126000388Y-119292315D01*
X126000387Y-119292312D01*
X126000387Y-119292309D01*
X125941247Y-119058767D01*
X125844473Y-118838144D01*
X125712705Y-118636459D01*
X125549538Y-118459213D01*
X125549537Y-118459212D01*
X125549536Y-118459211D01*
X125359419Y-118311237D01*
X125147546Y-118196578D01*
X125147545Y-118196577D01*
X124997909Y-118145207D01*
X124919685Y-118118353D01*
X124880080Y-118111744D01*
X124682062Y-118078700D01*
X124682057Y-118078700D01*
X124441143Y-118078700D01*
X124441137Y-118078700D01*
X124203515Y-118118353D01*
X123975654Y-118196577D01*
X123975653Y-118196578D01*
X123763780Y-118311237D01*
X123573663Y-118459211D01*
X123410494Y-118636460D01*
X123278730Y-118838138D01*
X123278728Y-118838142D01*
X123278727Y-118838144D01*
X123250288Y-118902978D01*
X123181953Y-119058766D01*
X123122811Y-119292315D01*
X123102918Y-119532395D01*
X123102918Y-119532404D01*
X120940282Y-119532404D01*
X120940282Y-119532395D01*
X120920388Y-119292315D01*
X120920387Y-119292312D01*
X120920387Y-119292309D01*
X120861247Y-119058767D01*
X120764473Y-118838144D01*
X120632705Y-118636459D01*
X120469538Y-118459213D01*
X120469537Y-118459212D01*
X120469536Y-118459211D01*
X120279419Y-118311237D01*
X120067546Y-118196578D01*
X120067545Y-118196577D01*
X119917909Y-118145207D01*
X119839685Y-118118353D01*
X119800080Y-118111744D01*
X119602062Y-118078700D01*
X119602057Y-118078700D01*
X119361143Y-118078700D01*
X119361137Y-118078700D01*
X119123515Y-118118353D01*
X118895654Y-118196577D01*
X118895653Y-118196578D01*
X118683780Y-118311237D01*
X118493663Y-118459211D01*
X118330494Y-118636460D01*
X118198730Y-118838138D01*
X118198728Y-118838142D01*
X118198727Y-118838144D01*
X118170288Y-118902978D01*
X118101953Y-119058766D01*
X118042811Y-119292315D01*
X118022918Y-119532395D01*
X118022918Y-119532404D01*
X116156506Y-119532404D01*
X116156506Y-119532400D01*
X116136905Y-119270844D01*
X116078540Y-119015131D01*
X116078539Y-119015128D01*
X115982718Y-118770977D01*
X115982716Y-118770974D01*
X115851576Y-118543832D01*
X115851568Y-118543821D01*
X115803725Y-118483828D01*
X115803724Y-118483828D01*
X115118260Y-119169291D01*
X115031022Y-119030453D01*
X114903547Y-118902978D01*
X114764705Y-118815738D01*
X115450766Y-118129678D01*
X115450766Y-118129677D01*
X115279053Y-118012605D01*
X115279050Y-118012604D01*
X115042745Y-117898805D01*
X114792100Y-117821491D01*
X114532743Y-117782400D01*
X114270457Y-117782400D01*
X114011100Y-117821491D01*
X114011097Y-117821491D01*
X113760454Y-117898805D01*
X113524150Y-118012604D01*
X113524147Y-118012605D01*
X113352432Y-118129678D01*
X114038492Y-118815738D01*
X113899653Y-118902978D01*
X113772178Y-119030453D01*
X113684938Y-119169292D01*
X112999474Y-118483828D01*
X112951626Y-118543829D01*
X112951623Y-118543832D01*
X112820483Y-118770974D01*
X112820481Y-118770977D01*
X112724660Y-119015128D01*
X112724659Y-119015131D01*
X112666294Y-119270844D01*
X112646693Y-119532400D01*
X109686118Y-119532400D01*
X109738211Y-119517104D01*
X109861221Y-119438050D01*
X109956976Y-119327543D01*
X110017719Y-119194534D01*
X110038529Y-119049800D01*
X110017719Y-118905066D01*
X109956976Y-118772057D01*
X109861221Y-118661550D01*
X109799716Y-118622023D01*
X109738210Y-118582495D01*
X109597911Y-118541300D01*
X109451689Y-118541300D01*
X109311390Y-118582495D01*
X109311389Y-118582495D01*
X109188377Y-118661551D01*
X109092622Y-118772059D01*
X109031880Y-118905066D01*
X109011071Y-119049800D01*
X66724381Y-119049800D01*
X66740857Y-118872000D01*
X66720274Y-118649873D01*
X66659226Y-118435310D01*
X66559791Y-118235619D01*
X66425356Y-118057598D01*
X66376000Y-118012604D01*
X66260508Y-117907318D01*
X66260503Y-117907314D01*
X66260499Y-117907311D01*
X66070834Y-117789876D01*
X66070830Y-117789874D01*
X65862817Y-117709289D01*
X65862812Y-117709288D01*
X65643541Y-117668300D01*
X65643539Y-117668300D01*
X65420461Y-117668300D01*
X65420459Y-117668300D01*
X65201187Y-117709288D01*
X65201182Y-117709289D01*
X64993169Y-117789874D01*
X64993165Y-117789876D01*
X64875730Y-117862588D01*
X64803501Y-117907311D01*
X64803500Y-117907312D01*
X64803491Y-117907318D01*
X64638644Y-118057597D01*
X64592764Y-118118353D01*
X64504209Y-118235619D01*
X64504207Y-118235623D01*
X64504206Y-118235623D01*
X64404775Y-118435306D01*
X64404774Y-118435308D01*
X64343726Y-118649870D01*
X64343725Y-118649873D01*
X64323143Y-118872000D01*
X52244579Y-118872000D01*
X52244579Y-114985800D01*
X108096671Y-114985800D01*
X108117480Y-115130533D01*
X108178222Y-115263540D01*
X108178223Y-115263541D01*
X108178224Y-115263543D01*
X108273979Y-115374050D01*
X108396989Y-115453104D01*
X108537289Y-115494300D01*
X108683511Y-115494300D01*
X108823811Y-115453104D01*
X108946821Y-115374050D01*
X109042576Y-115263543D01*
X109103319Y-115130534D01*
X109124129Y-114985800D01*
X109103319Y-114841066D01*
X109042576Y-114708057D01*
X108946821Y-114597550D01*
X108841710Y-114529999D01*
X108823810Y-114518495D01*
X108683511Y-114477300D01*
X108537289Y-114477300D01*
X108396990Y-114518495D01*
X108396989Y-114518495D01*
X108273977Y-114597551D01*
X108178222Y-114708059D01*
X108117480Y-114841066D01*
X108096671Y-114985800D01*
X52244579Y-114985800D01*
X52244579Y-113030005D01*
X64026859Y-113030005D01*
X64047385Y-113277731D01*
X64108413Y-113518720D01*
X64208269Y-113746371D01*
X64308563Y-113899881D01*
X64969265Y-113239179D01*
X65007946Y-113332562D01*
X65104112Y-113457888D01*
X65229438Y-113554054D01*
X65322818Y-113592733D01*
X64661942Y-114253609D01*
X64661942Y-114253611D01*
X64708763Y-114290052D01*
X64927391Y-114408367D01*
X64927392Y-114408368D01*
X65162510Y-114489083D01*
X65407700Y-114529999D01*
X65407710Y-114530000D01*
X65656290Y-114530000D01*
X65656299Y-114529999D01*
X65901489Y-114489083D01*
X66136607Y-114408368D01*
X66136608Y-114408367D01*
X66355226Y-114290058D01*
X66402056Y-114253609D01*
X65741180Y-113592733D01*
X65834562Y-113554054D01*
X65959888Y-113457888D01*
X66056054Y-113332563D01*
X66094733Y-113239180D01*
X66755434Y-113899881D01*
X66855729Y-113746373D01*
X66955586Y-113518720D01*
X66989095Y-113386400D01*
X91194271Y-113386400D01*
X91215080Y-113531133D01*
X91275822Y-113664140D01*
X91275823Y-113664141D01*
X91275824Y-113664143D01*
X91371579Y-113774650D01*
X91494589Y-113853704D01*
X91634889Y-113894900D01*
X91781111Y-113894900D01*
X91921411Y-113853704D01*
X92044421Y-113774650D01*
X92140176Y-113664143D01*
X92200919Y-113531134D01*
X92221729Y-113386400D01*
X92200919Y-113241666D01*
X92140177Y-113108659D01*
X92140176Y-113108658D01*
X92140176Y-113108657D01*
X92044421Y-112998150D01*
X91923960Y-112920734D01*
X91921410Y-112919095D01*
X91781111Y-112877900D01*
X91634889Y-112877900D01*
X91494590Y-112919095D01*
X91494589Y-112919095D01*
X91371577Y-112998151D01*
X91275822Y-113108659D01*
X91215080Y-113241666D01*
X91194271Y-113386400D01*
X66989095Y-113386400D01*
X67016614Y-113277731D01*
X67037141Y-113030005D01*
X67037141Y-113029994D01*
X67016614Y-112782268D01*
X67015027Y-112776000D01*
X103499271Y-112776000D01*
X103520080Y-112920733D01*
X103580822Y-113053740D01*
X103580823Y-113053741D01*
X103580824Y-113053743D01*
X103676579Y-113164250D01*
X103799589Y-113243304D01*
X103939889Y-113284500D01*
X104086111Y-113284500D01*
X104226411Y-113243304D01*
X104349421Y-113164250D01*
X104445176Y-113053743D01*
X104505919Y-112920734D01*
X104526729Y-112776000D01*
X104505919Y-112631266D01*
X104464823Y-112541279D01*
X104445177Y-112498259D01*
X104445176Y-112498258D01*
X104445176Y-112498257D01*
X104349421Y-112387750D01*
X104287916Y-112348223D01*
X104226410Y-112308695D01*
X104086111Y-112267500D01*
X103939889Y-112267500D01*
X103799590Y-112308695D01*
X103799589Y-112308695D01*
X103676577Y-112387751D01*
X103580822Y-112498259D01*
X103520080Y-112631266D01*
X103499271Y-112776000D01*
X67015027Y-112776000D01*
X66955586Y-112541279D01*
X66855730Y-112313628D01*
X66755435Y-112160116D01*
X66094733Y-112820818D01*
X66056054Y-112727438D01*
X65959888Y-112602112D01*
X65834562Y-112505946D01*
X65741179Y-112467265D01*
X66402056Y-111806388D01*
X66355236Y-111769947D01*
X66136608Y-111651632D01*
X66136607Y-111651631D01*
X65901489Y-111570916D01*
X65656299Y-111530000D01*
X65407700Y-111530000D01*
X65162510Y-111570916D01*
X64927392Y-111651631D01*
X64927391Y-111651632D01*
X64708771Y-111769942D01*
X64708763Y-111769948D01*
X64661942Y-111806388D01*
X64661942Y-111806389D01*
X65322819Y-112467266D01*
X65229438Y-112505946D01*
X65104112Y-112602112D01*
X65007946Y-112727437D01*
X64969266Y-112820819D01*
X64308563Y-112160117D01*
X64208269Y-112313628D01*
X64108413Y-112541279D01*
X64047385Y-112782268D01*
X64026859Y-113029994D01*
X64026859Y-113030005D01*
X52244579Y-113030005D01*
X52244579Y-109249895D01*
X110277900Y-109249895D01*
X110293044Y-109451981D01*
X110353200Y-109715541D01*
X110451965Y-109967191D01*
X110502774Y-110055194D01*
X110587129Y-110201303D01*
X110587137Y-110201314D01*
X110755687Y-110412668D01*
X110755692Y-110412674D01*
X110953851Y-110596538D01*
X110953853Y-110596540D01*
X110953858Y-110596544D01*
X111177221Y-110748830D01*
X111420786Y-110866125D01*
X111679113Y-110945809D01*
X111946431Y-110986100D01*
X112216768Y-110986100D01*
X112216769Y-110986100D01*
X112484087Y-110945809D01*
X112742414Y-110866125D01*
X112985979Y-110748830D01*
X113209342Y-110596544D01*
X113407513Y-110412668D01*
X113576066Y-110201310D01*
X113711235Y-109967191D01*
X113810000Y-109715541D01*
X113870156Y-109451981D01*
X113885300Y-109249895D01*
X125077900Y-109249895D01*
X125093044Y-109451981D01*
X125153200Y-109715541D01*
X125251965Y-109967191D01*
X125302774Y-110055194D01*
X125387129Y-110201303D01*
X125387137Y-110201314D01*
X125555687Y-110412668D01*
X125555692Y-110412674D01*
X125753851Y-110596538D01*
X125753853Y-110596540D01*
X125753858Y-110596544D01*
X125977221Y-110748830D01*
X126220786Y-110866125D01*
X126479113Y-110945809D01*
X126746431Y-110986100D01*
X127016768Y-110986100D01*
X127016769Y-110986100D01*
X127284087Y-110945809D01*
X127542414Y-110866125D01*
X127785979Y-110748830D01*
X128009342Y-110596544D01*
X128207513Y-110412668D01*
X128376066Y-110201310D01*
X128511235Y-109967191D01*
X128610000Y-109715541D01*
X128670156Y-109451981D01*
X128685300Y-109249895D01*
X128685300Y-108814905D01*
X128670156Y-108612819D01*
X128610000Y-108349259D01*
X128511235Y-108097609D01*
X128423230Y-107945180D01*
X128376070Y-107863496D01*
X128376062Y-107863485D01*
X128207512Y-107652131D01*
X128207507Y-107652125D01*
X128009348Y-107468261D01*
X128009344Y-107468258D01*
X128009342Y-107468256D01*
X127785979Y-107315970D01*
X127785980Y-107315970D01*
X127785978Y-107315969D01*
X127785975Y-107315968D01*
X127542419Y-107198677D01*
X127542416Y-107198676D01*
X127542414Y-107198675D01*
X127284087Y-107118991D01*
X127284077Y-107118989D01*
X127016769Y-107078700D01*
X126746431Y-107078700D01*
X126479122Y-107118989D01*
X126479112Y-107118991D01*
X126220780Y-107198677D01*
X125977224Y-107315968D01*
X125977221Y-107315969D01*
X125753859Y-107468255D01*
X125753851Y-107468261D01*
X125555692Y-107652125D01*
X125555687Y-107652131D01*
X125387137Y-107863485D01*
X125387129Y-107863496D01*
X125251965Y-108097609D01*
X125251963Y-108097613D01*
X125153201Y-108349255D01*
X125153200Y-108349258D01*
X125153200Y-108349259D01*
X125093044Y-108612819D01*
X125077900Y-108814905D01*
X125077900Y-109249895D01*
X113885300Y-109249895D01*
X113885300Y-108814905D01*
X113870156Y-108612819D01*
X113810000Y-108349259D01*
X113711235Y-108097609D01*
X113623230Y-107945180D01*
X113576070Y-107863496D01*
X113576062Y-107863485D01*
X113407512Y-107652131D01*
X113407507Y-107652125D01*
X113209348Y-107468261D01*
X113209344Y-107468258D01*
X113209342Y-107468256D01*
X112985979Y-107315970D01*
X112985980Y-107315970D01*
X112985978Y-107315969D01*
X112985975Y-107315968D01*
X112742419Y-107198677D01*
X112742416Y-107198676D01*
X112742414Y-107198675D01*
X112484087Y-107118991D01*
X112484077Y-107118989D01*
X112216769Y-107078700D01*
X111946431Y-107078700D01*
X111679122Y-107118989D01*
X111679112Y-107118991D01*
X111420780Y-107198677D01*
X111177224Y-107315968D01*
X111177221Y-107315969D01*
X110953859Y-107468255D01*
X110953851Y-107468261D01*
X110755692Y-107652125D01*
X110755687Y-107652131D01*
X110587137Y-107863485D01*
X110587129Y-107863496D01*
X110451965Y-108097609D01*
X110451963Y-108097613D01*
X110353201Y-108349255D01*
X110353200Y-108349258D01*
X110353200Y-108349259D01*
X110293044Y-108612819D01*
X110277900Y-108814905D01*
X110277900Y-109249895D01*
X52244579Y-109249895D01*
X52244579Y-108030000D01*
X64323143Y-108030000D01*
X64343725Y-108252126D01*
X64343726Y-108252129D01*
X64404774Y-108466691D01*
X64404775Y-108466693D01*
X64504206Y-108666376D01*
X64504207Y-108666377D01*
X64504209Y-108666381D01*
X64577398Y-108763299D01*
X64638644Y-108844402D01*
X64803491Y-108994681D01*
X64803495Y-108994684D01*
X64803501Y-108994689D01*
X64993166Y-109112124D01*
X65201181Y-109192710D01*
X65254995Y-109202769D01*
X65420459Y-109233700D01*
X65420461Y-109233700D01*
X65643540Y-109233700D01*
X65726271Y-109218234D01*
X65862819Y-109192710D01*
X66070834Y-109112124D01*
X66260499Y-108994689D01*
X66425356Y-108844402D01*
X66559791Y-108666381D01*
X66659226Y-108466690D01*
X66719513Y-108254800D01*
X91104071Y-108254800D01*
X91124880Y-108399533D01*
X91185622Y-108532540D01*
X91185623Y-108532541D01*
X91185624Y-108532543D01*
X91281379Y-108643050D01*
X91404389Y-108722104D01*
X91544689Y-108763300D01*
X91690911Y-108763300D01*
X91831211Y-108722104D01*
X91954221Y-108643050D01*
X92049976Y-108532543D01*
X92110719Y-108399534D01*
X92131529Y-108254800D01*
X92110719Y-108110066D01*
X92049976Y-107977057D01*
X91954221Y-107866550D01*
X91862918Y-107807873D01*
X91831210Y-107787495D01*
X91690911Y-107746300D01*
X91544689Y-107746300D01*
X91404390Y-107787495D01*
X91404389Y-107787495D01*
X91281377Y-107866551D01*
X91185622Y-107977059D01*
X91124880Y-108110066D01*
X91104071Y-108254800D01*
X66719513Y-108254800D01*
X66720274Y-108252127D01*
X66740857Y-108030000D01*
X66720274Y-107807873D01*
X66659226Y-107593310D01*
X66559791Y-107393619D01*
X66425356Y-107215598D01*
X66406795Y-107198677D01*
X66260508Y-107065318D01*
X66260503Y-107065314D01*
X66260499Y-107065311D01*
X66070834Y-106947876D01*
X66070830Y-106947874D01*
X65862817Y-106867289D01*
X65862812Y-106867288D01*
X65643541Y-106826300D01*
X65643539Y-106826300D01*
X65420461Y-106826300D01*
X65420459Y-106826300D01*
X65201187Y-106867288D01*
X65201182Y-106867289D01*
X64993169Y-106947874D01*
X64993165Y-106947876D01*
X64875730Y-107020588D01*
X64803501Y-107065311D01*
X64803500Y-107065312D01*
X64803491Y-107065318D01*
X64638644Y-107215597D01*
X64581474Y-107291302D01*
X64504209Y-107393619D01*
X64504207Y-107393623D01*
X64504206Y-107393623D01*
X64404775Y-107593306D01*
X64404774Y-107593308D01*
X64343726Y-107807870D01*
X64343725Y-107807873D01*
X64323143Y-108030000D01*
X52244579Y-108030000D01*
X52244579Y-102108005D01*
X64026859Y-102108005D01*
X64047385Y-102355731D01*
X64108413Y-102596720D01*
X64208269Y-102824371D01*
X64308563Y-102977881D01*
X64969265Y-102317179D01*
X65007946Y-102410562D01*
X65104112Y-102535888D01*
X65229438Y-102632054D01*
X65322818Y-102670733D01*
X64661942Y-103331609D01*
X64661942Y-103331611D01*
X64708763Y-103368052D01*
X64927391Y-103486367D01*
X64927392Y-103486368D01*
X65162510Y-103567083D01*
X65407700Y-103607999D01*
X65407710Y-103608000D01*
X65656290Y-103608000D01*
X65656299Y-103607999D01*
X65901489Y-103567083D01*
X66136607Y-103486368D01*
X66136608Y-103486367D01*
X66187341Y-103458912D01*
X89297487Y-103458912D01*
X89318296Y-103603645D01*
X89379038Y-103736652D01*
X89379039Y-103736653D01*
X89379040Y-103736655D01*
X89474795Y-103847162D01*
X89597805Y-103926216D01*
X89738105Y-103967412D01*
X89884327Y-103967412D01*
X90024627Y-103926216D01*
X90147637Y-103847162D01*
X90243392Y-103736655D01*
X90304135Y-103603646D01*
X90324945Y-103458912D01*
X90304135Y-103314178D01*
X90243392Y-103181169D01*
X90147637Y-103070662D01*
X90070310Y-103020967D01*
X90024626Y-102991607D01*
X89884327Y-102950412D01*
X89738105Y-102950412D01*
X89597806Y-102991607D01*
X89597805Y-102991607D01*
X89474793Y-103070663D01*
X89379038Y-103181171D01*
X89318296Y-103314178D01*
X89297487Y-103458912D01*
X66187341Y-103458912D01*
X66355226Y-103368058D01*
X66402056Y-103331609D01*
X65741180Y-102670733D01*
X65834562Y-102632054D01*
X65959888Y-102535888D01*
X66056054Y-102410563D01*
X66094733Y-102317180D01*
X66755434Y-102977881D01*
X66855729Y-102824373D01*
X66955586Y-102596720D01*
X67016614Y-102355731D01*
X67037141Y-102108005D01*
X67037141Y-102107994D01*
X67030877Y-102032400D01*
X115186693Y-102032400D01*
X115206294Y-102293955D01*
X115264659Y-102549668D01*
X115264660Y-102549671D01*
X115360481Y-102793822D01*
X115360483Y-102793825D01*
X115491623Y-103020967D01*
X115491631Y-103020979D01*
X115539473Y-103080970D01*
X115539474Y-103080970D01*
X116224938Y-102395505D01*
X116312178Y-102534347D01*
X116439653Y-102661822D01*
X116578491Y-102749060D01*
X115892432Y-103435120D01*
X115892432Y-103435121D01*
X116064147Y-103552194D01*
X116064150Y-103552195D01*
X116300454Y-103665994D01*
X116551099Y-103743308D01*
X116810457Y-103782400D01*
X117072743Y-103782400D01*
X117332099Y-103743308D01*
X117332102Y-103743308D01*
X117582745Y-103665994D01*
X117819050Y-103552195D01*
X117819062Y-103552188D01*
X117990766Y-103435121D01*
X117990766Y-103435120D01*
X117304707Y-102749060D01*
X117443547Y-102661822D01*
X117571022Y-102534347D01*
X117658261Y-102395507D01*
X118343724Y-103080970D01*
X118391572Y-103020973D01*
X118522716Y-102793825D01*
X118522718Y-102793822D01*
X118618539Y-102549671D01*
X118618540Y-102549668D01*
X118676905Y-102293955D01*
X118696506Y-102032404D01*
X120562918Y-102032404D01*
X120582811Y-102272484D01*
X120582813Y-102272491D01*
X120641953Y-102506033D01*
X120738727Y-102726656D01*
X120870495Y-102928341D01*
X121033662Y-103105587D01*
X121033663Y-103105588D01*
X121223780Y-103253562D01*
X121319273Y-103305239D01*
X121435654Y-103368222D01*
X121663515Y-103446447D01*
X121901143Y-103486100D01*
X121901147Y-103486100D01*
X122142053Y-103486100D01*
X122142057Y-103486100D01*
X122379685Y-103446447D01*
X122607546Y-103368222D01*
X122819423Y-103253560D01*
X123009538Y-103105587D01*
X123172705Y-102928341D01*
X123304473Y-102726656D01*
X123401247Y-102506033D01*
X123460387Y-102272491D01*
X123461040Y-102264618D01*
X123480282Y-102032404D01*
X123480282Y-102032395D01*
X123460388Y-101792315D01*
X123460387Y-101792312D01*
X123460387Y-101792309D01*
X123401247Y-101558767D01*
X123304473Y-101338144D01*
X123172705Y-101136459D01*
X123009538Y-100959213D01*
X123009537Y-100959212D01*
X123009536Y-100959211D01*
X122819419Y-100811237D01*
X122607546Y-100696578D01*
X122607545Y-100696577D01*
X122454313Y-100643973D01*
X122379685Y-100618353D01*
X122340080Y-100611744D01*
X122142062Y-100578700D01*
X122142057Y-100578700D01*
X121901143Y-100578700D01*
X121901137Y-100578700D01*
X121663515Y-100618353D01*
X121435654Y-100696577D01*
X121435653Y-100696578D01*
X121223780Y-100811237D01*
X121033663Y-100959211D01*
X120870494Y-101136460D01*
X120738730Y-101338138D01*
X120738728Y-101338142D01*
X120738727Y-101338144D01*
X120706923Y-101410651D01*
X120641953Y-101558766D01*
X120582811Y-101792315D01*
X120562918Y-102032395D01*
X120562918Y-102032404D01*
X118696506Y-102032404D01*
X118696506Y-102032400D01*
X118676905Y-101770844D01*
X118618540Y-101515131D01*
X118618539Y-101515128D01*
X118522718Y-101270977D01*
X118522716Y-101270974D01*
X118391576Y-101043832D01*
X118391568Y-101043821D01*
X118343725Y-100983828D01*
X118343724Y-100983828D01*
X117658260Y-101669291D01*
X117571022Y-101530453D01*
X117443547Y-101402978D01*
X117304705Y-101315738D01*
X117990766Y-100629678D01*
X117990766Y-100629677D01*
X117819053Y-100512605D01*
X117819050Y-100512604D01*
X117582745Y-100398805D01*
X117332100Y-100321491D01*
X117072743Y-100282400D01*
X116810457Y-100282400D01*
X116551100Y-100321491D01*
X116551097Y-100321491D01*
X116300454Y-100398805D01*
X116064150Y-100512604D01*
X116064147Y-100512605D01*
X115892432Y-100629678D01*
X116578492Y-101315738D01*
X116439653Y-101402978D01*
X116312178Y-101530453D01*
X116224938Y-101669292D01*
X115539474Y-100983828D01*
X115491626Y-101043829D01*
X115491623Y-101043832D01*
X115360483Y-101270974D01*
X115360481Y-101270977D01*
X115264660Y-101515128D01*
X115264659Y-101515131D01*
X115206294Y-101770844D01*
X115186693Y-102032400D01*
X67030877Y-102032400D01*
X67016614Y-101860268D01*
X66955586Y-101619279D01*
X66855730Y-101391628D01*
X66755435Y-101238116D01*
X66094733Y-101898818D01*
X66056054Y-101805438D01*
X65959888Y-101680112D01*
X65834562Y-101583946D01*
X65741179Y-101545265D01*
X66402056Y-100884388D01*
X66355236Y-100847947D01*
X66136608Y-100729632D01*
X66136607Y-100729631D01*
X65901489Y-100648916D01*
X65656299Y-100608000D01*
X65407700Y-100608000D01*
X65162510Y-100648916D01*
X64927392Y-100729631D01*
X64927391Y-100729632D01*
X64708771Y-100847942D01*
X64708763Y-100847948D01*
X64661942Y-100884388D01*
X64661942Y-100884389D01*
X65322819Y-101545266D01*
X65229438Y-101583946D01*
X65104112Y-101680112D01*
X65007946Y-101805437D01*
X64969266Y-101898819D01*
X64308563Y-101238117D01*
X64208269Y-101391628D01*
X64108413Y-101619279D01*
X64047385Y-101860268D01*
X64026859Y-102107994D01*
X64026859Y-102108005D01*
X52244579Y-102108005D01*
X52244579Y-99875001D01*
X81516511Y-99875001D01*
X81535630Y-100093531D01*
X81535631Y-100093542D01*
X81592408Y-100305432D01*
X81648164Y-100425000D01*
X81685117Y-100504245D01*
X81810941Y-100683941D01*
X81966059Y-100839059D01*
X82145755Y-100964883D01*
X82344571Y-101057593D01*
X82491369Y-101096927D01*
X82556457Y-101114368D01*
X82556459Y-101114368D01*
X82556466Y-101114370D01*
X82746673Y-101131010D01*
X82774998Y-101133489D01*
X82775000Y-101133489D01*
X82775002Y-101133489D01*
X82801602Y-101131161D01*
X82993534Y-101114370D01*
X82993541Y-101114368D01*
X82993542Y-101114368D01*
X83016251Y-101108282D01*
X83205429Y-101057593D01*
X83404245Y-100964883D01*
X83583941Y-100839059D01*
X83739059Y-100683941D01*
X83864883Y-100504245D01*
X83933826Y-100356398D01*
X83976229Y-100310927D01*
X84037261Y-100299064D01*
X84093609Y-100325340D01*
X84116174Y-100356398D01*
X84148164Y-100425000D01*
X84185117Y-100504245D01*
X84310941Y-100683941D01*
X84466059Y-100839059D01*
X84645755Y-100964883D01*
X84844571Y-101057593D01*
X84991369Y-101096927D01*
X85056457Y-101114368D01*
X85056459Y-101114368D01*
X85056466Y-101114370D01*
X85246673Y-101131010D01*
X85274998Y-101133489D01*
X85275000Y-101133489D01*
X85275002Y-101133489D01*
X85301602Y-101131161D01*
X85493534Y-101114370D01*
X85493541Y-101114368D01*
X85493542Y-101114368D01*
X85516251Y-101108282D01*
X85705429Y-101057593D01*
X85904245Y-100964883D01*
X86083941Y-100839059D01*
X86239059Y-100683941D01*
X86364883Y-100504245D01*
X86433826Y-100356398D01*
X86476229Y-100310927D01*
X86537261Y-100299064D01*
X86593609Y-100325340D01*
X86616174Y-100356398D01*
X86648164Y-100425000D01*
X86685117Y-100504245D01*
X86810941Y-100683941D01*
X86966059Y-100839059D01*
X87145755Y-100964883D01*
X87344571Y-101057593D01*
X87491369Y-101096927D01*
X87556457Y-101114368D01*
X87556459Y-101114368D01*
X87556466Y-101114370D01*
X87746673Y-101131010D01*
X87774998Y-101133489D01*
X87775000Y-101133489D01*
X87775002Y-101133489D01*
X87801602Y-101131161D01*
X87993534Y-101114370D01*
X87993541Y-101114368D01*
X87993542Y-101114368D01*
X88016251Y-101108282D01*
X88205429Y-101057593D01*
X88404245Y-100964883D01*
X88583941Y-100839059D01*
X88739059Y-100683941D01*
X88765053Y-100646817D01*
X88814704Y-100609400D01*
X88876869Y-100608313D01*
X88927800Y-100643973D01*
X88933235Y-100651955D01*
X89013503Y-100782941D01*
X89013504Y-100782941D01*
X89749070Y-100047374D01*
X89751884Y-100060915D01*
X89821442Y-100195156D01*
X89924638Y-100305652D01*
X90053819Y-100384209D01*
X90105002Y-100398549D01*
X89367056Y-101136495D01*
X89569142Y-101260332D01*
X89569144Y-101260333D01*
X89794546Y-101353697D01*
X90031770Y-101410649D01*
X90031779Y-101410651D01*
X90275000Y-101429792D01*
X90518220Y-101410651D01*
X90518229Y-101410649D01*
X90755453Y-101353697D01*
X90755454Y-101353697D01*
X90980855Y-101260333D01*
X90980861Y-101260331D01*
X91182941Y-101136495D01*
X91182942Y-101136495D01*
X90446568Y-100400121D01*
X90563458Y-100349349D01*
X90680739Y-100253934D01*
X90767928Y-100130415D01*
X90798354Y-100044801D01*
X91536495Y-100782942D01*
X91536495Y-100782941D01*
X91660331Y-100580861D01*
X91660333Y-100580855D01*
X91753697Y-100355454D01*
X91753697Y-100355453D01*
X91810649Y-100118229D01*
X91810651Y-100118220D01*
X91813974Y-100076000D01*
X94609271Y-100076000D01*
X94630080Y-100220733D01*
X94690822Y-100353740D01*
X94690823Y-100353741D01*
X94690824Y-100353743D01*
X94786579Y-100464250D01*
X94909589Y-100543304D01*
X95049889Y-100584500D01*
X95196111Y-100584500D01*
X95336411Y-100543304D01*
X95459421Y-100464250D01*
X95555176Y-100353743D01*
X95615919Y-100220734D01*
X95636729Y-100076000D01*
X95615919Y-99931266D01*
X95555176Y-99798257D01*
X95459421Y-99687750D01*
X95353355Y-99619585D01*
X95336410Y-99608695D01*
X95196111Y-99567500D01*
X95049889Y-99567500D01*
X94909590Y-99608695D01*
X94909589Y-99608695D01*
X94786577Y-99687751D01*
X94690822Y-99798259D01*
X94630080Y-99931266D01*
X94609271Y-100076000D01*
X91813974Y-100076000D01*
X91829792Y-99875000D01*
X91810651Y-99631779D01*
X91810649Y-99631770D01*
X91753697Y-99394546D01*
X91753697Y-99394545D01*
X91709813Y-99288600D01*
X97250871Y-99288600D01*
X97271680Y-99433333D01*
X97332422Y-99566340D01*
X97332423Y-99566341D01*
X97332424Y-99566343D01*
X97428179Y-99676850D01*
X97551189Y-99755904D01*
X97691489Y-99797100D01*
X97837711Y-99797100D01*
X97978011Y-99755904D01*
X98101021Y-99676850D01*
X98196776Y-99566343D01*
X98257519Y-99433334D01*
X98278329Y-99288600D01*
X98257519Y-99143866D01*
X98196776Y-99010857D01*
X98101021Y-98900350D01*
X98039516Y-98860823D01*
X97978010Y-98821295D01*
X97837711Y-98780100D01*
X97691489Y-98780100D01*
X97551190Y-98821295D01*
X97551189Y-98821295D01*
X97428177Y-98900351D01*
X97332422Y-99010859D01*
X97271680Y-99143866D01*
X97250871Y-99288600D01*
X91709813Y-99288600D01*
X91660333Y-99169144D01*
X91660332Y-99169142D01*
X91536495Y-98967056D01*
X90800929Y-99702622D01*
X90798116Y-99689085D01*
X90728558Y-99554844D01*
X90625362Y-99444348D01*
X90496181Y-99365791D01*
X90444995Y-99351449D01*
X91182941Y-98613504D01*
X91182941Y-98613503D01*
X90980857Y-98489667D01*
X90980855Y-98489666D01*
X90755453Y-98396302D01*
X90518229Y-98339350D01*
X90518220Y-98339348D01*
X90275000Y-98320207D01*
X90031779Y-98339348D01*
X90031770Y-98339350D01*
X89794546Y-98396302D01*
X89794545Y-98396302D01*
X89569141Y-98489667D01*
X89569140Y-98489668D01*
X89367057Y-98613503D01*
X89367057Y-98613504D01*
X90103431Y-99349878D01*
X89986542Y-99400651D01*
X89869261Y-99496066D01*
X89782072Y-99619585D01*
X89751645Y-99705198D01*
X89013504Y-98967057D01*
X89013503Y-98967057D01*
X88933236Y-99098043D01*
X88885958Y-99138422D01*
X88823976Y-99143300D01*
X88770963Y-99110815D01*
X88765053Y-99103182D01*
X88739060Y-99066060D01*
X88583943Y-98910943D01*
X88583941Y-98910941D01*
X88404245Y-98785117D01*
X88404239Y-98785114D01*
X88205432Y-98692408D01*
X88205429Y-98692407D01*
X88174408Y-98684095D01*
X87993542Y-98635631D01*
X87993535Y-98635630D01*
X87993534Y-98635630D01*
X87862413Y-98624158D01*
X87775002Y-98616511D01*
X87774998Y-98616511D01*
X87665733Y-98626070D01*
X87556466Y-98635630D01*
X87556464Y-98635630D01*
X87556457Y-98635631D01*
X87344567Y-98692408D01*
X87145761Y-98785114D01*
X87145747Y-98785122D01*
X86966060Y-98910939D01*
X86810939Y-99066060D01*
X86685122Y-99245747D01*
X86685114Y-99245761D01*
X86616174Y-99393602D01*
X86573771Y-99439073D01*
X86512739Y-99450936D01*
X86456390Y-99424660D01*
X86433826Y-99393602D01*
X86364885Y-99245761D01*
X86364883Y-99245756D01*
X86311239Y-99169144D01*
X86239060Y-99066060D01*
X86083943Y-98910943D01*
X86083941Y-98910941D01*
X85904245Y-98785117D01*
X85904239Y-98785114D01*
X85705432Y-98692408D01*
X85705429Y-98692407D01*
X85674408Y-98684095D01*
X85493542Y-98635631D01*
X85493535Y-98635630D01*
X85493534Y-98635630D01*
X85362413Y-98624158D01*
X85275002Y-98616511D01*
X85274998Y-98616511D01*
X85165733Y-98626070D01*
X85056466Y-98635630D01*
X85056464Y-98635630D01*
X85056457Y-98635631D01*
X84844567Y-98692408D01*
X84645761Y-98785114D01*
X84645747Y-98785122D01*
X84466060Y-98910939D01*
X84310939Y-99066060D01*
X84185122Y-99245747D01*
X84185114Y-99245761D01*
X84116174Y-99393602D01*
X84073771Y-99439073D01*
X84012739Y-99450936D01*
X83956390Y-99424660D01*
X83933826Y-99393602D01*
X83864885Y-99245761D01*
X83864883Y-99245756D01*
X83811239Y-99169144D01*
X83739060Y-99066060D01*
X83583943Y-98910943D01*
X83583941Y-98910941D01*
X83404245Y-98785117D01*
X83404239Y-98785114D01*
X83205432Y-98692408D01*
X83205429Y-98692407D01*
X83174408Y-98684095D01*
X82993542Y-98635631D01*
X82993535Y-98635630D01*
X82993534Y-98635630D01*
X82862413Y-98624158D01*
X82775002Y-98616511D01*
X82774998Y-98616511D01*
X82665733Y-98626070D01*
X82556466Y-98635630D01*
X82556464Y-98635630D01*
X82556457Y-98635631D01*
X82344567Y-98692408D01*
X82145761Y-98785114D01*
X82145747Y-98785122D01*
X81966060Y-98910939D01*
X81810939Y-99066060D01*
X81685122Y-99245747D01*
X81685114Y-99245761D01*
X81592408Y-99444567D01*
X81535631Y-99656457D01*
X81535630Y-99656468D01*
X81516511Y-99874998D01*
X81516511Y-99875001D01*
X52244579Y-99875001D01*
X52244579Y-97108000D01*
X64323143Y-97108000D01*
X64343725Y-97330126D01*
X64343726Y-97330129D01*
X64404774Y-97544691D01*
X64404775Y-97544693D01*
X64504206Y-97744376D01*
X64504207Y-97744377D01*
X64504209Y-97744381D01*
X64638644Y-97922402D01*
X64803491Y-98072681D01*
X64803495Y-98072684D01*
X64803501Y-98072689D01*
X64993166Y-98190124D01*
X65201181Y-98270710D01*
X65254995Y-98280769D01*
X65420459Y-98311700D01*
X65420461Y-98311700D01*
X65643540Y-98311700D01*
X65726271Y-98296234D01*
X65862819Y-98270710D01*
X66070834Y-98190124D01*
X66260499Y-98072689D01*
X66425356Y-97922402D01*
X66559791Y-97744381D01*
X66659226Y-97544690D01*
X66720274Y-97330127D01*
X66740857Y-97108000D01*
X66720274Y-96885873D01*
X66659226Y-96671310D01*
X66559791Y-96471619D01*
X66425356Y-96293598D01*
X66425355Y-96293597D01*
X66260508Y-96143318D01*
X66260503Y-96143314D01*
X66260499Y-96143311D01*
X66070834Y-96025876D01*
X66070830Y-96025874D01*
X65862817Y-95945289D01*
X65862812Y-95945288D01*
X65643541Y-95904300D01*
X65643539Y-95904300D01*
X65420461Y-95904300D01*
X65420459Y-95904300D01*
X65201187Y-95945288D01*
X65201182Y-95945289D01*
X64993169Y-96025874D01*
X64993165Y-96025876D01*
X64921825Y-96070048D01*
X64803501Y-96143311D01*
X64803500Y-96143312D01*
X64803491Y-96143318D01*
X64638644Y-96293597D01*
X64581474Y-96369302D01*
X64504209Y-96471619D01*
X64504207Y-96471623D01*
X64504206Y-96471623D01*
X64404775Y-96671306D01*
X64404774Y-96671308D01*
X64343726Y-96885870D01*
X64343725Y-96885873D01*
X64323143Y-97108000D01*
X52244579Y-97108000D01*
X52244579Y-95681800D01*
X92755071Y-95681800D01*
X92775880Y-95826533D01*
X92836622Y-95959540D01*
X92836623Y-95959541D01*
X92836624Y-95959543D01*
X92932379Y-96070050D01*
X93055389Y-96149104D01*
X93195689Y-96190300D01*
X93341911Y-96190300D01*
X93482211Y-96149104D01*
X93605221Y-96070050D01*
X93700976Y-95959543D01*
X93761719Y-95826534D01*
X93782529Y-95681800D01*
X93761719Y-95537066D01*
X93700976Y-95404057D01*
X93605221Y-95293550D01*
X93543716Y-95254023D01*
X93482210Y-95214495D01*
X93341911Y-95173300D01*
X93195689Y-95173300D01*
X93055390Y-95214495D01*
X93055389Y-95214495D01*
X92932377Y-95293551D01*
X92836622Y-95404059D01*
X92775880Y-95537066D01*
X92755071Y-95681800D01*
X52244579Y-95681800D01*
X52244579Y-94996000D01*
X110103271Y-94996000D01*
X110124080Y-95140733D01*
X110184822Y-95273740D01*
X110184823Y-95273741D01*
X110184824Y-95273743D01*
X110280579Y-95384250D01*
X110403589Y-95463304D01*
X110543889Y-95504500D01*
X110690111Y-95504500D01*
X110830411Y-95463304D01*
X110953421Y-95384250D01*
X111049176Y-95273743D01*
X111109919Y-95140734D01*
X111130729Y-94996000D01*
X111109919Y-94851266D01*
X111049176Y-94718257D01*
X110953421Y-94607750D01*
X110891916Y-94568223D01*
X110830410Y-94528695D01*
X110690111Y-94487500D01*
X110543889Y-94487500D01*
X110403590Y-94528695D01*
X110403589Y-94528695D01*
X110280577Y-94607751D01*
X110184822Y-94718259D01*
X110124080Y-94851266D01*
X110103271Y-94996000D01*
X52244579Y-94996000D01*
X52244579Y-91821000D01*
X55137383Y-91821000D01*
X55157025Y-92083108D01*
X55215513Y-92339361D01*
X55215514Y-92339364D01*
X55311539Y-92584030D01*
X55311541Y-92584035D01*
X55442958Y-92811657D01*
X55442965Y-92811668D01*
X55606843Y-93017163D01*
X55606848Y-93017169D01*
X55799513Y-93195936D01*
X55799515Y-93195938D01*
X55799520Y-93195942D01*
X56016692Y-93344007D01*
X56253505Y-93458050D01*
X56504671Y-93535525D01*
X56764578Y-93574700D01*
X57027422Y-93574700D01*
X57287329Y-93535525D01*
X57538495Y-93458050D01*
X57775309Y-93344007D01*
X57992480Y-93195942D01*
X58088818Y-93106552D01*
X58185151Y-93017169D01*
X58185152Y-93017167D01*
X58185157Y-93017163D01*
X58349038Y-92811664D01*
X58480459Y-92584035D01*
X58576487Y-92339361D01*
X58634975Y-92083108D01*
X58654617Y-91821000D01*
X58634975Y-91558892D01*
X58607839Y-91440000D01*
X77845271Y-91440000D01*
X77866080Y-91584733D01*
X77926822Y-91717740D01*
X77926823Y-91717741D01*
X77926824Y-91717743D01*
X78022579Y-91828250D01*
X78145589Y-91907304D01*
X78285889Y-91948500D01*
X78432111Y-91948500D01*
X78572411Y-91907304D01*
X78627656Y-91871800D01*
X127476583Y-91871800D01*
X127496225Y-92133908D01*
X127543118Y-92339361D01*
X127554713Y-92390161D01*
X127554714Y-92390164D01*
X127650739Y-92634830D01*
X127650741Y-92634835D01*
X127782158Y-92862457D01*
X127782165Y-92862468D01*
X127946043Y-93067963D01*
X127946048Y-93067969D01*
X128138713Y-93246736D01*
X128138715Y-93246738D01*
X128138720Y-93246742D01*
X128355892Y-93394807D01*
X128592705Y-93508850D01*
X128843871Y-93586325D01*
X129103778Y-93625500D01*
X129366622Y-93625500D01*
X129626529Y-93586325D01*
X129877695Y-93508850D01*
X130114509Y-93394807D01*
X130331680Y-93246742D01*
X130524357Y-93067963D01*
X130688238Y-92862464D01*
X130819659Y-92634835D01*
X130915687Y-92390161D01*
X130974175Y-92133908D01*
X130993817Y-91871800D01*
X130974175Y-91609692D01*
X130915687Y-91353439D01*
X130819659Y-91108765D01*
X130688238Y-90881136D01*
X130524357Y-90675637D01*
X130524356Y-90675636D01*
X130524351Y-90675630D01*
X130331686Y-90496863D01*
X130331682Y-90496860D01*
X130331680Y-90496858D01*
X130114509Y-90348793D01*
X130114510Y-90348793D01*
X130114508Y-90348792D01*
X130114506Y-90348791D01*
X129877702Y-90234753D01*
X129877699Y-90234752D01*
X129877695Y-90234750D01*
X129626529Y-90157275D01*
X129626521Y-90157273D01*
X129366622Y-90118100D01*
X129103778Y-90118100D01*
X128843878Y-90157273D01*
X128843870Y-90157275D01*
X128757393Y-90183950D01*
X128592705Y-90234750D01*
X128592701Y-90234751D01*
X128592697Y-90234753D01*
X128355895Y-90348791D01*
X128355892Y-90348792D01*
X128138721Y-90496857D01*
X128138713Y-90496863D01*
X127946048Y-90675630D01*
X127946043Y-90675636D01*
X127782165Y-90881131D01*
X127782158Y-90881142D01*
X127650741Y-91108764D01*
X127650739Y-91108769D01*
X127554714Y-91353435D01*
X127554713Y-91353438D01*
X127554713Y-91353439D01*
X127496225Y-91609692D01*
X127476583Y-91871800D01*
X78627656Y-91871800D01*
X78695421Y-91828250D01*
X78791176Y-91717743D01*
X78851919Y-91584734D01*
X78872729Y-91440000D01*
X78851919Y-91295266D01*
X78791176Y-91162257D01*
X78700806Y-91057965D01*
X78695422Y-91051751D01*
X78695421Y-91051750D01*
X78633916Y-91012223D01*
X78572410Y-90972695D01*
X78432111Y-90931500D01*
X78285889Y-90931500D01*
X78145590Y-90972695D01*
X78145589Y-90972695D01*
X78022577Y-91051751D01*
X77926822Y-91162259D01*
X77866080Y-91295266D01*
X77845271Y-91440000D01*
X58607839Y-91440000D01*
X58576487Y-91302639D01*
X58480459Y-91057965D01*
X58349038Y-90830336D01*
X58185157Y-90624837D01*
X58185156Y-90624836D01*
X58185151Y-90624830D01*
X57992486Y-90446063D01*
X57992482Y-90446060D01*
X57992480Y-90446058D01*
X57775309Y-90297993D01*
X57775310Y-90297993D01*
X57775308Y-90297992D01*
X57775306Y-90297991D01*
X57538502Y-90183953D01*
X57538499Y-90183952D01*
X57538495Y-90183950D01*
X57287329Y-90106475D01*
X57287321Y-90106473D01*
X57027422Y-90067300D01*
X56764578Y-90067300D01*
X56504678Y-90106473D01*
X56504670Y-90106475D01*
X56412519Y-90134900D01*
X56253505Y-90183950D01*
X56253501Y-90183951D01*
X56253497Y-90183953D01*
X56016695Y-90297991D01*
X56016692Y-90297992D01*
X55799521Y-90446057D01*
X55799513Y-90446063D01*
X55606848Y-90624830D01*
X55606843Y-90624836D01*
X55442965Y-90830331D01*
X55442958Y-90830342D01*
X55311541Y-91057964D01*
X55311539Y-91057969D01*
X55215514Y-91302635D01*
X55215513Y-91302638D01*
X55215513Y-91302639D01*
X55157025Y-91558892D01*
X55137383Y-91821000D01*
X52244579Y-91821000D01*
X52244579Y-88579676D01*
X52244821Y-88574743D01*
X52258753Y-88433285D01*
X52262601Y-88413943D01*
X52274808Y-88373702D01*
X52301702Y-88285042D01*
X52309241Y-88266837D01*
X52372749Y-88148022D01*
X52383696Y-88131639D01*
X52469155Y-88027504D01*
X52483095Y-88013564D01*
X52587220Y-87928109D01*
X52603615Y-87917155D01*
X52722412Y-87853654D01*
X52740627Y-87846107D01*
X52869538Y-87807000D01*
X52888870Y-87803155D01*
X53030122Y-87789241D01*
X53035040Y-87789000D01*
X132504081Y-87789000D01*
X132542008Y-87789000D01*
X132547181Y-87789267D01*
G37*
G04 #@! TD.AperFunction*
M02*
