%TF.GenerationSoftware,KiCad,Pcbnew,7.0.9*%
%TF.CreationDate,2024-10-07T21:29:41-04:00*%
%TF.ProjectId,T12 soldering station V12,54313220-736f-46c6-9465-72696e672073,rev?*%
%TF.SameCoordinates,Original*%
%TF.FileFunction,Drillmap*%
%TF.FilePolarity,Positive*%
%FSLAX45Y45*%
G04 Gerber Fmt 4.5, Leading zero omitted, Abs format (unit mm)*
G04 Created by KiCad (PCBNEW 7.0.9) date 2024-10-07 21:29:41*
%MOMM*%
%LPD*%
G01*
G04 APERTURE LIST*
%ADD10C,0.100000*%
%ADD11C,0.200000*%
G04 APERTURE END LIST*
D10*
X5204088Y-14309542D02*
G75*
G03*
X5303278Y-14408732I99192J2D01*
G01*
X5303278Y-8758528D02*
G75*
G03*
X5204088Y-8857720I2J-99192D01*
G01*
X5204088Y-8857720D02*
X5204088Y-14309542D01*
X13353359Y-8865318D02*
G75*
G03*
X13254460Y-8758530I-98899J7598D01*
G01*
X13255442Y-14408732D02*
X5303278Y-14408732D01*
X13255442Y-14408732D02*
G75*
G03*
X13354632Y-14309542I-2J99192D01*
G01*
X13254460Y-8758530D02*
X5303460Y-8758530D01*
X13353359Y-8865318D02*
X13354632Y-14309542D01*
D11*
X5459865Y-14725216D02*
X5459865Y-14525216D01*
X5459865Y-14525216D02*
X5507484Y-14525216D01*
X5507484Y-14525216D02*
X5536055Y-14534740D01*
X5536055Y-14534740D02*
X5555103Y-14553787D01*
X5555103Y-14553787D02*
X5564627Y-14572835D01*
X5564627Y-14572835D02*
X5574150Y-14610930D01*
X5574150Y-14610930D02*
X5574150Y-14639502D01*
X5574150Y-14639502D02*
X5564627Y-14677597D01*
X5564627Y-14677597D02*
X5555103Y-14696644D01*
X5555103Y-14696644D02*
X5536055Y-14715692D01*
X5536055Y-14715692D02*
X5507484Y-14725216D01*
X5507484Y-14725216D02*
X5459865Y-14725216D01*
X5659865Y-14725216D02*
X5659865Y-14591883D01*
X5659865Y-14629978D02*
X5669388Y-14610930D01*
X5669388Y-14610930D02*
X5678912Y-14601406D01*
X5678912Y-14601406D02*
X5697960Y-14591883D01*
X5697960Y-14591883D02*
X5717008Y-14591883D01*
X5783674Y-14725216D02*
X5783674Y-14591883D01*
X5783674Y-14525216D02*
X5774150Y-14534740D01*
X5774150Y-14534740D02*
X5783674Y-14544264D01*
X5783674Y-14544264D02*
X5793198Y-14534740D01*
X5793198Y-14534740D02*
X5783674Y-14525216D01*
X5783674Y-14525216D02*
X5783674Y-14544264D01*
X5907484Y-14725216D02*
X5888436Y-14715692D01*
X5888436Y-14715692D02*
X5878912Y-14696644D01*
X5878912Y-14696644D02*
X5878912Y-14525216D01*
X6012246Y-14725216D02*
X5993198Y-14715692D01*
X5993198Y-14715692D02*
X5983674Y-14696644D01*
X5983674Y-14696644D02*
X5983674Y-14525216D01*
X6240817Y-14725216D02*
X6240817Y-14525216D01*
X6240817Y-14525216D02*
X6307484Y-14668073D01*
X6307484Y-14668073D02*
X6374150Y-14525216D01*
X6374150Y-14525216D02*
X6374150Y-14725216D01*
X6555103Y-14725216D02*
X6555103Y-14620454D01*
X6555103Y-14620454D02*
X6545579Y-14601406D01*
X6545579Y-14601406D02*
X6526531Y-14591883D01*
X6526531Y-14591883D02*
X6488436Y-14591883D01*
X6488436Y-14591883D02*
X6469388Y-14601406D01*
X6555103Y-14715692D02*
X6536055Y-14725216D01*
X6536055Y-14725216D02*
X6488436Y-14725216D01*
X6488436Y-14725216D02*
X6469388Y-14715692D01*
X6469388Y-14715692D02*
X6459865Y-14696644D01*
X6459865Y-14696644D02*
X6459865Y-14677597D01*
X6459865Y-14677597D02*
X6469388Y-14658549D01*
X6469388Y-14658549D02*
X6488436Y-14649025D01*
X6488436Y-14649025D02*
X6536055Y-14649025D01*
X6536055Y-14649025D02*
X6555103Y-14639502D01*
X6650341Y-14591883D02*
X6650341Y-14791883D01*
X6650341Y-14601406D02*
X6669388Y-14591883D01*
X6669388Y-14591883D02*
X6707484Y-14591883D01*
X6707484Y-14591883D02*
X6726531Y-14601406D01*
X6726531Y-14601406D02*
X6736055Y-14610930D01*
X6736055Y-14610930D02*
X6745579Y-14629978D01*
X6745579Y-14629978D02*
X6745579Y-14687121D01*
X6745579Y-14687121D02*
X6736055Y-14706168D01*
X6736055Y-14706168D02*
X6726531Y-14715692D01*
X6726531Y-14715692D02*
X6707484Y-14725216D01*
X6707484Y-14725216D02*
X6669388Y-14725216D01*
X6669388Y-14725216D02*
X6650341Y-14715692D01*
X6831293Y-14706168D02*
X6840817Y-14715692D01*
X6840817Y-14715692D02*
X6831293Y-14725216D01*
X6831293Y-14725216D02*
X6821769Y-14715692D01*
X6821769Y-14715692D02*
X6831293Y-14706168D01*
X6831293Y-14706168D02*
X6831293Y-14725216D01*
X6831293Y-14601406D02*
X6840817Y-14610930D01*
X6840817Y-14610930D02*
X6831293Y-14620454D01*
X6831293Y-14620454D02*
X6821769Y-14610930D01*
X6821769Y-14610930D02*
X6831293Y-14601406D01*
X6831293Y-14601406D02*
X6831293Y-14620454D01*
M02*
